<svg>
<metadata> Created by FontForge 20090622 at Mon Nov 19 16:50:30 2018 By ffonts Copyright (c) 2018 by Studio Kmzero & Zetafonts. All rights reserved. </metadata>
<defs>
<font id="BodyGrotesqueFitTrial-Bold" horiz-adv-x="1727">
<font-face font-family="Body Grotesque Fit Trial" font-weight="700" font-stretch="normal" units-per-em="2048" panose-1="2 0 5 3 4 0 0 2 0 4" ascent="1638" descent="-410" x-height="1026" cap-height="1432" bbox="-330 -715 3225 2049" underline-thickness="96" underline-position="-96" unicode-range="U+000D-U+FB04"/>
<missing-glyph horiz-adv-x="1666" d="M72 1649h1519v-1843h-1519v1843zM939 418v33q0 36 7.5 61.5t22.5 46t37 39t51.5 39.5l65.5 48t79 65q89 79 129.5 158t40.5 171q0 95 -38 168t-109 122.5t-172 75t-227 25.5q-151 0 -263.5 -35.5t-179.5 -105.5t-84.5 -174t21.5 -240l254 56q-20 76 -10.5 129t43.5 86.5 t88.5 48.5t123.5 15q56 0 101 -14.5t76.5 -40.5t48 -62t16.5 -80q0 -43 -17.5 -79t-45 -67.5t-61 -59.5l-65.5 -54q-58 -44 -99.5 -79.5t-68 -71.5t-39 -78.5t-12.5 -101.5v-44h286zM956 0v305h-317v-305h317z"/>
<glyph glyph-name="ff" unicode="ff" horiz-adv-x="1540" d="M192 0v864h-172v162h145l-11.5 67t-6.5 74q0 72 25.5 132.5t74 104t117.5 68t156 24.5q98 0 170.5 -25t114.5 -64l-84 -174q-16 11 -32 20t-35.5 15t-43.5 9.5t-54 3.5q-60 0 -94.5 -34.5t-34.5 -96.5q0 -29 6 -60.5t14 -63.5h436q-6 28 -12.5 67t-6.5 74q0 72 28 132.5 t79 104t123 68t159 24.5q108 0 177.5 -29t110 -72t57 -93.5t17.5 -92.5l-211 -46q-3 19 -9.5 40t-21 38.5t-38.5 28.5t-61 11q-60 0 -95 -34.5t-35 -96.5q0 -29 6 -60.5t14 -63.5h383v-162h-336v-864h-302v864h-415v-864h-302z"/>
<glyph glyph-name="ffi" unicode="ffi" horiz-adv-x="2040" d="M192 0v864h-172v162h145l-11.5 67t-6.5 74q0 72 25.5 132.5t74 104t117.5 68t156 24.5q98 0 170.5 -25t114.5 -64l-84 -174q-16 11 -32 20t-35.5 15t-43.5 9.5t-54 3.5q-60 0 -94.5 -34.5t-34.5 -96.5q0 -29 6 -60.5t14 -63.5h436q-6 28 -12.5 67t-6.5 74q0 72 28 132.5 t79 104t123 68t159 24.5q108 0 177.5 -29t110 -72t57 -93.5t17.5 -92.5l-211 -46q-3 19 -9.5 40t-21 38.5t-38.5 28.5t-61 11q-60 0 -95 -34.5t-35 -96.5q0 -29 6 -60.5t14 -63.5h383v-162h-336v-864h-302v864h-415v-864h-302zM1588 0v1026h306v-1026h-306z"/>
<glyph glyph-name="f_f_j" unicode="ffj" horiz-adv-x="2036" d="M192 0v864h-172v162h145l-11.5 67t-6.5 74q0 72 25.5 132.5t74 104t117.5 68t156 24.5q98 0 170.5 -25t114.5 -64l-84 -174q-16 11 -32 20t-35.5 15t-43.5 9.5t-54 3.5q-60 0 -94.5 -34.5t-34.5 -96.5q0 -29 6 -60.5t14 -63.5h436q-6 28 -12.5 67t-6.5 74q0 72 28 132.5 t79 104t123 68t159 24.5q108 0 177.5 -29t110 -72t57 -93.5t17.5 -92.5l-211 -46q-3 19 -9.5 40t-21 38.5t-38.5 28.5t-61 11q-60 0 -95 -34.5t-35 -96.5q0 -29 6 -60.5t14 -63.5h727v-1028q0 -75 -20 -144t-64 -121.5t-114 -83.5t-169 -31q-57 0 -105.5 14t-87 34.5t-66 44 t-43.5 42.5l90 140q13 -10 30 -21t36.5 -20t41.5 -14.5t47 -5.5t48 7.5t39.5 23.5t26.5 41t10 59q0 20 -1 40.5t-2 53t-2 82.5t-1 129v596h-374v-864h-302v864h-415v-864h-302z"/>
<glyph glyph-name="ffl" unicode="ffl" horiz-adv-x="2046" d="M909 0v864h-415v-864h-302v864h-172v162h145l-11.5 67t-6.5 74q0 72 25.5 132.5t74 104t117.5 68t156 24.5q98 0 170.5 -25t114.5 -64l-84 -174q-16 11 -32 20t-35.5 15t-43.5 9.5t-54 3.5q-60 0 -94.5 -34.5t-34.5 -96.5q0 -29 6 -60.5t14 -63.5h435l-11.5 67t-6.5 74 q0 72 25.5 132.5t74 104t118 68t156.5 24.5q98 0 170 -25t114 -64l-84 -174q-16 11 -32 20t-35.5 15t-43 9.5t-53.5 3.5q-60 0 -95 -34.5t-35 -96.5q0 -29 6 -60.5t14 -63.5h347v-162h-300v-864h-302zM1587 0v1446h306v-1446h-306z"/>
<glyph glyph-name="fi" unicode="fi" horiz-adv-x="1318" d="M192 0v864h-172v162h145l-11.5 67t-6.5 74q0 72 28 132.5t79 104t122.5 68t158.5 24.5q108 0 178 -29t110.5 -72t57 -93.5t17.5 -92.5l-211 -46q-3 19 -9.5 40t-21.5 38.5t-39 28.5t-61 11q-60 0 -94.5 -34.5t-34.5 -96.5q0 -29 6 -60.5t14 -63.5h725v-1026h-308v864 h-370v-864h-302z"/>
<glyph glyph-name="f_j" unicode="fj" horiz-adv-x="1315" d="M192 0v864h-172v162h145l-11.5 67t-6.5 74q0 72 28 132.5t79 104t122.5 68t158.5 24.5q108 0 178 -29t110.5 -72t57 -93.5t17.5 -92.5l-211 -46q-3 19 -9.5 40t-21.5 38.5t-39 28.5t-61 11q-60 0 -94.5 -34.5t-34.5 -96.5q0 -29 6 -60.5t14 -63.5h722v-1028 q0 -75 -20 -144t-64.5 -121.5t-114.5 -83.5t-169 -31q-57 0 -105.5 14t-87 34.5t-66 44t-43.5 42.5l90 140q13 -10 30 -21t36.5 -20t42 -14.5t47.5 -5.5t47.5 7.5t39 23.5t26.5 41t10 59q0 20 -1 40.5t-2 53t-2 82.5t-1 129v596h-368v-864h-302z"/>
<glyph glyph-name="fl" unicode="fl" horiz-adv-x="1323" d="M870 0v1446h307v-1446h-307zM192 0v864h-171v162h144l-11.5 67t-6.5 74q0 72 25.5 132.5t74 104t118 68t156.5 24.5q98 0 170.5 -25t114.5 -64l-85 -174q-16 11 -32 20t-35.5 15t-43 9.5t-53.5 3.5q-60 0 -95 -34.5t-35 -96.5q0 -29 6 -60.5t14 -63.5h347v-162h-300v-864 h-302z"/>
<glyph glyph-name="f_b" unicode="fb" horiz-adv-x="2088" d="M192 0v864h-171v162h144l-11.5 67t-6.5 74q0 72 25.5 132.5t74 104t118 68t156.5 24.5q98 0 170.5 -25t114.5 -64l-85 -174q-16 11 -32 20t-35.5 15t-43 9.5t-53.5 3.5q-60 0 -95 -34.5t-35 -96.5q0 -29 6 -60.5t14 -63.5h347v-162h-300v-864h-302zM870 0v1446h307v-583 q20 39 55 74.5t83.5 62.5t110 43t135.5 16q109 0 197 -37.5t150 -108t96 -171.5t34 -228q0 -123 -34 -223.5t-96 -172t-150.5 -111t-196.5 -39.5q-73 0 -138 17t-118 48t-93.5 73t-64.5 93l-45 -199h-232zM1177 512q0 -78 19.5 -138.5t55.5 -101.5t86.5 -62t112.5 -21 q61 0 111.5 20.5t86 61.5t55 101.5t19.5 141.5q0 85 -20 146t-56 100.5t-85.5 58.5t-109.5 19q-56 0 -106 -18.5t-87.5 -58.5t-59.5 -101.5t-22 -147.5z"/>
<glyph glyph-name="f_f_b" unicode="ffb" horiz-adv-x="2805" d="M1587 0v1446h307v-583q19 39 54 74.5t84 62.5t110.5 43t134.5 16q109 0 197.5 -37.5t150.5 -108t96 -171.5t34 -228q0 -123 -34 -223.5t-96 -172t-150.5 -111t-196.5 -39.5q-73 0 -138 17t-118 48t-93.5 73t-64.5 93l-44 -199h-233zM909 0v864h-415v-864h-302v864h-172 v162h145l-11.5 67t-6.5 74q0 72 25.5 132.5t74 104t117.5 68t156 24.5q98 0 170.5 -25t114.5 -64l-84 -174q-16 11 -32 20t-35.5 15t-43.5 9.5t-54 3.5q-60 0 -94.5 -34.5t-34.5 -96.5q0 -29 6 -60.5t14 -63.5h435l-11.5 67t-6.5 74q0 72 25.5 132.5t74 104t118 68 t156.5 24.5q98 0 170 -25t114 -64l-84 -174q-16 11 -32 20t-35.5 15t-43 9.5t-53.5 3.5q-60 0 -95 -34.5t-35 -96.5q0 -29 6 -60.5t14 -63.5h347v-162h-300v-864h-302zM1893 512q0 -78 20 -138.5t56 -101.5t86.5 -62t112.5 -21q61 0 111.5 20.5t85.5 61.5t54.5 101.5 t19.5 141.5q0 85 -20 146t-55.5 100.5t-85.5 58.5t-110 19q-56 0 -106 -18.5t-87.5 -58.5t-59.5 -101.5t-22 -147.5z"/>
<glyph glyph-name="f_h" unicode="fh" horiz-adv-x="2115" d="M192 0v864h-171v162h144l-11.5 67t-6.5 74q0 72 25.5 132.5t74 104t118 68t156.5 24.5q98 0 170.5 -25t114.5 -64l-85 -174q-16 11 -32 20t-35.5 15t-43 9.5t-53.5 3.5q-60 0 -95 -34.5t-35 -96.5q0 -29 6 -60.5t14 -63.5h347v-162h-300v-864h-302zM1671 0v536 q0 58 -8.5 111t-32 94t-66 65.5t-109.5 24.5q-57 0 -107.5 -26.5t-88.5 -73t-60 -110t-22 -137.5v-484h-307v1446h307v-623q52 112 154.5 174t242.5 62q117 0 194.5 -40t124 -107.5t66 -156t19.5 -185.5v-570h-307z"/>
<glyph glyph-name="f_f_h" unicode="ffh" horiz-adv-x="2832" d="M909 0v864h-415v-864h-302v864h-172v162h145l-11.5 67t-6.5 74q0 72 25.5 132.5t74 104t117.5 68t156 24.5q98 0 170.5 -25t114.5 -64l-84 -174q-16 11 -32 20t-35.5 15t-43.5 9.5t-54 3.5q-60 0 -94.5 -34.5t-34.5 -96.5q0 -29 6 -60.5t14 -63.5h435l-11.5 67t-6.5 74 q0 72 25.5 132.5t74 104t118 68t156.5 24.5q98 0 170 -25t114 -64l-84 -174q-16 11 -32 20t-35.5 15t-43 9.5t-53.5 3.5q-60 0 -95 -34.5t-35 -96.5q0 -29 6 -60.5t14 -63.5h347v-162h-300v-864h-302zM2388 0v536q0 58 -8.5 111t-32.5 94t-66.5 65.5t-109.5 24.5 q-57 0 -107.5 -26.5t-88.5 -73t-60 -110t-22 -137.5v-484h-306v1446h306v-623q53 112 155.5 174t242.5 62q117 0 194.5 -40t124 -107.5t66 -156t19.5 -185.5v-570h-307z"/>
<glyph glyph-name="f_idieresis" unicode="fï" horiz-adv-x="1318" d="M192 0v864h-172v162h145l-11.5 67t-6.5 74q0 72 28 132.5t79 104t122.5 68t158.5 24.5q108 0 178 -29t110.5 -72t57 -93.5t17.5 -92.5l-211 -46q-3 19 -9.5 40t-21.5 38.5t-39 28.5t-61 11q-60 0 -94.5 -34.5t-34.5 -96.5q0 -29 6 -60.5t14 -63.5h725v-1026h-308v864 h-370v-864h-302zM1035 1148v255h272v-255h-272z"/>
<glyph glyph-name="f_f_idieresis" unicode="ffï" horiz-adv-x="2040" d="M192 0v864h-172v162h145l-11.5 67t-6.5 74q0 72 25.5 132.5t74 104t117.5 68t156 24.5q98 0 170.5 -25t114.5 -64l-84 -174q-16 11 -32 20t-35.5 15t-43.5 9.5t-54 3.5q-60 0 -94.5 -34.5t-34.5 -96.5q0 -29 6 -60.5t14 -63.5h436q-6 28 -12.5 67t-6.5 74q0 72 28 132.5 t79 104t123 68t159 24.5q108 0 177.5 -29t110 -72t57 -93.5t17.5 -92.5l-211 -46q-3 19 -9.5 40t-21 38.5t-38.5 28.5t-61 11q-60 0 -95 -34.5t-35 -96.5q0 -29 6 -60.5t14 -63.5h730v-1026h-306v864h-377v-864h-302v864h-415v-864h-302zM1751 1154v255h273v-255h-273z"/>
<glyph glyph-name="f_k" unicode="fk" horiz-adv-x="2026" d="M192 0v864h-171v162h144l-11.5 67t-6.5 74q0 72 25.5 132.5t74 104t118 68t156.5 24.5q98 0 170.5 -25t114.5 -64l-85 -174q-16 11 -32 20t-35.5 15t-43 9.5t-53.5 3.5q-60 0 -95 -34.5t-35 -96.5q0 -29 6 -60.5t14 -63.5h347v-162h-300v-864h-302zM1679 0l-267 500 l-235 -215v-285h-306v1446h306v-872l444 452h371l-360 -354l387 -672h-340z"/>
<glyph glyph-name="f_f_k" unicode="ffk" horiz-adv-x="2743" d="M909 0v864h-415v-864h-302v864h-172v162h145l-11.5 67t-6.5 74q0 72 25.5 132.5t74 104t117.5 68t156 24.5q98 0 170.5 -25t114.5 -64l-84 -174q-16 11 -32 20t-35.5 15t-43.5 9.5t-54 3.5q-60 0 -94.5 -34.5t-34.5 -96.5q0 -29 6 -60.5t14 -63.5h435l-11.5 67t-6.5 74 q0 72 25.5 132.5t74 104t118 68t156.5 24.5q98 0 170 -25t114 -64l-84 -174q-16 11 -32 20t-35.5 15t-43 9.5t-53.5 3.5q-60 0 -95 -34.5t-35 -96.5q0 -29 6 -60.5t14 -63.5h347v-162h-300v-864h-302zM2396 0l-267 500l-236 -215v-285h-306v1446h306v-872l444 452h371 l-359 -354l386 -672h-339z"/>
<glyph glyph-name="f_t" unicode="ft" horiz-adv-x="1693" d="M1668 343q-7 -64 -30 -130.5t-70.5 -121t-121.5 -89t-183 -34.5q-104 0 -179.5 28t-124.5 82t-72 134t-23 184v468h-370v-864h-302v864h-171v162h144l-11.5 67t-6.5 74q0 72 25.5 132.5t74 104t118 68t156.5 24.5q98 0 170.5 -25t114.5 -64l-85 -174q-16 11 -32 20 t-35.5 15t-43 9.5t-53.5 3.5q-60 0 -95 -34.5t-35 -96.5q0 -29 6 -60.5t14 -63.5h354q68 0 94 34t26 100v187h247v-321h345v-162h-345v-485q0 -54 10 -90t28.5 -57t44.5 -30t59 -9q36 0 63 16t45.5 44.5t29.5 66.5t15 82z"/>
<glyph glyph-name=".notdef" horiz-adv-x="1666" d="M72 1649h1519v-1843h-1519v1843zM939 418v33q0 36 7.5 61.5t22.5 46t37 39t51.5 39.5l65.5 48t79 65q89 79 129.5 158t40.5 171q0 95 -38 168t-109 122.5t-172 75t-227 25.5q-151 0 -263.5 -35.5t-179.5 -105.5t-84.5 -174t21.5 -240l254 56q-20 76 -10.5 129t43.5 86.5 t88.5 48.5t123.5 15q56 0 101 -14.5t76.5 -40.5t48 -62t16.5 -80q0 -43 -17.5 -79t-45 -67.5t-61 -59.5l-65.5 -54q-58 -44 -99.5 -79.5t-68 -71.5t-39 -78.5t-12.5 -101.5v-44h286zM956 0v305h-317v-305h317z"/>
<glyph glyph-name="NULL" horiz-adv-x="0"/>
<glyph glyph-name="NULL" horiz-adv-x="0"/>
<glyph glyph-name="nonmarkingreturn" unicode=" " horiz-adv-x="558"/>
<glyph glyph-name="space" unicode=" " horiz-adv-x="558"/>
<glyph glyph-name="C" unicode="C" horiz-adv-x="1535" d="M1169 794q-8 112 -42 189.5t-85 125.5t-116 69.5t-134 21.5q-92 0 -164.5 -31.5t-123.5 -93.5t-78 -154t-27 -214q0 -117 28.5 -205.5t82.5 -148.5t131 -90.5t174 -30.5q66 0 126 17t109.5 52t86 88t57.5 125l289 -84q-28 -102 -86 -188t-144.5 -148.5t-200 -97.5 t-251.5 -35q-174 0 -311.5 51.5t-232.5 148.5t-145 236.5t-50 316.5q0 178 49.5 318.5t143.5 238t229.5 149t308.5 51.5q141 0 263 -41t213.5 -120t146 -195.5t60.5 -267.5l-298 -59z"/>
<glyph glyph-name="D" unicode="D" horiz-adv-x="1589" d="M157 0v1432h591q182 0 326.5 -45t245 -133.5t154 -221t53.5 -307.5q0 -190 -55.5 -327t-159 -225.5t-250.5 -130.5t-330 -42h-575zM759 251q111 0 192 33t134.5 96t79.5 153t26 204q0 222 -107 333t-314 111h-294v-930h283z"/>
<glyph glyph-name="E" unicode="E" horiz-adv-x="1341" d="M157 0v1432h1100v-257h-777v-330h639v-234h-639v-354h794v-257h-1117z"/>
<glyph glyph-name="F" unicode="F" horiz-adv-x="1286" d="M157 0v1432h1081v-257h-758v-399h589v-252h-589v-524h-323z"/>
<glyph glyph-name="G" unicode="G" horiz-adv-x="1574" d="M1156 894q-23 152 -115 231t-240 79q-95 0 -170.5 -32.5t-128 -94.5t-80.5 -152.5t-28 -205.5q0 -124 28.5 -217t81.5 -155t130 -93t175 -31q78 0 143.5 23t114.5 64.5t79 99.5t35 128h-358v212h668q0 -100 -0.5 -201.5t2 -198.5t8.5 -186t20 -164h-226q-6 40 -9.5 83.5 t-5.5 86t-3 83.5t-2 76q-12 -62 -52 -127t-105.5 -118.5t-155.5 -88t-202 -34.5q-165 0 -294.5 55.5t-219 154.5t-137 235.5t-47.5 298.5q0 159 46.5 299t139 243.5t232 163.5t325.5 60q132 0 241.5 -34.5t193.5 -100.5t140 -161.5t81 -218.5l-293 -61z"/>
<glyph glyph-name="H" unicode="H" horiz-adv-x="1624" d="M1144 0v592h-664v-592h-323v1432h323v-574h664v574h322v-1432h-322z"/>
<glyph glyph-name="I" unicode="I" horiz-adv-x="951" d="M637 1180v-928h231v-252h-781v252h227v928h-227v252h781v-252h-231z"/>
<glyph glyph-name="J" unicode="J" horiz-adv-x="1232" d="M561 235q65 0 108.5 23.5t69.5 61.5t37 86.5t11 98.5v927h322v-912q0 -124 -30 -226.5t-94 -176.5t-164 -115t-239 -41q-144 0 -245.5 39.5t-165 104.5t-92.5 148.5t-29 172.5q0 42 4.5 82t10.5 73.5t12.5 59t11.5 39.5l283 -64q-11 -25 -19.5 -65.5t-8.5 -91.5 q0 -48 14 -89t42 -71t68 -47t93 -17z"/>
<glyph glyph-name="K" unicode="K" horiz-adv-x="1529" d="M1143 0l-432 674l-239 -236l7 -438h-323v1432h323l-7 -646l621 646h377l-532 -548l569 -884h-364z"/>
<glyph glyph-name="L" unicode="L" horiz-adv-x="1277" d="M157 -1v1432h323v-1163h753v-269h-1076z"/>
<glyph glyph-name="M" unicode="M" horiz-adv-x="1945" d="M1484 0v904l7 178l-61 -175l-342 -907h-253l-342 905l-61 180l6 -179v-906h-281v1432h413l344 -882l58 -210l59 210l343 882h413v-1432h-303z"/>
<glyph glyph-name="N" unicode="N" horiz-adv-x="1626" d="M1144 0l-636 892l-78 123l13 -145v-870h-286v1432h330l631 -893l78 -123l-14 145v871h287v-1432h-325z"/>
<glyph glyph-name="O" unicode="O" horiz-adv-x="1620" d="M810 -39q-176 0 -315 51.5t-235 149t-147 237t-51 316.5t51 317.5t147 238t235.5 149t316.5 51.5q175 0 313.5 -52t234.5 -149.5t147 -237.5t51 -317t-50.5 -316.5t-146.5 -237t-235 -149t-316 -51.5zM811 232q95 0 171 30.5t129 91.5t81.5 151t28.5 210t-28 211 t-81 151.5t-129 91.5t-172 31t-172 -31t-129.5 -91.5t-82 -151.5t-28.5 -211t28.5 -210t82 -151t130 -91.5t171.5 -30.5z"/>
<glyph glyph-name="P" unicode="P" horiz-adv-x="1421" d="M157 0v1432h619q126 0 235.5 -23t189.5 -76.5t126 -141.5t46 -218q0 -124 -38.5 -216.5t-110 -153.5t-172.5 -91.5t-226 -30.5h-354v-481h-315zM792 725q119 0 183 61.5t64 183.5q0 62 -18 103.5t-51 67t-79 36.5t-101 11h-318v-463h320z"/>
<glyph glyph-name="Q" unicode="Q" horiz-adv-x="1620" d="M1558 715q0 -157 -40 -284t-116 -221.5t-187 -153.5t-252 -80q32 -62 81 -102t123 -40q33 0 64 7.5t59.5 19t54.5 25.5l49 27l106 -187q-22 -19 -60 -42t-85.5 -43t-101 -33.5t-105.5 -13.5q-82 0 -151.5 22.5t-129.5 69t-110 118.5t-93 171q-143 20 -254.5 79 t-189 153.5t-118 222t-40.5 285.5q0 177 51 317.5t147 238t235.5 149t316.5 51.5q175 0 313.5 -52t234.5 -149.5t147 -237.5t51 -317zM811 232q95 0 171 30.5t129 91.5t81.5 151t28.5 210t-28 211t-81 151.5t-129 91.5t-172 31t-172 -31t-129.5 -91.5t-82 -151.5t-28.5 -211 t28.5 -210t82 -151t130 -91.5t171.5 -30.5z"/>
<glyph glyph-name="R" unicode="R" horiz-adv-x="1475" d="M1114 0q-8 10 -16 22.5t-16.5 30.5t-17 43.5t-17.5 63.5l-41 157q-31 117 -100 174.5t-187 57.5h-247v-549h-315v1432h701q115 0 211 -24.5t166 -76.5t109 -133t39 -195q0 -77 -23 -140.5t-63.5 -111.5t-96.5 -78.5t-123 -40.5q36 -5 72.5 -22.5t69 -49.5t59 -80 t41.5 -114l42 -178q19 -78 42.5 -122.5t40.5 -65.5h-330zM801 760q57 0 103 12t78 39t49 70t17 104q0 60 -17 98.5t-48.5 61t-76 31.5t-99.5 9h-335v-425h329z"/>
<glyph glyph-name="S" unicode="S" horiz-adv-x="1331" d="M294 479q16 -67 51 -116.5t85.5 -82t114 -48.5t138.5 -16t126 15.5t82.5 40.5t45.5 56.5t14 63.5q0 41 -16.5 69.5t-48 50.5t-78 39.5t-107.5 37.5l-217 59q-186 55 -284.5 156t-98.5 263q0 99 39 174.5t112 126.5t175.5 77t230.5 26q235 0 380.5 -102t207.5 -295 l-248 -85l-8 2q-17 73 -54 117.5t-82.5 69t-95 33t-91.5 8.5q-69 0 -118.5 -13t-80.5 -35t-45.5 -49.5t-14.5 -55.5q0 -41 17 -69t44.5 -48t64 -34t75.5 -27l238 -62q102 -32 181 -68.5t132.5 -85.5t81 -114.5t27.5 -155.5q0 -96 -39.5 -177t-114.5 -139.5t-182.5 -91.5 t-243.5 -33q-117 0 -224 27t-192 80t-144 131.5t-80 181.5l238 100z"/>
<glyph glyph-name="T" unicode="T" horiz-adv-x="1322" d="M500 0v1164h-482v268h1286v-268h-482v-1164h-322z"/>
<glyph glyph-name="U" unicode="U" horiz-adv-x="1550" d="M1119 1432h310v-858q0 -146 -40.5 -260t-122.5 -192.5t-204.5 -119.5t-286.5 -41t-286.5 41t-204.5 119.5t-122.5 192.5t-40.5 261v857h333v-868q0 -171 82 -259.5t250 -88.5q165 0 249 88.5t84 259.5v868z"/>
<glyph glyph-name="V" unicode="V" horiz-adv-x="1493" d="M551 0l-542 1432h364l384 -1147l385 1147h342l-543 -1432h-390z"/>
<glyph glyph-name="W" unicode="W" horiz-adv-x="2139" d="M1355 0l-253 912l-32 144l-33 -143l-253 -913h-358l-396 1432h335l238 -958l21 -126l294 1084h320l299 -1083l22 124l233 959h317l-396 -1432h-358z"/>
<glyph glyph-name="X" unicode="X" horiz-adv-x="1512" d="M1112 0l-362 569l-382 -569h-354l533 743l-501 689h385l322 -515l351 515h353l-497 -688l538 -744h-386z"/>
<glyph glyph-name="Y" unicode="Y" horiz-adv-x="1412" d="M545 0v523l-545 909h360l352 -669l354 669h346l-544 -909v-523h-323z"/>
<glyph glyph-name="Z" unicode="Z" horiz-adv-x="1361" d="M72 0v222l796 953h-774v257h1180v-223l-795 -952h809v-257h-1216z"/>
<glyph glyph-name="AE" unicode="Æ" horiz-adv-x="2194" d="M1080 319h-619l-112 -319h-329l559 1432h1381v-250h-886l131 -335h758v-234h-667l141 -362h704v-251h-948zM542 547h457l-229 648z"/>
<glyph glyph-name="Eng" unicode="Ŋ" horiz-adv-x="1630" d="M1471 114q0 -119 -26 -212.5t-83.5 -158.5t-149.5 -99.5t-224 -34.5q-14 0 -34 1t-41 3.5t-40.5 6.5t-31.5 9l38 232q16 -4 41 -5t40 -1q46 0 78 12t53.5 33t33.5 50t18 63l-621 873l-78 123l12 -145v-864h-297v1432h319l631 -887l77 -123l-13 145v865h298v-1318v0z"/>
<glyph glyph-name="OE" unicode="Œ" horiz-adv-x="2301" d="M1113 0v8q-66 -23 -141 -35t-163 -12q-176 0 -314.5 51.5t-234.5 149t-147 237t-51 316.5t51 317.5t147 238t235.5 149t316.5 51.5q85 0 160 -12.5t141 -36.5v10h1107v-262h-785v-330h673v-212h-673v-366h803v-262h-1125zM810 232q100 0 177.5 35t125.5 114v650 q-47 92 -126.5 130.5t-175.5 38.5q-91 0 -167 -31t-130.5 -91.5t-84.5 -151.5t-30 -211t30.5 -210t85 -151t130 -91.5t165.5 -30.5z"/>
<glyph glyph-name="Oslash" unicode="Ø" horiz-adv-x="1620" d="M395 -104l52 136q-186 85 -285.5 258.5t-99.5 424.5q0 177 51 317.5t147 238t235.5 149t316.5 51.5q91 0 174 -15l54 142l198 -69l-52 -136q180 -86 276 -258.5t96 -419.5q0 -177 -50.5 -316.5t-146.5 -237t-235 -149t-316 -51.5q-85 0 -161 12l-55 -146zM399 715 q0 -143 39.5 -243.5t114.5 -159.5l334 882q-38 6 -76 6q-96 0 -172 -31t-129.5 -91.5t-82 -151.5t-28.5 -211zM811 232q95 0 171 30.5t129 91.5t81.5 151t28.5 210q0 138 -36.5 236.5t-105.5 158.5l-330 -875q30 -3 62 -3z"/>
<glyph glyph-name="uni021A" unicode="Ț" horiz-adv-x="1322" d="M500 0v1164h-482v268h1286v-268h-482v-1164h-322zM500 -556q39 13 63.5 31t38.5 40.5t18.5 50t3.5 60.5h-115v298h311v-285q0 -53 -15 -105t-49.5 -95.5t-90.5 -75t-138 -42.5z"/>
<glyph glyph-name="Thorn" unicode="Þ" horiz-adv-x="1423" d="M159 0v1432h323v-233h293q118 0 226.5 -20.5t191.5 -72.5t132.5 -142.5t49.5 -229.5q0 -129 -41.5 -219t-115 -146.5t-173.5 -81.5t-217 -25h-353v-262h-316zM795 506q60 0 106.5 12t77.5 39.5t47 72t16 108.5q0 69 -21.5 112t-56.5 66t-80 31t-92 8h-317v-449h320z"/>
<glyph glyph-name="a" unicode="a" horiz-adv-x="1330" d="M1291 14q-9 -5 -27.5 -13t-43.5 -15.5t-54.5 -12.5t-59.5 -5q-51 0 -91 11t-67.5 35t-42 63.5t-14.5 96.5q0 25 3.5 59t9.5 79q-20 -94 -64.5 -159.5t-106.5 -106.5t-137.5 -59.5t-156.5 -18.5q-89 0 -158.5 21t-117 60t-72.5 93.5t-25 122.5q0 67 28 116.5t79 85t122 58 t157.5 35t185.5 17t205 4.5v70q0 45 -12.5 82.5t-40 64.5t-71.5 42t-107 15q-43 0 -83 -10t-73 -31.5t-56 -54.5t-32 -79l-239 45q18 75 58 136.5t103.5 105.5t151 68t201.5 24q258 0 382 -113t124 -347v-359q0 -47 14.5 -69.5t49.5 -22.5q24 0 45.5 5.5t32.5 10.5v-150z M844 447q-101 -3 -186 -10.5t-147.5 -25.5t-97.5 -50t-35 -84q0 -26 9 -48.5t28.5 -39.5t51.5 -27t77 -10q61 0 116 24.5t95.5 64t64.5 91t24 105.5v10z"/>
<glyph glyph-name="b" unicode="b" horiz-adv-x="1371" d="M154 0v1446h307v-583q19 39 54 74.5t83.5 62.5t110 43t135.5 16q109 0 197 -37.5t150 -108t96 -171.5t34 -228q0 -123 -33.5 -223.5t-96 -172t-150.5 -111t-196 -39.5q-74 0 -138.5 17t-118 48t-94 73t-64.5 93l-44 -199h-232zM460 512q0 -78 19.5 -138.5t55.5 -101.5 t86.5 -62t112.5 -21q61 0 111.5 20.5t86 61.5t55 101.5t19.5 141.5q0 85 -20 146t-56 100.5t-85.5 58.5t-109.5 19q-56 0 -106 -18.5t-87.5 -58.5t-59.5 -101.5t-22 -147.5z"/>
<glyph glyph-name="d" unicode="d" horiz-adv-x="1371" d="M985 0l-44 199q-24 -51 -64.5 -93t-94 -73t-118.5 -48t-138 -17q-108 0 -196 39.5t-150 111t-96 172t-34 223.5q0 127 34 228t96 171.5t150.5 108t197.5 37.5q73 0 134.5 -16t110 -43t83.5 -62.5t55 -74.5v583h306v-1446h-232zM911 512q0 86 -22 147.5t-59.5 101.5 t-87.5 58.5t-105 18.5q-60 0 -110 -19t-85.5 -58.5t-55.5 -100.5t-20 -146q0 -81 19.5 -141.5t55 -101.5t85.5 -61.5t111 -20.5t111.5 21t86.5 62t56 101.5t20 138.5z"/>
<glyph glyph-name="e" unicode="e" horiz-adv-x="1217" d="M933 351l210 -84q-79 -143 -201 -221t-297 -78q-147 0 -258.5 39.5t-186 111.5t-112 172.5t-37.5 223.5t36.5 223.5t108.5 171.5t179.5 110t250.5 39q129 0 229.5 -38t170 -108.5t106 -170t36.5 -221.5v-65h-830q3 -67 27 -120t64.5 -89.5t96 -56t122.5 -19.5 q94 0 166 43t110 137h9zM878 615q-2 57 -19 104.5t-49.5 81t-80 52t-110.5 18.5q-61 0 -110.5 -19t-85.5 -53t-57.5 -81t-25.5 -103h538z"/>
<glyph glyph-name="f" unicode="f" horiz-adv-x="823" d="M192 0v864h-172v162h145l-11.5 67t-6.5 74q0 72 28 132.5t79 104t122.5 68t158.5 24.5q108 0 178 -29t110.5 -72t57 -93.5t17.5 -92.5l-211 -46q-3 19 -9.5 40t-21.5 38.5t-39 28.5t-61 11q-60 0 -94.5 -34.5t-34.5 -96.5q0 -29 6 -60.5t14 -63.5h382v-162h-335v-864 h-302z"/>
<glyph glyph-name="g" unicode="g" horiz-adv-x="1267" d="M673 372q-29 0 -65 -1t-73.5 -4t-73.5 -8t-64.5 -13.5t-45.5 -20.5t-17 -28q0 -32 34.5 -45.5t97.5 -17.5l307 -6q120 -5 205.5 -23.5t139.5 -53t79 -84.5t25 -117q0 -88 -46.5 -152t-127 -105.5t-188.5 -61.5t-230 -20q-137 0 -236 18.5t-163 50.5t-94.5 75t-30.5 92 q0 33 13 64.5t37 58t57.5 47t74.5 33.5q-61 11 -101.5 29.5t-65 43t-34.5 54t-10 62.5q0 51 26 86.5t67.5 58.5t93 35.5t101.5 16.5q-91 48 -133.5 122.5t-42.5 160.5q0 76 30 139t89.5 107.5t149 69t208.5 24.5q48 0 91.5 -3.5t82.5 -10.5q23 -2 43 6.5t34.5 24.5t23 37 t8.5 45q0 16 -3.5 34.5t-8 36t-9.5 32t-9 22.5l229 -5q6 -10 17 -40.5t11 -68.5q0 -32 -13 -61t-37 -51.5t-57.5 -38.5t-73.5 -22q87 -44 129.5 -114t42.5 -163q0 -81 -33.5 -145t-97 -109t-155 -69t-206.5 -24h-2zM448 35l5 -2q-39 -20 -66 -54t-27 -76q0 -26 15 -46 t48 -34t86 -21.5t129 -7.5q75 0 126 9.5t82.5 26t45 39.5t13.5 51q0 24 -9.5 43.5t-32.5 33t-62 21.5t-97 10zM675 548q49 0 86 13t62 35.5t37.5 53.5t12.5 67t-12.5 66t-37.5 52.5t-62 35t-86 12.5q-97 0 -145 -47t-48 -119q0 -36 11.5 -67t35.5 -53.5t60.5 -35.5t85.5 -13 z"/>
<glyph glyph-name="h" unicode="h" horiz-adv-x="1396" d="M953 0v536q0 58 -8.5 111t-32.5 94t-66.5 65.5t-109.5 24.5q-57 0 -107.5 -26.5t-88.5 -73t-60 -110t-22 -137.5v-484h-306v1446h306v-623q52 112 155 174t243 62q117 0 194.5 -40t124 -107.5t66 -156t19.5 -185.5v-570h-307z"/>
<glyph glyph-name="i" unicode="i" horiz-adv-x="599" d="M146 0v1026h307v-1026h-307zM142 1162v270h314v-270h-314z"/>
<glyph glyph-name="j" unicode="j" horiz-adv-x="599" d="M453 1026v-1028q0 -75 -20 -144t-64.5 -121.5t-114.5 -83.5t-169 -31q-57 0 -105.5 14t-87 34.5t-66 44t-42.5 42.5l89 140q13 -10 30 -21t36.5 -20t42 -14.5t47.5 -5.5t47.5 7.5t39 23.5t26.5 41t10 59q0 20 -1 40.5t-2 53t-2 82.5t-1 129v758h307zM142 1162v270h314 v-270h-314z"/>
<glyph glyph-name="k" unicode="k" horiz-adv-x="1307" d="M960 0l-267 500l-235 -215v-285h-306v1446h306v-872l444 452h371l-360 -354l387 -672h-340z"/>
<glyph glyph-name="l" unicode="l" horiz-adv-x="610" d="M152 0v1446h306v-1446h-306z"/>
<glyph glyph-name="m" unicode="m" horiz-adv-x="2031" d="M1588 0l-1 572q0 72 -10.5 121t-30.5 79.5t-50.5 44t-69.5 13.5q-54 0 -100 -28t-80.5 -75.5t-54 -109.5t-19.5 -129v-488h-306v566q0 77 -12 128t-33.5 81t-52 42.5t-66.5 12.5q-50 0 -95 -27t-79.5 -73.5t-55 -109t-20.5 -133.5v-487h-306v1026h213l51 -254 q17 43 50 93.5t84 93.5t121.5 71.5t163.5 28.5q66 0 120.5 -22.5t94 -62t63 -95t28.5 -121.5q18 61 58.5 116t93.5 96t115.5 65t124.5 24q81 0 148.5 -25t116 -80t75.5 -142.5t27 -212.5v-599h-306z"/>
<glyph glyph-name="n" unicode="n" horiz-adv-x="1390" d="M947 0v531q0 62 -9 116.5t-33.5 95.5t-67 64.5t-109.5 23.5q-52 0 -101.5 -24t-88.5 -70t-62.5 -111.5t-23.5 -147.5v-478h-306v1026h213l51 -256q28 72 74 126t103 90t123 54.5t135 18.5q117 0 195.5 -39.5t126 -107t67 -157.5t19.5 -191v-564h-306z"/>
<glyph glyph-name="o" unicode="o" horiz-adv-x="1281" d="M641 -32q-128 0 -236.5 36.5t-187.5 106t-123 171t-44 231.5t44.5 231.5t123.5 171.5t187 106.5t236 36.5q127 0 235.5 -36.5t187 -106.5t123 -171t44.5 -230q0 -131 -44 -232.5t-122.5 -171.5t-187 -106.5t-236.5 -36.5zM641 189q61 0 111.5 19.5t87 59.5t56.5 101 t20 145q0 83 -20 144t-56.5 101t-87 59.5t-111.5 19.5q-62 0 -112.5 -19.5t-86.5 -59.5t-56 -101.5t-20 -144.5t20 -144t56 -101t86.5 -59.5t112.5 -19.5z"/>
<glyph glyph-name="p" unicode="p" horiz-adv-x="1371" d="M360 1026l42 -210q28 57 71.5 102t100 76t123 47.5t140.5 16.5q109 0 197 -39.5t150 -111t95.5 -172t33.5 -222.5q0 -128 -34 -229t-96 -171.5t-150.5 -108t-196.5 -37.5q-74 0 -135.5 16t-110 43t-83.5 62.5t-54 74.5v-524h-307v1387h214zM452 514q0 -86 22 -147.5 t59.5 -101.5t87.5 -58.5t106 -18.5q60 0 109.5 19t85.5 58.5t56 100.5t20 146q0 81 -19.5 141.5t-55 101.5t-85.5 61.5t-112 20.5t-112.5 -21t-86.5 -62t-55.5 -101.5t-19.5 -138.5z"/>
<glyph glyph-name="q" unicode="q" horiz-adv-x="1363" d="M1217 1026v-1387h-306v524q-20 -39 -55 -74.5t-83.5 -62.5t-110 -43t-134.5 -16q-109 0 -197.5 37.5t-150.5 108t-96 171.5t-34 229q0 122 34 222.5t96 172t150 111t196 39.5q73 0 140.5 -17.5t124.5 -49t100.5 -76t69.5 -97.5l43 208h213zM911 514q0 78 -20 138.5 t-56 101.5t-86.5 62t-111.5 21t-111 -20.5t-85.5 -61.5t-55 -101.5t-19.5 -141.5q0 -85 20 -146t55.5 -100.5t85.5 -58.5t110 -19q55 0 105 18.5t87.5 58.5t59.5 101.5t22 147.5z"/>
<glyph glyph-name="r" unicode="r" horiz-adv-x="1177" d="M146 0v1026h218l60 -247q16 58 51 109t83.5 89t107 60t122.5 22q90 0 154 -23t106.5 -62.5t65.5 -92t32.5 -111t6.5 -121t-13 -120.5l-240 -24q3 69 -0.5 129t-23 103.5t-59 68.5t-108.5 25q-66 0 -114.5 -34t-80 -87.5t-47 -118t-15.5 -125.5v-466h-306z"/>
<glyph glyph-name="s" unicode="s" horiz-adv-x="1167" d="M516 435q-42 8 -90 18.5t-95.5 25.5t-91 37t-76.5 54.5t-53 77.5t-20 106q0 73 31.5 130t93 96t151.5 59t207 20q184 0 305.5 -70.5t182.5 -225.5l-241 -58q-15 41 -35.5 71t-51 50t-71.5 29.5t-96 9.5q-96 0 -141 -31.5t-45 -80.5q0 -30 16 -50.5t48.5 -35.5t82 -26.5 t115.5 -24.5q116 -22 201 -49.5t140 -64.5t81.5 -86t26.5 -115q0 -79 -34.5 -141t-101 -104.5t-164.5 -65t-225 -22.5q-101 0 -185.5 19t-149.5 57.5t-108.5 98t-62.5 140.5l237 64q11 -41 32.5 -74.5t55 -57t81 -36.5t109.5 -13q117 0 168.5 34t51.5 90q0 24 -14 43.5 t-46.5 36.5t-86 32.5t-132.5 32.5z"/>
<glyph glyph-name="t" unicode="t" horiz-adv-x="1021" d="M996 343q-7 -64 -30 -130.5t-70.5 -121t-121.5 -89t-183 -34.5q-104 0 -179.5 28t-124 82t-72 134t-23.5 184v468h-188v162h125q68 0 94 34t26 100v187h247v-321h345v-162h-345v-485q0 -54 10 -90t28.5 -57t44.5 -30t59 -9q36 0 63 16t45.5 44.5t29.5 66.5t15 82z"/>
<glyph glyph-name="u" unicode="u" horiz-adv-x="1390" d="M448 1026v-543q0 -55 8.5 -107t32 -92.5t65.5 -65t109 -24.5q52 0 102.5 24t90 70t63.5 113.5t24 155.5v469h305v-1026h-212l-51 255q-27 -69 -73.5 -123t-104.5 -90.5t-124.5 -55.5t-135.5 -19q-117 0 -195.5 39.5t-125 106.5t-66 155.5t-19.5 186.5v571h307z"/>
<glyph glyph-name="v" unicode="v" horiz-adv-x="1186" d="M418 0l-430 1026h335l246 -669l41 -142l42 142l246 669h299l-429 -1026h-350z"/>
<glyph glyph-name="w" unicode="w" horiz-adv-x="1716" d="M1057 0l-164 548l-38 142l-36 -143l-160 -547h-327l-320 1026h320l168 -678l19 -93l24 94l177 614h294l182 -614l23 -94l20 92l168 679h297l-320 -1026h-327z"/>
<glyph glyph-name="x" unicode="x" horiz-adv-x="1199" d="M849 0l-260 359l-260 -359h-336l415 529l-388 497h352l230 -326l230 326h337l-382 -486l417 -540h-355z"/>
<glyph glyph-name="y" unicode="y" horiz-adv-x="1204" d="M477 7l-479 1019h333l284 -752l268 752h318l-448 -1050q-43 -98 -86 -165.5t-90.5 -109.5t-102 -61t-118.5 -19q-47 0 -90 11t-80.5 27.5t-67.5 37t-50 38.5l70 148q30 -16 71 -30.5t91 -14.5q113 0 163 132z"/>
<glyph glyph-name="z" unicode="z" horiz-adv-x="1121" d="M51 0v188l600 617h-581v221h962v-185l-599 -619h612v-222h-994z"/>
<glyph glyph-name="ae" unicode="æ" horiz-adv-x="2027" d="M1956 291q-30 -82 -78.5 -142.5t-112.5 -100.5t-142.5 -60t-167.5 -20q-203 0 -336 72t-199 200q-36 -74 -88.5 -126t-115.5 -84.5t-134 -47t-143 -14.5q-89 0 -158.5 21t-117 60t-72.5 93.5t-25 122.5q0 67 28 116.5t79 85t122 58t157.5 35t185.5 17t205 4.5v70 q0 45 -12.5 82.5t-40 64.5t-71.5 42t-107 15q-43 0 -83 -10t-73 -31t-56 -54t-32 -79l-239 47q18 75 58 136t103.5 104.5t151 67t201.5 23.5q268 0 392 -123q72 60 171.5 91.5t229.5 31.5q128 0 228.5 -38t170 -107.5t106 -168.5t36.5 -221v-68h-830q3 -67 27 -120 t64.5 -89.5t96 -56t123.5 -19.5q100 0 166 44.5t104 139.5zM1688 615q-2 57 -19.5 104.5t-50 81t-80 52t-109.5 18.5q-61 0 -110.5 -19t-85.5 -53t-57.5 -81t-25.5 -103h538zM844 446q-101 -3 -186 -10t-147.5 -25t-97.5 -50.5t-35 -84.5q0 -26 9 -48.5t28.5 -39.5t51.5 -27 t77 -10q61 0 116 24.5t95.5 64.5t64.5 91t24 105v10z"/>
<glyph glyph-name="eng" unicode="ŋ" horiz-adv-x="1390" d="M947 549q0 55 -9.5 106t-34 90t-67 62.5t-109.5 23.5q-52 0 -101.5 -25.5t-88 -73t-62 -114.5t-23.5 -149v-469h-306v1026h218l60 -247q27 69 71 121.5t99.5 88t120.5 53t134 17.5q117 0 194.5 -37.5t124 -102.5t66 -152t19.5 -185v-564q0 -82 -14.5 -154t-55 -125.5 t-112 -84.5t-184.5 -31q-24 0 -52 2t-56 6.5t-55 10t-48 13.5l43 206q57 -12 107 -12q63 0 92 36t29 118v546z"/>
<glyph glyph-name="oe" unicode="œ" horiz-adv-x="2118" d="M1830 351l210 -84q-79 -143 -201 -221t-297 -78q-147 0 -258.5 39.5t-186 111.5t-112 172.5t-37.5 223.5t36.5 223.5t108.5 171.5t179.5 110t250.5 39q129 0 229.5 -38t170 -108.5t106 -170t36.5 -221.5v-65h-830q3 -67 27 -120t64.5 -89.5t96 -56t122.5 -19.5 q94 0 166 43t110 137h9zM1775 615q-2 57 -19 104.5t-49.5 81t-80 52t-110.5 18.5q-61 0 -110.5 -19t-85.5 -53t-57.5 -81t-25.5 -103h538zM658 -32q-128 0 -236.5 36.5t-187.5 106t-123 171t-44 231.5t44.5 231.5t123.5 171.5t187 106.5t236 36.5q127 0 235.5 -36.5 t187 -106.5t123 -171t44.5 -230q0 -131 -44 -232.5t-122.5 -171.5t-187 -106.5t-236.5 -36.5zM658 189q61 0 111.5 19.5t87 59.5t56.5 101t20 145q0 83 -20 144t-56.5 101t-87 59.5t-111.5 19.5q-62 0 -112.5 -19.5t-86.5 -59.5t-56 -101.5t-20 -144.5t20 -144t56 -101 t86.5 -59.5t112.5 -19.5z"/>
<glyph glyph-name="ordfeminine" unicode="ª" horiz-adv-x="811" d="M776 824q-11 -3 -30.5 -7t-62.5 -4q-51 0 -82.5 11t-49.5 30.5t-25 46t-8 56.5q-15 -30 -38.5 -56.5t-55.5 -46t-73 -30.5t-90 -11t-89.5 12t-70 34t-45.5 54t-16 73q0 44 16 80.5t50 62.5t86.5 40.5t125.5 14.5q55 0 106 -5.5t82 -13.5v55q0 62 -27 93.5t-100 31.5 q-21 0 -42.5 -4t-39 -13t-28.5 -22.5t-11 -32.5q0 -10 0.5 -18t2.5 -19l-176 -20q-4 13 -6 29t-2 30q0 41 20.5 76.5t60 61.5t97 40.5t131.5 14.5q94 0 156 -16.5t99 -51.5t52 -88.5t15 -126.5v-198q0 -29 8.5 -41.5t26.5 -12.5q8 0 16.5 0.5t16.5 3.5v-113zM506 1074 q-14 5 -43 10t-89 5q-72 0 -100 -23t-28 -58q0 -32 26.5 -50t77.5 -18q35 0 63.5 11.5t49 30.5t32 41.5t11.5 45.5v5z"/>
<glyph glyph-name="ordmasculine" unicode="º" horiz-adv-x="799" d="M400 815q-78 0 -144.5 21.5t-115.5 63t-76.5 102.5t-27.5 141q0 79 28 140.5t76.5 103t115 63t144.5 21.5q77 0 143.5 -21.5t115 -63t76.5 -102.5t28 -140q0 -80 -27.5 -141.5t-76.5 -103t-115 -63t-144 -21.5zM400 954q75 0 115 46.5t40 143.5t-40 143t-115 46 t-115 -46.5t-40 -143.5t40 -143t115 -46z"/>
<glyph glyph-name="oslash" unicode="ø" horiz-adv-x="1281" d="M337 -91l40 105q-75 29 -135 75.5t-103 109.5t-66 142t-23 172q0 130 44.5 231.5t123.5 171.5t187 106.5t236 36.5q64 0 128 -11l54 144l150 -53l-51 -134q70 -30 127.5 -77t97.5 -109t62 -138t22 -166q0 -131 -44 -232.5t-122.5 -171.5t-187 -106.5t-236.5 -36.5 q-28 0 -55 2t-53 5l-44 -118zM366 513q0 -96 25.5 -162t73.5 -105l223 589q-23 3 -47 3q-62 0 -112.5 -19.5t-86.5 -59.5t-56 -101.5t-20 -144.5zM641 189q61 0 111.5 19.5t87 59.5t56.5 101t20 145q0 88 -22 150t-62 102l-218 -576q7 -1 13.5 -1h13.5z"/>
<glyph glyph-name="uni021B" unicode="ț" horiz-adv-x="998" d="M996 343q-7 -64 -30 -130.5t-70.5 -121t-121.5 -89t-183 -34.5q-104 0 -179.5 28t-124 82t-72 134t-23.5 184v468h-188v162h125q68 0 94 34t26 100v187h247v-321h345v-162h-345v-485q0 -54 10 -90t28.5 -57t44.5 -30t59 -9q36 0 63 16t45.5 44.5t29.5 66.5t15 82z M427 -592q39 13 63.5 31t38.5 40.5t18.5 50t3.5 60.5h-115v298h311v-285q0 -53 -15 -105t-49.5 -95.5t-90.5 -75t-138 -42.5z"/>
<glyph glyph-name="thorn" unicode="þ" horiz-adv-x="1371" d="M452 1446v-563q62 83 161 129t224 46q109 0 197 -39.5t150 -111t95.5 -172t33.5 -222.5q0 -128 -34 -229t-96 -171.5t-150.5 -108t-196.5 -37.5q-74 0 -135.5 16t-110 43t-83.5 62.5t-54 74.5v-524h-307v1807h306zM452 514q0 -86 22 -147.5t59.5 -101.5t87.5 -58.5 t106 -18.5q60 0 109.5 19t85.5 58.5t56 100.5t20 146q0 81 -19.5 141.5t-55 101.5t-85.5 61.5t-112 20.5q-60 0 -109.5 -20t-85.5 -59t-56.5 -96.5t-22.5 -132.5v-15z"/>
<glyph glyph-name="germandbls" unicode="ß" horiz-adv-x="1358" d="M575 207q76 -16 154 -16q137 0 206.5 49.5t69.5 132.5q0 31 -10.5 57t-28 48t-40 41t-46.5 37q-64 46 -98.5 95.5t-34.5 115.5q0 54 21.5 100t52.5 88q32 41 49 74t17 76q0 33 -12 60t-37.5 46.5t-66 30.5t-97.5 11q-131 0 -188 -67t-57 -198v-988h-304v983 q0 107 32.5 196t100.5 152.5t173.5 99t251.5 35.5q126 0 222 -24t161.5 -67.5t99 -103.5t33.5 -132q0 -36 -8 -66.5t-20.5 -57.5t-29 -52t-34.5 -49q-23 -32 -36.5 -62t-13.5 -56q0 -23 7 -42t20 -36t32.5 -34.5t45.5 -37.5q33 -26 62 -55t50 -62.5t33 -72t12 -84.5 q0 -90 -34.5 -163.5t-102 -125.5t-167.5 -80.5t-232 -28.5q-54 0 -109 5.5t-115 18.5z"/>
<glyph glyph-name="ampersand" unicode="&" d="M477 261l936 945q186 -239 186 -476q0 -135 -42.5 -256t-124.5 -213h-955zM337 238q-88 111 -133 233t-45 259q0 58 10 119.5t31 120.5t52.5 112t73.5 95h948zM400 180h960q-117 -93 -236.5 -137t-246.5 -44q-139 0 -258 48t-219 133zM1360 1263h-969q116 87 236.5 134.5 t249.5 47.5q74 0 137 -15t121 -40.5t113 -58.5z"/>
<glyph glyph-name="grave" unicode="`" horiz-adv-x="1251" d="M540 1591l-285 295h323l189 -295h-227z"/>
<glyph glyph-name="circumflex" unicode="ˆ" horiz-adv-x="1251" d="M728 1885l244 -296h-247l-144 179l-142 -179h-249l244 296h294z"/>
<glyph glyph-name="tilde" unicode="˜" horiz-adv-x="1251" d="M175 1626q10 131 73.5 196t176.5 65q28 0 53 -5.5t48.5 -15t48 -22.5l52.5 -28q51 -26 78.5 -35t49.5 -9q28 0 46.5 11.5t30 28.5t16 37t6.5 36l177 -34q-9 -129 -72 -195t-178 -66q-32 0 -58.5 6.5t-50 16.5t-46 23t-47.5 25l-25 13.5t-30.5 14.5t-34.5 12t-36 5 q-30 0 -48.5 -12t-30 -29t-16 -37t-5.5 -35z"/>
<glyph glyph-name="caron" unicode="ˇ" horiz-adv-x="1251" d="M434 1589l-244 296h249l142 -179l144 179h247l-244 -296h-294z"/>
<glyph glyph-name="dieresis" unicode="¨" horiz-adv-x="1251" d="M227 1592v256h264v-256h-264zM690 1592v256h263v-256h-263z"/>
<glyph glyph-name="macron" unicode="¯" horiz-adv-x="1251" d="M235 1592v198h709v-198h-709z"/>
<glyph glyph-name="breve" unicode="˘" horiz-adv-x="1251" d="M918 1878q-4 -64 -25.5 -117t-63.5 -90.5t-107 -58t-157 -20.5q-91 0 -155.5 21t-106 58.5t-62.5 90t-25 115.5l193 39q3 -74 40.5 -116t115.5 -42q79 0 118 42t42 116z"/>
<glyph glyph-name="ring" unicode="˚" horiz-adv-x="1251" d="M522 1591q-65 0 -116.5 16.5t-88.5 46.5t-56.5 72t-19.5 93q0 52 19.5 94t56.5 72t88.5 46t116.5 16q64 0 116 -16t88.5 -46t56 -72t19.5 -94q0 -51 -19.5 -93t-56 -72t-88.5 -46.5t-116 -16.5zM522 1727q53 0 81.5 24.5t28.5 67.5q0 42 -28.5 67.5t-81.5 25.5 q-54 0 -82 -25.5t-28 -67.5q0 -43 28 -67.5t82 -24.5z"/>
<glyph glyph-name="hungarumlaut" unicode="˝" horiz-adv-x="1251" d="M601 1593l204 291h262l-258 -291h-208zM189 1593l201 291h251l-234 -291h-218z"/>
<glyph glyph-name="dotaccent" unicode="˙" horiz-adv-x="1251" d="M326 1591v273h269v-273h-269z"/>
<glyph glyph-name="cedilla" unicode="¸" horiz-adv-x="1250" d="M293 -278q12 -6 31.5 -12t41.5 -11.5t44.5 -8.5t42.5 -3q51 0 78.5 15.5t27.5 47.5q0 31 -22.5 47.5t-60.5 16.5q-27 0 -46.5 -7t-32.5 -18l-110 15l62 209l151 -11l-64 -122q20 12 46 18t67 6q49 0 88.5 -12t67 -33.5t42 -52t14.5 -66.5q0 -85 -75.5 -130t-210.5 -45 q-31 0 -62 4t-60 10.5t-53.5 15t-41.5 18.5z"/>
<glyph glyph-name="ogonek" unicode="˛" horiz-adv-x="1251" d="M727 -338q-32 -26 -84 -43t-123 -17q-55 0 -100 11.5t-77 34.5t-49.5 56t-17.5 77q0 34 14 69t42.5 66t71.5 56.5t100 40.5l197 -13q-46 -15 -83.5 -33t-64.5 -39.5t-41.5 -45.5t-14.5 -51q0 -35 18.5 -57.5t66.5 -22.5q50 0 89 31z"/>
<glyph glyph-name="comma" unicode="," horiz-adv-x="531" d="M102 -182q39 13 63.5 31t38.5 40.5t18.5 50t3.5 60.5h-115v298h311v-285q0 -53 -15 -105t-49.5 -95.5t-90.5 -75t-138 -42.5z"/>
<glyph glyph-name="semicolon" unicode=";" horiz-adv-x="536" d="M116 700v326h303v-326h-303zM102 -182q39 13 63.5 31t38.5 40.5t18.5 50t3.5 60.5h-115v298h311v-285q0 -53 -15 -105t-49.5 -95.5t-90.5 -75t-138 -42.5z"/>
<glyph glyph-name="colon" unicode=":" horiz-adv-x="536" d="M116 0v325h303v-325h-303zM116 700v326h303v-326h-303z"/>
<glyph glyph-name="period" unicode="." horiz-adv-x="536" d="M116 0v325h303v-325h-303z"/>
<glyph glyph-name="ellipsis" unicode="…" horiz-adv-x="1772" d="M578 0v325h304v-325h-304zM269 0v325h304v-325h-304zM1347 0v325h304v-325h-304z"/>
<glyph glyph-name="hyphen" unicode="-" horiz-adv-x="922" d="M80 396v252h762v-252h-762z"/>
<glyph glyph-name="exclam" unicode="!" horiz-adv-x="637" d="M237 474l-80 458v500h323v-501l-80 -457h-163zM159 0v305h316v-305h-316z"/>
<glyph glyph-name="exclamdown" unicode="¡" horiz-adv-x="618" d="M391 553l80 -459v-485h-321v485l79 459h162zM467 1026v-305h-316v305h316z"/>
<glyph glyph-name="question" unicode="?" horiz-adv-x="1217" d="M440 418v44q0 59 12.5 101.5t39 78.5t67.5 71.5t99 79.5l65.5 54t61 59.5t45 67.5t17.5 79q0 44 -16.5 80t-48 62t-76 40.5t-100.5 14.5q-69 0 -123.5 -15t-88.5 -48.5t-43.5 -86.5t10.5 -129l-255 -56q-39 136 -21 240t85 174t179.5 105.5t262.5 35.5q126 0 227 -25.5 t172 -75t109.5 -122.5t38.5 -168q0 -92 -40.5 -171t-129.5 -158q-43 -38 -79 -65l-65.5 -48t-51.5 -39.5t-37 -39t-22.5 -46t-7.5 -61.5v-33h-286zM426 0v305h316v-305h-316z"/>
<glyph glyph-name="questiondown" unicode="¿" horiz-adv-x="1217" d="M775 608v-45q0 -59 -12.5 -101t-39 -78t-68 -71.5t-98.5 -79.5l-65.5 -53.5t-61 -59t-45 -68t-17.5 -80.5t16.5 -80t48 -62t76 -40t100.5 -14q69 0 123.5 15t88.5 48.5t43.5 86.5t-10.5 129l255 56q39 -136 21 -240t-85 -174t-179.5 -105.5t-263.5 -35.5 q-125 0 -226 25.5t-172 75t-109.5 122t-38.5 167.5q0 93 40 171.5t130 158.5q65 57 114 90.5t82 62t50 60.5t17 86v33h286zM789 1026v-305h-317v305h317z"/>
<glyph glyph-name="quoteleft" unicode="‘" horiz-adv-x="506" d="M416 1341q-39 -14 -63.5 -32t-38.5 -40.5t-19 -50t-4 -60.5h116v-298h-311v285q0 52 15 104.5t49.5 96t90.5 75t137 42.5z"/>
<glyph glyph-name="quoteright" unicode="’" horiz-adv-x="505" d="M102 952q39 14 63.5 32t38.5 40.5t18.5 49.5t3.5 60h-115v298h311v-284q0 -53 -15 -105t-49.5 -95.5t-90.5 -75t-138 -43.5z"/>
<glyph glyph-name="quotedblleft" unicode="“" horiz-adv-x="931" d="M839 1342q-39 -14 -63.5 -31.5t-38 -40t-18 -50t-3.5 -60.5h115v-297h-311v284q0 52 15 104.5t49.5 96t90.5 75t138 42.5zM416 1342q-39 -14 -63.5 -31.5t-38.5 -40t-19 -50t-4 -60.5h116v-297h-311v284q0 52 15 104.5t49.5 96t90.5 75t137 42.5z"/>
<glyph glyph-name="quotedblright" unicode="”" horiz-adv-x="931" d="M102 952q39 14 63.5 32t38.5 40.5t18.5 49.5t3.5 60h-115v298h311v-284q0 -53 -15 -105t-49.5 -95.5t-90.5 -75t-138 -43.5zM526 952q39 14 63.5 32t38.5 40.5t18.5 49.5t3.5 60h-115v298h311v-284q0 -53 -15 -105t-49.5 -95.5t-90.5 -75t-138 -43.5z"/>
<glyph glyph-name="quotesinglbase" unicode="‚" horiz-adv-x="536" d="M102 -182q39 13 63.5 31t38.5 40.5t18.5 50t3.5 60.5h-115v298h311v-285q0 -53 -15 -105t-49.5 -95.5t-90.5 -75t-138 -42.5z"/>
<glyph glyph-name="quotedblbase" unicode="„" horiz-adv-x="952" d="M102 -182q39 13 63.5 31t38.5 40.5t18.5 50t3.5 60.5h-115v298h311v-285q0 -53 -15 -105t-49.5 -95.5t-90.5 -75t-138 -42.5zM526 -182q39 13 63.5 31t38.5 40.5t18.5 50t3.5 60.5h-115v298h311v-285q0 -53 -15 -105t-49.5 -95.5t-90.5 -75t-138 -42.5z"/>
<glyph glyph-name="guilsinglleft" unicode="‹" horiz-adv-x="753" d="M393 97l-339 437l345 435h294l-335 -433l334 -439h-299z"/>
<glyph glyph-name="guilsinglright" unicode="›" horiz-adv-x="752" d="M61 97l334 439l-335 433h294l345 -435l-340 -437h-298z"/>
<glyph glyph-name="slash" unicode="/" horiz-adv-x="1000" d="M47 -118l645 1701h290l-644 -1701h-291z"/>
<glyph glyph-name="bar" unicode="|" horiz-adv-x="542" d="M155 -360v1807h232v-1807h-232z"/>
<glyph glyph-name="endash" unicode="–" horiz-adv-x="1292" d="M-3 396v252h1298v-252h-1298z"/>
<glyph glyph-name="emdash" unicode="—" horiz-adv-x="2054" d="M-3 396v252h2060v-252h-2060z"/>
<glyph glyph-name="bullet" unicode="•" horiz-adv-x="710" d="M354 381q-57 0 -105.5 19t-83.5 52.5t-54.5 81t-19.5 104.5q0 58 19.5 105.5t54.5 81.5t83.5 53t105.5 19q58 0 107 -18.5t84 -52.5t55 -82t20 -106q0 -57 -19.5 -104t-54.5 -81t-84 -53t-108 -19z"/>
<glyph glyph-name="parenleft" unicode="(" horiz-adv-x="701" d="M423 -264q-77 96 -137 202.5t-101 220.5t-62.5 234t-21.5 242q0 121 21.5 241t63 233t102 218t137.5 198l258 -48q-146 -198 -213.5 -406.5t-67.5 -438.5q0 -228 69 -436.5t215 -410.5z"/>
<glyph glyph-name="parenright" unicode=")" horiz-adv-x="700" d="M12 -216q145 202 213.5 411t68.5 437q0 229 -68 438.5t-212 406.5l257 48q77 -93 137.5 -198t102 -218t63 -233t21.5 -241q0 -246 -82.5 -476.5t-238.5 -424.5z"/>
<glyph glyph-name="bracketleft" unicode="[" horiz-adv-x="747" d="M141 -243v1744h558v-216h-270v-1311h270v-217h-558z"/>
<glyph glyph-name="bracketright" unicode="]" horiz-adv-x="747" d="M612 -243h-561v217h270v1311h-270v216h561v-1744z"/>
<glyph glyph-name="asterisk" unicode="*" horiz-adv-x="836" d="M551 701l-133 284l-134 -284l-190 137l238 207l-299 41l78 216l252 -160l-67 294h242l-67 -293l253 159l78 -216l-299 -41l238 -207z"/>
<glyph glyph-name="dagger" unicode="†" horiz-adv-x="1082" d="M414 -163l24 997l-389 -19v220l389 -18l-24 424h253l-23 -424l390 18v-220l-390 19l23 -997h-253z"/>
<glyph glyph-name="asciitilde" unicode="~" horiz-adv-x="1319" d="M1211 813q-5 -94 -30 -162.5t-67.5 -113.5t-100.5 -67t-128 -22q-32 0 -61.5 7t-58 19t-56 27t-55.5 32q-52 30 -99.5 54t-96.5 24q-129 0 -136 -152l-216 26q5 90 30 157.5t67 112.5t99.5 67t129.5 22q34 0 67 -8.5t65 -21.5t63 -30l60 -33q49 -29 93 -51t82 -22 q62 0 96 41t38 117z"/>
<glyph glyph-name="brokenbar" unicode="¦" horiz-adv-x="542" d="M155 622v825h232v-825h-232zM155 -365v804h232v-804h-232z"/>
<glyph glyph-name="backslash" unicode="\" horiz-adv-x="1000" d="M692 -118l-645 1701h290l645 -1701h-290z"/>
<glyph glyph-name="underscore" unicode="_" horiz-adv-x="1091" d="M-3 -229v131h1097v-131h-1097z"/>
<glyph glyph-name="quotesingle" unicode="'" horiz-adv-x="470" d="M123 878l-33 554h289l-33 -554h-223z"/>
<glyph glyph-name="quotedbl" unicode=""" horiz-adv-x="886" d="M123 878l-33 554h289l-33 -554h-223zM536 878l-33 554h289l-33 -554h-223z"/>
<glyph glyph-name="at" unicode="@" d="M477 261l936 945q186 -239 186 -476q0 -135 -42.5 -256t-124.5 -213h-955zM337 238q-88 111 -133 233t-45 259q0 58 10 119.5t31 120.5t52.5 112t73.5 95h948zM400 180h960q-117 -93 -236.5 -137t-246.5 -44q-139 0 -258 48t-219 133zM1360 1263h-969q116 87 236.5 134.5 t249.5 47.5q74 0 137 -15t121 -40.5t113 -58.5z"/>
<glyph glyph-name="copyright" unicode="©" horiz-adv-x="1685" d="M1246 595q-23 -143 -118.5 -223t-273.5 -80q-101 0 -183.5 28t-141 81t-90 131t-31.5 177t32 177t89.5 131.5t138 81.5t177.5 28q177 0 274.5 -74.5t126.5 -222.5l-215 -25q-9 80 -53 117.5t-124 37.5q-99 0 -148.5 -65.5t-49.5 -185.5q0 -129 50.5 -190t152.5 -61 q75 0 118.5 40t54.5 121zM840 -21q-174 0 -316 50t-242.5 145t-155 232.5t-54.5 312.5q0 161 51 296t148.5 232.5t240 151.5t324.5 54q180 0 323 -52t242 -148t151.5 -231.5t52.5 -302.5q0 -165 -51 -301.5t-148.5 -234t-240 -151t-325.5 -53.5zM839 120q129 0 240 38.5 t192 114.5t127 188t46 259q0 132 -41 241t-119 187t-190.5 121t-254.5 43q-140 0 -252 -42t-190.5 -119.5t-120.5 -187t-42 -243.5q0 -136 42 -246.5t121 -189t190.5 -121.5t251.5 -43z"/>
<glyph glyph-name="registered" unicode="®" horiz-adv-x="1132" d="M665 776l-84 158h-88v-158h-122v456h211q91 0 143.5 -34.5t52.5 -111.5q0 -46 -20 -79t-64 -51l104 -180h-133zM584 1025q32 0 48 13t16 46q0 32 -17.5 43t-50.5 11h-87v-113h91zM563 533q-109 0 -198 31t-152 90.5t-97 145t-34 194.5q0 101 32 185t93 145t150 94.5 t203 33.5q113 0 202.5 -32.5t151.5 -92t95 -144t33 -189.5q0 -103 -32 -188t-93 -145.5t-150.5 -94t-203.5 -33.5zM562 653q74 0 137 22t109.5 65t72.5 106.5t26 146.5q0 75 -23.5 137.5t-68 107.5t-108.5 69.5t-145 24.5q-80 0 -144 -24t-109 -68.5t-69 -107t-24 -139.5 t24 -139.5t69 -107t109 -69t144 -24.5z"/>
<glyph glyph-name="trademark" unicode="™" horiz-adv-x="1922" d="M1641 621v466l4 128l-41 -116l-176 -478h-166l-178 488l-37 105l2 -112v-481h-181v811h266l185 -503l28 -93l29 94l184 502h264v-811h-183zM284 621v642h-268v169h747v-169h-272v-642h-207z"/>
<glyph glyph-name="dollar" unicode="$" horiz-adv-x="1327" d="M637 -214v176q-117 5 -219.5 38t-181.5 91.5t-130.5 142.5t-65.5 192l278 70q6 -63 31.5 -111t67 -81.5t97.5 -52.5t123 -23v396l-140 40q-93 28 -166 66t-124 88.5t-77.5 114t-26.5 141.5q0 97 37 170.5t106 123t168 75.5t223 28v140h117v-146q90 -10 173 -40.5 t149.5 -82t112.5 -125t63 -169.5l-267 -56q-11 52 -34 89.5t-54 62.5t-67.5 39.5t-75.5 20.5v-339l97 -26q102 -32 180 -70.5t130.5 -90t79 -119t26.5 -157.5q0 -99 -35.5 -177t-101.5 -133.5t-161 -88.5t-215 -40v-178zM414 1075q0 -38 17 -64.5t45.5 -46.5t65.5 -35 t76 -28l19 -5v315q-114 -4 -168.5 -42.5t-54.5 -93.5zM945 398q0 37 -12 64.5t-35.5 49.5t-59.5 40t-84 36v-357q54 7 90.5 23.5t59 39t32 49.5t9.5 55z"/>
<glyph glyph-name="cent" unicode="¢" horiz-adv-x="1167" d="M566 -185v156q-116 9 -211 49t-163 109t-105 165.5t-37 217.5q0 124 36.5 222t104 167.5t162.5 109t213 46.5v163h177v-174q154 -32 248 -137t113 -271l-248 -63q-6 62 -21.5 111t-43 82.5t-68.5 51.5t-98 18q-121 0 -190 -83.5t-69 -241.5q0 -84 19.5 -145t55.5 -101 t88 -59t117 -19q100 0 161.5 52.5t83.5 142.5l246 -69q-15 -60 -46.5 -115t-80 -100.5t-115.5 -77.5t-152 -45v-162h-177z"/>
<glyph glyph-name="sterling" unicode="£" horiz-adv-x="1535" d="M1078 -32q-104 -1 -210.5 26.5t-226.5 95.5q-52 -57 -127 -89.5t-176 -32.5q-74 0 -129 18t-92 48.5t-55.5 70t-18.5 81.5q0 67 26.5 111.5t66.5 71.5t86.5 38t87.5 11q35 0 81.5 -6.5t97.5 -20.5q1 52 -7.5 110t-25.5 120h-201v184h152q-13 44 -23 92.5t-10 109.5 q0 95 38.5 174t107 135.5t163 88t206.5 31.5q117 0 211.5 -21t163 -66.5t110 -117t52.5 -172.5l-261 -53q-11 63 -37 102.5t-61.5 62t-78 30.5t-84.5 8q-67 0 -111.5 -20t-71.5 -52t-38 -72t-11 -81t7.5 -84t25.5 -95h432v-184h-398q20 -86 20.5 -170.5t-17.5 -161.5 q52 -26 94 -45t80 -31.5t76 -18.5t82 -6q51 0 91 9.5t71.5 25.5t56 38t42.5 46l156 -100q-29 -60 -72.5 -105t-97.5 -75t-116 -44.5t-127 -14.5zM343 144q35 0 61 18.5t45 50.5q-35 20 -60 27.5t-54 7.5q-33 0 -51 -14.5t-18 -38.5q0 -23 21 -37t56 -14z"/>
<glyph glyph-name="florin" unicode="ƒ" horiz-adv-x="971" d="M27 -199q45 19 80.5 44t60 61t39 86t19.5 119l38 614h-207v211h233q10 129 37 224.5t81.5 159.5t142.5 95.5t220 31.5q32 0 62 -2.5t56 -6.5t47.5 -8.5t36.5 -8.5l-20 -212q-21 5 -56.5 9.5t-74.5 4.5q-64 0 -103.5 -19.5t-61.5 -56t-31 -90t-12 -121.5h291v-211h-305 l-41 -655q-7 -104 -44.5 -185t-100.5 -136.5t-149 -85t-189 -32.5z"/>
<glyph glyph-name="yen" unicode="¥" horiz-adv-x="1416" d="M182 638h303l-483 794h360l352 -655l354 655h346l-483 -794h328v-133h-389v-104h389v-132h-389v-269h-323v269h-365v132h365v104h-365v133z"/>
<glyph glyph-name="Euro" unicode="€" horiz-adv-x="1558" d="M1491 452q-27 -113 -84.5 -203.5t-143 -154.5t-198.5 -98.5t-251 -34.5q-150 0 -272.5 38t-215 111t-152.5 178.5t-84 239.5h-142l16 127h112q-1 14 -1 29v30v31t1 30h-128l16 127h127q24 135 83 240.5t150 178.5t212 111.5t269 38.5q144 0 264 -42t207.5 -122 t138 -197.5t53.5 -268.5l-290 -62q-6 118 -37.5 198.5t-82 130t-115.5 71t-138 21.5q-143 0 -238.5 -74.5t-132.5 -223.5h533l-15 -127h-538q-1 -17 -1.5 -34t-0.5 -34v-26.5t1 -25.5h554l-15 -127h-519q38 -147 139.5 -221.5t256.5 -74.5q66 0 125.5 16.5t108.5 51t85 88 t56 126.5z"/>
<glyph glyph-name="currency" unicode="¤" horiz-adv-x="1238" d="M1000 102l-127 129q-107 -60 -250 -60q-75 0 -141 16t-120 48l-128 -130l-149 134l124 127q-42 59 -61.5 130.5t-19.5 153.5q0 81 19.5 150t61.5 127l-124 126l149 136l127 -131q55 31 120.5 47.5t141.5 16.5q75 0 138 -15.5t117 -45.5l126 128l149 -136l-120 -123 q44 -60 63.5 -131t19.5 -156q0 -169 -86 -285l118 -122zM623 362q125 0 190.5 75t65.5 214q0 135 -67.5 205.5t-188.5 70.5q-125 0 -192.5 -73t-67.5 -213q0 -135 69 -207t191 -72z"/>
<glyph glyph-name="fraction" unicode="⁄" horiz-adv-x="425" d="M-330 51l875 1441l192 -101l-874 -1441z"/>
<glyph glyph-name="percent" unicode="%" horiz-adv-x="1833" d="M401 673q-92 0 -159.5 27t-111.5 77.5t-66 121.5t-22 159t22 159t66.5 121.5t112.5 77.5t160 27q91 0 158.5 -27t112 -77.5t66 -122t21.5 -159.5q0 -87 -22 -158t-66.5 -121.5t-112 -77.5t-159.5 -27zM402 842q72 0 105.5 54.5t33.5 161.5q0 108 -33.5 162t-105.5 54 q-140 0 -140 -217q0 -215 140 -215zM380 51l875 1441l192 -101l-874 -1441zM1430 -21q-92 0 -159.5 27t-112 77.5t-66 121.5t-21.5 159t22 159t66.5 121.5t112 77.5t159.5 27q91 0 158.5 -27.5t112 -77.5t66 -121.5t21.5 -159.5q0 -87 -22 -158t-66 -121.5t-112 -77.5 t-159 -27zM1430 147q72 0 106 54.5t34 162.5q0 107 -33.5 161.5t-105.5 54.5q-140 0 -140 -217q0 -107 33.5 -161.5t105.5 -54.5z"/>
<glyph glyph-name="perthousand" unicode="‰" horiz-adv-x="2338" d="M1928 -21q-81 0 -143 21t-106 61q-45 -40 -106.5 -61t-142.5 -21q-92 0 -159.5 27t-112 77.5t-66 121.5t-21.5 159t22 159t66.5 121.5t112 77.5t159.5 27q81 0 142.5 -21.5t106.5 -61.5q45 40 107 61.5t144 21.5q91 0 158 -27.5t111.5 -77.5t66 -121.5t21.5 -159.5 q0 -87 -21.5 -158t-66 -121.5t-112.5 -77.5t-160 -27zM401 673q-92 0 -159.5 27t-111.5 77.5t-66 121.5t-22 159t22 159t66.5 121.5t112.5 77.5t160 27q91 0 158.5 -27t112 -77.5t66 -122t21.5 -159.5q0 -87 -22 -158t-66.5 -121.5t-112 -77.5t-159.5 -27zM380 51l875 1441 l192 -101l-874 -1441zM1929 147q72 0 105.5 54.5t33.5 162.5q0 107 -33 161.5t-106 54.5q-140 0 -140 -217q0 -107 34 -161.5t106 -54.5zM1430 147q137 0 140 206v21q-2 102 -36 154t-103 52q-140 0 -140 -217q0 -107 33.5 -161.5t105.5 -54.5zM402 842q72 0 105.5 54.5 t33.5 161.5q0 108 -33.5 162t-105.5 54q-140 0 -140 -217q0 -215 140 -215z"/>
<glyph glyph-name="zero" unicode="0" d="M477 261l936 945q186 -239 186 -476q0 -135 -42.5 -256t-124.5 -213h-955zM337 238q-88 111 -133 233t-45 259q0 58 10 119.5t31 120.5t52.5 112t73.5 95h948zM400 180h960q-117 -93 -236.5 -137t-246.5 -44q-139 0 -258 48t-219 133zM1360 1263h-969q116 87 236.5 134.5 t249.5 47.5q74 0 137 -15t121 -40.5t113 -58.5z"/>
<glyph glyph-name="one" unicode="1" d="M477 261l936 945q186 -239 186 -476q0 -135 -42.5 -256t-124.5 -213h-955zM337 238q-88 111 -133 233t-45 259q0 58 10 119.5t31 120.5t52.5 112t73.5 95h948zM400 180h960q-117 -93 -236.5 -137t-246.5 -44q-139 0 -258 48t-219 133zM1360 1263h-969q116 87 236.5 134.5 t249.5 47.5q74 0 137 -15t121 -40.5t113 -58.5z"/>
<glyph glyph-name="two" unicode="2" d="M477 261l936 945q186 -239 186 -476q0 -135 -42.5 -256t-124.5 -213h-955zM337 238q-88 111 -133 233t-45 259q0 58 10 119.5t31 120.5t52.5 112t73.5 95h948zM400 180h960q-117 -93 -236.5 -137t-246.5 -44q-139 0 -258 48t-219 133zM1360 1263h-969q116 87 236.5 134.5 t249.5 47.5q74 0 137 -15t121 -40.5t113 -58.5z"/>
<glyph glyph-name="three" unicode="3" d="M477 261l936 945q186 -239 186 -476q0 -135 -42.5 -256t-124.5 -213h-955zM337 238q-88 111 -133 233t-45 259q0 58 10 119.5t31 120.5t52.5 112t73.5 95h948zM400 180h960q-117 -93 -236.5 -137t-246.5 -44q-139 0 -258 48t-219 133zM1360 1263h-969q116 87 236.5 134.5 t249.5 47.5q74 0 137 -15t121 -40.5t113 -58.5z"/>
<glyph glyph-name="four" unicode="4" d="M477 261l936 945q186 -239 186 -476q0 -135 -42.5 -256t-124.5 -213h-955zM337 238q-88 111 -133 233t-45 259q0 58 10 119.5t31 120.5t52.5 112t73.5 95h948zM400 180h960q-117 -93 -236.5 -137t-246.5 -44q-139 0 -258 48t-219 133zM1360 1263h-969q116 87 236.5 134.5 t249.5 47.5q74 0 137 -15t121 -40.5t113 -58.5z"/>
<glyph glyph-name="five" unicode="5" d="M477 261l936 945q186 -239 186 -476q0 -135 -42.5 -256t-124.5 -213h-955zM337 238q-88 111 -133 233t-45 259q0 58 10 119.5t31 120.5t52.5 112t73.5 95h948zM400 180h960q-117 -93 -236.5 -137t-246.5 -44q-139 0 -258 48t-219 133zM1360 1263h-969q116 87 236.5 134.5 t249.5 47.5q74 0 137 -15t121 -40.5t113 -58.5z"/>
<glyph glyph-name="six" unicode="6" d="M477 261l936 945q186 -239 186 -476q0 -135 -42.5 -256t-124.5 -213h-955zM337 238q-88 111 -133 233t-45 259q0 58 10 119.5t31 120.5t52.5 112t73.5 95h948zM400 180h960q-117 -93 -236.5 -137t-246.5 -44q-139 0 -258 48t-219 133zM1360 1263h-969q116 87 236.5 134.5 t249.5 47.5q74 0 137 -15t121 -40.5t113 -58.5z"/>
<glyph glyph-name="seven" unicode="7" d="M477 261l936 945q186 -239 186 -476q0 -135 -42.5 -256t-124.5 -213h-955zM337 238q-88 111 -133 233t-45 259q0 58 10 119.5t31 120.5t52.5 112t73.5 95h948zM400 180h960q-117 -93 -236.5 -137t-246.5 -44q-139 0 -258 48t-219 133zM1360 1263h-969q116 87 236.5 134.5 t249.5 47.5q74 0 137 -15t121 -40.5t113 -58.5z"/>
<glyph glyph-name="eight" unicode="8" d="M477 261l936 945q186 -239 186 -476q0 -135 -42.5 -256t-124.5 -213h-955zM337 238q-88 111 -133 233t-45 259q0 58 10 119.5t31 120.5t52.5 112t73.5 95h948zM400 180h960q-117 -93 -236.5 -137t-246.5 -44q-139 0 -258 48t-219 133zM1360 1263h-969q116 87 236.5 134.5 t249.5 47.5q74 0 137 -15t121 -40.5t113 -58.5z"/>
<glyph glyph-name="nine" unicode="9" d="M477 261l936 945q186 -239 186 -476q0 -135 -42.5 -256t-124.5 -213h-955zM337 238q-88 111 -133 233t-45 259q0 58 10 119.5t31 120.5t52.5 112t73.5 95h948zM400 180h960q-117 -93 -236.5 -137t-246.5 -44q-139 0 -258 48t-219 133zM1360 1263h-969q116 87 236.5 134.5 t249.5 47.5q74 0 137 -15t121 -40.5t113 -58.5z"/>
<glyph glyph-name="uni03BC" unicode="μ" horiz-adv-x="1387" d="M134 -391v1417h307v-548q0 -55 9.5 -106.5t34 -91t67 -63t108.5 -23.5q57 0 107 21t87.5 62t59 103t21.5 145v501h306v-1026h-297v195q-49 -118 -133.5 -173t-193.5 -55q-52 0 -95.5 10.5t-80.5 30.5v-399h-307z"/>
<glyph glyph-name="eth" unicode="ð" horiz-adv-x="1313" d="M1018 1287q110 -131 165.5 -301t55.5 -399q0 -143 -39 -258t-113 -195t-182.5 -123t-247.5 -43q-143 0 -253.5 37.5t-187 107.5t-116 170.5t-39.5 226.5q0 120 33.5 217t97 166t155.5 106.5t209 37.5q145 0 245.5 -53t151.5 -156q-9 45 -27 94.5t-44 98.5t-59 94.5 t-71 83.5l-265 -78l-34 90l216 62q-50 39 -107.5 69t-120.5 50l243 134q75 -29 140 -68t121 -90l186 56l32 -93zM648 179q74 0 127.5 25.5t88 70t50.5 105t16 131.5q0 161 -69 249t-213 88q-134 0 -202 -88.5t-68 -248.5q0 -161 71 -246.5t199 -85.5z"/>
<glyph glyph-name="numbersign" unicode="#" horiz-adv-x="1355" d="M711 0l57 344h-303l-58 -344h-235l57 344h-202v199h236l52 306h-209v200h242l57 341h234l-55 -341h304l57 341h234l-56 -341h203v-200h-238l-51 -306h217v-199h-250l-59 -344h-234zM853 849h-303l-52 -306h304z"/>
<glyph glyph-name="uni0394" unicode="Δ" horiz-adv-x="1556" d="M20 0l560 1432h397l558 -1432h-1515zM429 227h684l-342 968z"/>
<glyph glyph-name="uni03A9" unicode="Ω" horiz-adv-x="1596" d="M884 0v272q17 66 43.5 117t55.5 94t58 81.5t52.5 79.5t38 87t14.5 104q0 87 -21.5 157t-65 120t-109 77t-153.5 27q-86 0 -151 -27t-109.5 -77t-67 -120t-22.5 -157q0 -58 14.5 -104.5t37.5 -87t52 -79t58.5 -82t55.5 -94.5t44 -116v-272h-618v242h343q-10 58 -38 102 t-64 83l-75 78.5t-71.5 87.5t-53.5 109.5t-21 145.5q0 135 50 249.5t140.5 197.5t216 129.5t275.5 46.5q146 0 272 -44.5t218.5 -126.5t145.5 -197t53 -256q0 -84 -21 -145.5t-53.5 -109.5t-72 -86.5t-75 -78t-63.5 -83.5t-38 -102h342v-242h-617z"/>
<glyph glyph-name="pi" unicode="π" horiz-adv-x="1464" d="M1423 5q-31 -10 -79 -18.5t-112 -8.5q-99 0 -161.5 26t-97.5 73t-47.5 112t-12.5 143v483h-375v-815h-307v815h-199v211h1385v-211h-198v-494q0 -67 29 -95.5t83 -28.5q24 0 41.5 3.5t33.5 5.5z"/>
<glyph glyph-name="periodcentered" unicode="·" horiz-adv-x="536" d="M116 364v326h303v-326h-303z"/>
<glyph glyph-name="braceleft" unicode="{" horiz-adv-x="785" d="M562 -244q-102 0 -169 21t-107.5 66.5t-57 117t-16.5 173.5v234q0 42 -8.5 73t-28.5 51t-52.5 30.5t-80.5 11.5v205q52 0 85 11.5t52 34t25.5 56t6.5 78.5v227q0 104 21.5 173.5t68.5 111t122 59t182 17.5h129v-217h-96q-42 0 -69 -9t-43.5 -29t-23 -52t-6.5 -79v-208 q0 -52 -6 -95.5t-24.5 -78.5t-52.5 -60.5t-89 -40.5q52 -15 85.5 -41.5t53 -61.5t26.5 -76.5t7 -87.5v-248q0 -44 8.5 -73t26 -46t44 -23.5t63.5 -6.5h97v-218h-173z"/>
<glyph glyph-name="braceright" unicode="}" horiz-adv-x="783" d="M44 -244v218h98q36 0 62.5 6.5t44 23.5t25.5 46t8 73v248q0 46 7.5 87.5t26.5 76.5t52.5 61.5t86.5 41.5q-55 15 -89 40.5t-52.5 60.5t-25 78.5t-6.5 95.5v208q0 47 -6.5 79t-22.5 52t-43 29t-68 9h-97v217h128q108 0 183 -17.5t122 -59t68 -111t21 -173.5v-227 q0 -45 7 -78.5t25.5 -56t51.5 -34t85 -11.5v-205q-48 -1 -80.5 -11.5t-52.5 -30.5t-28.5 -51t-8.5 -73v-234q0 -102 -16.5 -173.5t-56.5 -117t-107 -66.5t-169 -21h-173z"/>
<glyph glyph-name="guillemotleft" unicode="«" horiz-adv-x="1280" d="M918 97l-339 437l344 435h295l-336 -433l334 -439h-298zM393 97l-339 437l345 435h294l-335 -433l334 -439h-299z"/>
<glyph glyph-name="guillemotright" unicode="»" horiz-adv-x="1280" d="M56 97l333 439l-335 433h296l343 -435l-339 -437h-298zM581 97l334 439l-336 433h295l344 -435l-340 -437h-297z"/>
<glyph glyph-name="plus" unicode="+" horiz-adv-x="1255" d="M506 56v387h-404v223h404v378h240v-378h406v-223h-406v-387h-240z"/>
<glyph glyph-name="minus" unicode="−" horiz-adv-x="1254" d="M117 559v226h1019v-226h-1019z"/>
<glyph glyph-name="plusminus" unicode="±" horiz-adv-x="1255" d="M102 0v223h404v304h-404v222h404v379h240v-379h406v-222h-406v-304h406v-223h-1050z"/>
<glyph glyph-name="multiply" unicode="×" horiz-adv-x="1255" d="M888 118l-271 270l-266 -266l-158 157l266 268l-265 263l170 170l264 -264l268 268l158 -158l-267 -268l270 -270z"/>
<glyph glyph-name="divide" unicode="÷" horiz-adv-x="1338" d="M665 833q-30 0 -56 10t-44.5 29t-29.5 44.5t-11 57.5t11 58t29.5 45t44.5 29t56 10q31 0 57 -10t45.5 -28.5t30.5 -45t11 -58.5q0 -31 -11 -57t-30.5 -44.5t-45.5 -29t-57 -10.5zM95 685h1148v-204h-1148v204zM665 47q-30 0 -56 10t-44.5 28.5t-29.5 44.5t-11 57 q0 32 11 58t29.5 45t44.5 29t56 10q31 0 57 -10t45.5 -28.5t30.5 -45t11 -58.5q0 -30 -11 -56t-30.5 -44.5t-45.5 -29t-57 -10.5z"/>
<glyph glyph-name="equal" unicode="=" horiz-adv-x="1240" d="M120 211v210h1000v-210h-1000zM120 627v212h1000v-212h-1000z"/>
<glyph glyph-name="less" unicode="<" horiz-adv-x="1319" d="M150 477v216l969 410v-238l-696 -278l696 -276v-243z"/>
<glyph glyph-name="greater" unicode=">" horiz-adv-x="1319" d="M187 68v243l695 276l-695 278v238l969 -410v-216z"/>
<glyph glyph-name="degree" unicode="°" horiz-adv-x="818" d="M770 1078q0 -78 -27 -143t-75 -111.5t-114.5 -72.5t-145.5 -26q-80 0 -146 26t-114 73t-74.5 113.5t-26.5 146.5q0 79 27 144t75.5 111.5t114.5 72t144 25.5q80 0 146.5 -26t114.5 -73t74.5 -113t26.5 -147zM408 893q41 0 74 14t56.5 39t36 60t12.5 77t-12.5 76.5t-36 59 t-56.5 38t-74 13.5t-74.5 -14t-56.5 -39t-35.5 -59.5t-12.5 -76.5q0 -87 48.5 -137.5t130.5 -50.5z"/>
<glyph glyph-name="approxequal" unicode="≈" horiz-adv-x="1274" d="M109 653q11 134 87.5 201t213.5 67q34 0 64.5 -6t60 -16t59.5 -23.5l65 -28.5q31 -15 55 -24.5t42.5 -15t33.5 -7.5t29 -2q36 0 59 12t36.5 30.5t20 39.5t8.5 38l208 -34q-11 -132 -87.5 -200t-214.5 -68q-40 0 -73 7t-62.5 18t-57.5 24.5t-58 26.5l-31.5 14t-37.5 15.5 t-42.5 12.5t-44.5 5q-37 0 -61 -12.5t-38 -31t-20 -39t-7 -36.5zM109 197q11 134 87.5 201.5t213.5 67.5q34 0 64.5 -6t60 -16t59.5 -23.5l65 -29.5q31 -15 55 -24.5t42.5 -15t33.5 -7.5t29 -2q36 0 59 12t36.5 30.5t20 39.5t8.5 38l208 -33q-11 -132 -87.5 -200t-214.5 -68 q-40 0 -73 7t-62.5 17.5t-57.5 24t-58 26.5l-31.5 14t-37.5 15.5t-42.5 12.5t-44.5 5q-37 0 -61 -12.5t-38 -31t-20 -39t-7 -36.5z"/>
<glyph glyph-name="greaterequal" unicode="≥" horiz-adv-x="1319" d="M165 0v205h967v-205h-967zM168 296v235l714 268l-714 268v230l969 -393v-216z"/>
<glyph glyph-name="infinity" unicode="∞" horiz-adv-x="1361" d="M680 514q-57 -89 -131 -134.5t-177 -45.5q-72 0 -130.5 23.5t-100 67.5t-64 106.5t-22.5 141.5t22 142.5t63.5 108.5t100 69.5t130.5 24.5q103 0 179 -46t130 -133q57 88 132 133.5t178 45.5q72 0 130 -23.5t99 -67.5t63.5 -106.5t22.5 -141.5t-22 -142.5t-63 -108.5 t-99.5 -69.5t-131.5 -24.5q-103 0 -178.5 46.5t-130.5 133.5zM585 676q-33 75 -78.5 114.5t-109.5 39.5q-65 0 -101.5 -39.5t-36.5 -112.5q0 -76 37 -115.5t103 -39.5q65 0 109.5 40t76.5 113zM776 675q32 -73 77.5 -112.5t110.5 -39.5q63 0 100.5 38.5t37.5 113.5 q0 74 -37 114.5t-102 40.5q-66 0 -110.5 -40.5t-76.5 -114.5z"/>
<glyph glyph-name="lessequal" unicode="≤" horiz-adv-x="1319" d="M170 0v205h967v-205h-967zM165 688v216l969 393v-230l-713 -268l713 -268v-235z"/>
<glyph glyph-name="logicalnot" unicode="¬" horiz-adv-x="1319" d="M910 276v333h-759v217h992v-550h-233z"/>
<glyph glyph-name="notequal" unicode="≠" horiz-adv-x="1240" d="M547 211l-115 -204l-165 89l64 115h-211v210h329l116 206h-445v212h565l124 220l165 -90l-73 -130h219v-212h-339l-116 -206h455v-210h-573z"/>
<glyph glyph-name="integral" unicode="∫" horiz-adv-x="877" d="M67 10q23 -5 47 -8.5t51 -3.5q33 0 62 7.5t50 25t32 45t8 67.5l-62 886q-8 109 17 189.5t79 133.5t134 79.5t182 26.5q39 0 80 -6t79 -16l-18 -224q-25 6 -48 8.5t-48 2.5q-35 0 -65 -7.5t-52 -27t-33.5 -54t-7.5 -87.5l68 -868q8 -94 -15.5 -170.5t-75.5 -131t-130 -84 t-179 -29.5q-45 0 -88.5 5.5t-86.5 16.5z"/>
<glyph glyph-name="partialdiff" unicode="∂" horiz-adv-x="1315" d="M189 1227q67 103 180.5 154.5t256.5 51.5q162 0 276.5 -54t186.5 -149t105 -225t32 -283q-2 -371 -161 -563.5t-478 -192.5q-123 0 -221 31.5t-166.5 90.5t-105 144t-36.5 192q0 108 35 197t100.5 152.5t159.5 98.5t213 35q62 0 119.5 -11.5t107 -35t88.5 -59.5t65 -85 q7 100 -10 188.5t-58 154.5t-106.5 104t-155.5 38q-80 0 -138 -26t-107 -76zM605 182q70 0 127.5 24.5t97.5 67t59.5 100t13.5 123.5q-4 50 -26.5 88t-59 63.5t-85 38t-104.5 12.5q-68 0 -120 -18.5t-87.5 -53.5t-54 -84.5t-18.5 -111.5q0 -118 67.5 -183.5t189.5 -65.5z "/>
<glyph glyph-name="product" unicode="∏" horiz-adv-x="1575" d="M1102 -195v1365h-633v-1365h-314v1626h1264v-1626h-317z"/>
<glyph glyph-name="radical" unicode="√" horiz-adv-x="1386" d="M486 -95l-241 607h-201v254h399l204 -556l424 1262h308l-565 -1567h-328z"/>
<glyph glyph-name="summation" unicode="∑" horiz-adv-x="1337" d="M63 -185v205l530 623l-509 581v207h1172v-247h-779l471 -535l-503 -587h820l-1 -247h-1201z"/>
<glyph glyph-name="paragraph" unicode="¶" horiz-adv-x="1467" d="M1034 -383v1628h-237v-1628h-212v959q-123 4 -219.5 31t-163 78.5t-101 129.5t-34.5 183q0 89 23 156t65 115.5t101.5 80t132.5 49.5t157.5 25.5t177.5 7.5h521l1 -1815h-212z"/>
<glyph glyph-name="section" unicode="§" horiz-adv-x="1177" d="M808 98q0 46 -21.5 74.5t-63.5 48.5t-104.5 35l-145.5 35q-128 24 -209.5 55.5t-127.5 70.5t-63 86t-17 103q0 92 48 156t141 99q-87 42 -127 106t-40 151q0 78 35 140.5t101 105.5t161 66t216 23q202 0 325.5 -66.5t176.5 -198.5l-215 -81q-47 83 -121.5 121t-177.5 38 q-106 0 -160.5 -34t-54.5 -95q0 -43 23 -70.5t66.5 -47t106.5 -34l142 -32.5q115 -25 194 -52t128 -63.5t70.5 -86.5t21.5 -121q0 -91 -45 -157t-133 -102q86 -44 125 -104.5t39 -148.5q0 -84 -35 -149t-102.5 -110t-165.5 -68.5t-224 -23.5q-230 0 -363.5 79t-176.5 231 l220 66q40 -98 123.5 -141.5t208.5 -43.5q34 0 72.5 5.5t71.5 20.5t55 42.5t22 71.5zM325 643q0 -46 32 -75t86.5 -49t125.5 -35.5l149 -33.5q60 11 93.5 48.5t33.5 96.5q0 40 -26 69.5t-75 51.5t-119 38t-157 31q-72 -5 -107.5 -43t-35.5 -99z"/>
<glyph glyph-name="asciicircum" unicode="^" horiz-adv-x="1143" d="M808 747l-238 453l-240 -453h-273l379 684h270l379 -684h-277z"/>
<glyph glyph-name="daggerdbl" unicode="‡" horiz-adv-x="1082" d="M414 -163l15 383l-380 -17v220l388 -19l1 430l-389 -19v220l389 -18l-24 424h253l-23 -424l390 18v-220l-390 19l1 -430l389 19v-220l-382 17l15 -383h-253z"/>
<glyph glyph-name="uni20BA" unicode="₺" horiz-adv-x="1342" d="M232 0v545l-161 -47l-22 127l183 54v157l-161 -46l-22 125l183 54v447h322v-363l422 123l21 -126l-443 -130v-156l422 121l21 -126l-443 -130v-378h95q60 0 117 16.5t105 52.5t83.5 93.5t52.5 140.5l298 -15q-18 -126 -66 -226t-128.5 -169.5t-196 -106.5t-269.5 -37 h-413z"/>
<glyph glyph-name="uni20B9" unicode="₹" horiz-adv-x="1474" d="M1383 898h-93q-14 -78 -55 -143t-118.5 -111.5t-197 -72t-289.5 -23.5l-165 1l703 -549h-463l-621 506v235l546 2q82 0 140 10.5t97 30t60 48t30 66.5h-874v136h876q-19 83 -86.5 118.5t-170.5 35.5h-619v244h1330l-35 -205h-144q27 -41 43 -88.5t20 -104.5h116z"/>
<glyph glyph-name="uni2126" unicode="Ω" horiz-adv-x="1596" d="M884 0v272q17 66 43.5 117t55.5 94t58 81.5t52.5 79.5t38 87t14.5 104q0 87 -21.5 157t-65 120t-109 77t-153.5 27q-86 0 -151 -27t-109.5 -77t-67 -120t-22.5 -157q0 -58 14.5 -104.5t37.5 -87t52 -79t58.5 -82t55.5 -94.5t44 -116v-272h-618v242h343q-10 58 -38 102 t-64 83l-75 78.5t-71.5 87.5t-53.5 109.5t-21 145.5q0 135 50 249.5t140.5 197.5t216 129.5t275.5 46.5q146 0 272 -44.5t218.5 -126.5t145.5 -197t53 -256q0 -84 -21 -145.5t-53.5 -109.5t-72 -86.5t-75 -78t-63.5 -83.5t-38 -102h342v-242h-617z"/>
<glyph glyph-name="uni2206" unicode="∆" horiz-adv-x="1537" d="M19 0l577 1431h349l573 -1431h-1499zM766 1160l-345 -924h686z"/>
<glyph glyph-name="estimated" unicode="℮" horiz-adv-x="1351" d="M1214 234q-87 -128 -222 -192t-305 -64q-128 0 -243 38t-201.5 112t-137 182t-50.5 248q0 138 48 249t133 188.5t199.5 119.5t248.5 42q130 0 242 -40.5t194 -114t128.5 -175t46.5 -222.5v-53l-937 -2l5 -386q71 -58 154.5 -85.5t172.5 -27.5q137 0 242 52t185 161z M980 621q9 0 15.5 5.5t10.5 14.5t6 19.5t2 20.5v216q0 37 -16.5 65.5t-43.5 49.5t-61.5 35.5t-71.5 23t-73 12.5t-66 4q-43 0 -99 -10t-106.5 -32.5t-85.5 -60t-35 -92.5v-236q0 -15 3 -22.5t9 -10t14 -2.5h17h581z"/>
<glyph glyph-name="c" unicode="c" horiz-adv-x="1180" d="M911 360l221 -93q-24 -62 -68 -116.5t-107 -95t-145 -64t-182 -23.5q-129 0 -236 36.5t-183.5 106.5t-118.5 171t-42 230q0 130 40.5 232t114.5 172t178.5 106.5t232.5 36.5q103 0 193 -29.5t158.5 -84t111 -133.5t50.5 -178l-244 -52l-11 4q-12 120 -74.5 186t-174.5 66 q-60 0 -108 -22t-81.5 -63.5t-51.5 -101.5t-18 -136q0 -84 19.5 -145.5t55.5 -101.5t88 -59.5t117 -19.5q93 0 160 45.5t98 124.5z"/>
<glyph glyph-name=".dot" horiz-adv-x="1629" d="M611 301q0 27 13 50.5t35.5 41t53.5 27.5t66 10q36 0 66.5 -10t53 -27.5t35.5 -41t13 -50.5q0 -26 -13 -49t-35.5 -40t-53 -27t-66.5 -10q-35 0 -66 10t-53.5 27t-35.5 40t-13 49zM617 639q0 26 12.5 49t34 40t51 27t63.5 10t63.5 -10t51 -27t33.5 -40t12 -49t-12 -49 t-33.5 -40t-51 -26.5t-63.5 -9.5t-63.5 9.5t-51 26.5t-34 40t-12.5 49zM144 583q0 24 11.5 45.5t32 37t48.5 24.5t61 9t61 -9t48.5 -24.5t32 -37t11.5 -45.5t-11.5 -45t-32 -36t-48.5 -24t-61 -9t-61 9t-48.5 24t-32 36t-11.5 45zM134 265q0 23 12 42.5t33.5 33.5t50 22 t61.5 8t62 -8t50.5 -22t33.5 -33.5t12 -42.5q0 -22 -12 -41.5t-33.5 -33.5t-50.5 -22.5t-62 -8.5t-61.5 8.5t-50 22.5t-33.5 33.5t-12 41.5z"/>
<glyph glyph-name="acute" unicode="´" horiz-adv-x="1251" d="M241 1591l188 295h324l-286 -295h-226z"/>
<glyph glyph-name="dotlessi" unicode="ı" horiz-adv-x="599" d="M146 0v1026h307v-1026h-307z"/>
<glyph glyph-name="dotlessj" unicode="ȷ" horiz-adv-x="599" d="M453 1026v-1028q0 -75 -20 -144t-64.5 -121.5t-114.5 -83.5t-169 -31q-57 0 -105.5 14t-87 34.5t-66 44t-42.5 42.5l89 140q13 -10 30 -21t36.5 -20t42 -14.5t47.5 -5.5t47.5 7.5t39 23.5t26.5 41t10 59q0 20 -1 40.5t-2 53t-2 82.5t-1 129v758h307z"/>
<glyph glyph-name="four.alt" horiz-adv-x="1343" d="M789 0v304h-753v216l719 873h328v-870h211v-219h-211v-304h-294zM789 1117l-465 -594h465v594z"/>
<glyph glyph-name="one.alt" horiz-adv-x="1001" d="M440 0v1014l-292 -1v172q79 7 137 20.5t99 38t66 61t38 88.5h263v-1393h-311z"/>
<glyph glyph-name="esuperior" unicode="" horiz-adv-x="789" d="M754 988q-15 -57 -45.5 -98.5t-74 -69t-99 -41t-118.5 -13.5q-96 0 -169 25t-122 70t-73.5 108.5t-24.5 140.5q0 78 23.5 141t70.5 108t116.5 69.5t162.5 24.5q84 0 150.5 -23t112.5 -66.5t70.5 -106.5t24.5 -143v-47h-519q8 -76 52 -116.5t116 -40.5q57 0 97.5 22.5 t57.5 78.5zM547 1181q-5 64 -40 101t-110 37q-37 0 -64 -10t-46 -28.5t-30 -44t-15 -55.5h305z"/>
<glyph glyph-name="asuperior" unicode="" horiz-adv-x="823" d="M819 797q-6 -3 -19 -8t-30.5 -10.5t-37.5 -9t-41 -3.5q-35 0 -62 7t-46 22.5t-29 40.5t-10 62q0 13 1 38t3 49q-12 -59 -39.5 -101t-65.5 -68t-84.5 -38t-96.5 -12q-113 0 -174.5 51t-61.5 137q0 64 38.5 102t105 58.5t155.5 27t189 6.5v61q0 51 -29 80t-102 29 q-25 0 -49 -4t-43 -15t-30 -30.5t-9 -50.5l-172 -15q-8 64 12 111t62 78t104 46t139 15q172 0 253 -67.5t81 -207.5v-232q0 -55 38 -55q16 0 29 3.5t21 6.5v-104zM514 1066q-59 -2 -108.5 -6.5t-85 -15t-55 -28t-19.5 -46.5t20.5 -49.5t72.5 -20.5q35 0 66.5 13.5t55.5 35.5 t38.5 51t14.5 60v6z"/>
<glyph glyph-name="bsuperior" unicode="" horiz-adv-x="877" d="M91 786v908h217v-355q13 24 37 45t56 36t69.5 24t78.5 9q68 0 123.5 -23.5t94.5 -68t60.5 -108t21.5 -144.5q0 -77 -21.5 -140.5t-60.5 -108.5t-94.5 -69.5t-123.5 -24.5q-89 0 -153 32t-95 86l-19 -98h-191zM308 1109q0 -94 41.5 -144.5t118.5 -50.5q75 0 116.5 50 t41.5 146q0 102 -42 148.5t-116 46.5q-35 0 -64.5 -11.5t-50.5 -35.5t-33 -61t-12 -88z"/>
<glyph glyph-name="dsuperior" unicode="" horiz-adv-x="877" d="M595 786l-19 98q-31 -54 -94.5 -86t-153.5 -32q-69 0 -124.5 24.5t-94.5 69.5t-60 108.5t-21 140.5q0 81 21.5 145t60.5 108t94 67.5t123 23.5q41 0 79 -9t69.5 -24t55.5 -36t37 -45v355h218v-908h-191zM569 1109q0 51 -12 88t-33.5 61t-51 35.5t-64.5 11.5 q-73 0 -115 -46.5t-42 -148.5q0 -96 41.5 -146t116.5 -50q77 0 118.5 50.5t41.5 144.5z"/>
<glyph glyph-name="h.superior" horiz-adv-x="892" d="M595 786v340q0 32 -5 62t-18.5 53.5t-39 38t-65.5 14.5q-33 0 -62 -12t-51 -37t-34.5 -62t-12.5 -86v-311h-217v908h217v-373q31 64 96 98t153 34q74 0 123 -24t78.5 -65t42 -95.5t12.5 -116.5v-366h-217z"/>
<glyph glyph-name="isuperior" unicode="" horiz-adv-x="390" d="M85 786v647h219v-647h-219zM83 1513v174h223v-174h-223z"/>
<glyph glyph-name="lsuperior" unicode="" horiz-adv-x="398" d="M90 786v908h217v-908h-217z"/>
<glyph glyph-name="msuperior" unicode="" horiz-adv-x="1296" d="M1000 785v354q0 85 -26.5 119.5t-73.5 34.5q-30 0 -55.5 -16t-44.5 -43t-30 -63t-11 -76v-310h-216v352q0 46 -7 76t-20 48t-31 25t-40 7q-29 0 -54.5 -16t-44.5 -44t-30.5 -65.5t-11.5 -79.5v-303h-218v648h158l44 -164q8 20 27.5 51t51 60.5t75.5 50.5t102 21 q42 0 76.5 -14t60 -39.5t42 -60t22.5 -74.5q13 36 37.5 70t56.5 60t68.5 42t73.5 16q53 0 96.5 -15.5t74.5 -50.5t48 -91t17 -136v-374h-217z"/>
<glyph glyph-name="nsuperior" unicode="ⁿ" horiz-adv-x="888" d="M591 787v339q0 32 -5 62.5t-19 54t-38.5 38t-64.5 14.5q-33 0 -62 -15.5t-51 -43.5t-34.5 -68t-12.5 -89v-292h-218v646h158l44 -168q16 40 43 74.5t61.5 60t75 40t83.5 14.5q75 0 124.5 -24t79 -65t41.5 -96t12 -117v-365h-217z"/>
<glyph glyph-name="osuperior" unicode="" horiz-adv-x="822" d="M411 766q-82 0 -152 22t-121.5 65.5t-80.5 108t-29 148.5q0 83 29 147t80.5 107.5t121.5 66t152 22.5q81 0 151 -22.5t121.5 -66t80.5 -107.5t29 -147q0 -84 -29 -148.5t-80 -108t-121 -65.5t-152 -22zM411 914q75 0 117 47t42 149q0 101 -42 148t-117 47t-117.5 -47.5 t-42.5 -147.5q0 -101 42.5 -148.5t117.5 -47.5z"/>
<glyph glyph-name="rsuperior" unicode="" horiz-adv-x="759" d="M86 786v647h212v-126q10 32 29.5 58.5t46 46t59 30.5t68.5 11q61 0 103 -17t69 -44t41.5 -60.5t20.5 -67t5.5 -63t-3.5 -47.5l-172 -16q1 26 -1 55t-13.5 53t-35 40t-63.5 16q-41 0 -69 -19t-45.5 -50.5t-25.5 -71t-8 -80.5v-295h-218z"/>
<glyph glyph-name="ssuperior" unicode="" horiz-adv-x="715" d="M310 1046q-44 9 -92 21t-88.5 34.5t-66.5 59.5t-26 96q0 94 79 145t234 51q61 0 113.5 -10t92.5 -34t65.5 -64t32.5 -100l-171 -14q-12 50 -43 69t-95 19q-57 0 -80 -16.5t-23 -42.5q0 -32 39 -49.5t123 -32.5q77 -14 130.5 -31t86.5 -40t48 -54.5t15 -73.5 q0 -103 -82 -158t-248 -55q-75 0 -135 12.5t-103.5 39t-68.5 69t-30 102.5l183 9q8 -48 43 -73t110 -25q63 0 89 18t26 48q0 13 -6.5 24t-24 20.5t-48 18t-79.5 17.5z"/>
<glyph glyph-name="tsuperior" unicode="" horiz-adv-x="648" d="M631 1017q1 -41 -8 -85t-34.5 -81.5t-71 -61.5t-117.5 -24q-150 0 -215.5 69t-65.5 206v280h-126v112h76q41 0 58 24t17 61v110h191v-195h216v-112h-216v-298q0 -59 21 -82.5t58 -23.5q45 0 63 35t13 98z"/>
<glyph glyph-name="zero.fitted" d="M477 261l936 945q186 -239 186 -476q0 -135 -42.5 -256t-124.5 -213h-955zM337 238q-88 111 -133 233t-45 259q0 58 10 119.5t31 120.5t52.5 112t73.5 95h948zM400 180h960q-117 -93 -236.5 -137t-246.5 -44q-139 0 -258 48t-219 133zM1360 1263h-969q116 87 236.5 134.5 t249.5 47.5q74 0 137 -15t121 -40.5t113 -58.5z"/>
<glyph glyph-name="one.fitted" d="M477 261l936 945q186 -239 186 -476q0 -135 -42.5 -256t-124.5 -213h-955zM337 238q-88 111 -133 233t-45 259q0 58 10 119.5t31 120.5t52.5 112t73.5 95h948zM400 180h960q-117 -93 -236.5 -137t-246.5 -44q-139 0 -258 48t-219 133zM1360 1263h-969q116 87 236.5 134.5 t249.5 47.5q74 0 137 -15t121 -40.5t113 -58.5z"/>
<glyph glyph-name="two.fitted" d="M477 261l936 945q186 -239 186 -476q0 -135 -42.5 -256t-124.5 -213h-955zM337 238q-88 111 -133 233t-45 259q0 58 10 119.5t31 120.5t52.5 112t73.5 95h948zM400 180h960q-117 -93 -236.5 -137t-246.5 -44q-139 0 -258 48t-219 133zM1360 1263h-969q116 87 236.5 134.5 t249.5 47.5q74 0 137 -15t121 -40.5t113 -58.5z"/>
<glyph glyph-name="three.fitted" d="M477 261l936 945q186 -239 186 -476q0 -135 -42.5 -256t-124.5 -213h-955zM337 238q-88 111 -133 233t-45 259q0 58 10 119.5t31 120.5t52.5 112t73.5 95h948zM400 180h960q-117 -93 -236.5 -137t-246.5 -44q-139 0 -258 48t-219 133zM1360 1263h-969q116 87 236.5 134.5 t249.5 47.5q74 0 137 -15t121 -40.5t113 -58.5z"/>
<glyph glyph-name="four.fitted" d="M477 261l936 945q186 -239 186 -476q0 -135 -42.5 -256t-124.5 -213h-955zM337 238q-88 111 -133 233t-45 259q0 58 10 119.5t31 120.5t52.5 112t73.5 95h948zM400 180h960q-117 -93 -236.5 -137t-246.5 -44q-139 0 -258 48t-219 133zM1360 1263h-969q116 87 236.5 134.5 t249.5 47.5q74 0 137 -15t121 -40.5t113 -58.5z"/>
<glyph glyph-name="five.fitted" d="M477 261l936 945q186 -239 186 -476q0 -135 -42.5 -256t-124.5 -213h-955zM337 238q-88 111 -133 233t-45 259q0 58 10 119.5t31 120.5t52.5 112t73.5 95h948zM400 180h960q-117 -93 -236.5 -137t-246.5 -44q-139 0 -258 48t-219 133zM1360 1263h-969q116 87 236.5 134.5 t249.5 47.5q74 0 137 -15t121 -40.5t113 -58.5z"/>
<glyph glyph-name="six.fitted" d="M477 261l936 945q186 -239 186 -476q0 -135 -42.5 -256t-124.5 -213h-955zM337 238q-88 111 -133 233t-45 259q0 58 10 119.5t31 120.5t52.5 112t73.5 95h948zM400 180h960q-117 -93 -236.5 -137t-246.5 -44q-139 0 -258 48t-219 133zM1360 1263h-969q116 87 236.5 134.5 t249.5 47.5q74 0 137 -15t121 -40.5t113 -58.5z"/>
<glyph glyph-name="seven.fitted" d="M477 261l936 945q186 -239 186 -476q0 -135 -42.5 -256t-124.5 -213h-955zM337 238q-88 111 -133 233t-45 259q0 58 10 119.5t31 120.5t52.5 112t73.5 95h948zM400 180h960q-117 -93 -236.5 -137t-246.5 -44q-139 0 -258 48t-219 133zM1360 1263h-969q116 87 236.5 134.5 t249.5 47.5q74 0 137 -15t121 -40.5t113 -58.5z"/>
<glyph glyph-name="eight.fitted" d="M477 261l936 945q186 -239 186 -476q0 -135 -42.5 -256t-124.5 -213h-955zM337 238q-88 111 -133 233t-45 259q0 58 10 119.5t31 120.5t52.5 112t73.5 95h948zM400 180h960q-117 -93 -236.5 -137t-246.5 -44q-139 0 -258 48t-219 133zM1360 1263h-969q116 87 236.5 134.5 t249.5 47.5q74 0 137 -15t121 -40.5t113 -58.5z"/>
<glyph glyph-name="nine.fitted" d="M477 261l936 945q186 -239 186 -476q0 -135 -42.5 -256t-124.5 -213h-955zM337 238q-88 111 -133 233t-45 259q0 58 10 119.5t31 120.5t52.5 112t73.5 95h948zM400 180h960q-117 -93 -236.5 -137t-246.5 -44q-139 0 -258 48t-219 133zM1360 1263h-969q116 87 236.5 134.5 t249.5 47.5q74 0 137 -15t121 -40.5t113 -58.5z"/>
<glyph glyph-name="zerooldstyle" unicode="" d="M477 261l936 945q186 -239 186 -476q0 -135 -42.5 -256t-124.5 -213h-955zM337 238q-88 111 -133 233t-45 259q0 58 10 119.5t31 120.5t52.5 112t73.5 95h948zM400 180h960q-117 -93 -236.5 -137t-246.5 -44q-139 0 -258 48t-219 133zM1360 1263h-969q116 87 236.5 134.5 t249.5 47.5q74 0 137 -15t121 -40.5t113 -58.5z"/>
<glyph glyph-name="oneoldstyle" unicode="" d="M477 261l936 945q186 -239 186 -476q0 -135 -42.5 -256t-124.5 -213h-955zM337 238q-88 111 -133 233t-45 259q0 58 10 119.5t31 120.5t52.5 112t73.5 95h948zM400 180h960q-117 -93 -236.5 -137t-246.5 -44q-139 0 -258 48t-219 133zM1360 1263h-969q116 87 236.5 134.5 t249.5 47.5q74 0 137 -15t121 -40.5t113 -58.5z"/>
<glyph glyph-name="twooldstyle" unicode="" d="M477 261l936 945q186 -239 186 -476q0 -135 -42.5 -256t-124.5 -213h-955zM337 238q-88 111 -133 233t-45 259q0 58 10 119.5t31 120.5t52.5 112t73.5 95h948zM400 180h960q-117 -93 -236.5 -137t-246.5 -44q-139 0 -258 48t-219 133zM1360 1263h-969q116 87 236.5 134.5 t249.5 47.5q74 0 137 -15t121 -40.5t113 -58.5z"/>
<glyph glyph-name="threeoldstyle" unicode="" d="M477 261l936 945q186 -239 186 -476q0 -135 -42.5 -256t-124.5 -213h-955zM337 238q-88 111 -133 233t-45 259q0 58 10 119.5t31 120.5t52.5 112t73.5 95h948zM400 180h960q-117 -93 -236.5 -137t-246.5 -44q-139 0 -258 48t-219 133zM1360 1263h-969q116 87 236.5 134.5 t249.5 47.5q74 0 137 -15t121 -40.5t113 -58.5z"/>
<glyph glyph-name="fouroldstyle" unicode="" d="M477 261l936 945q186 -239 186 -476q0 -135 -42.5 -256t-124.5 -213h-955zM337 238q-88 111 -133 233t-45 259q0 58 10 119.5t31 120.5t52.5 112t73.5 95h948zM400 180h960q-117 -93 -236.5 -137t-246.5 -44q-139 0 -258 48t-219 133zM1360 1263h-969q116 87 236.5 134.5 t249.5 47.5q74 0 137 -15t121 -40.5t113 -58.5z"/>
<glyph glyph-name="fiveoldstyle" unicode="" d="M477 261l936 945q186 -239 186 -476q0 -135 -42.5 -256t-124.5 -213h-955zM337 238q-88 111 -133 233t-45 259q0 58 10 119.5t31 120.5t52.5 112t73.5 95h948zM400 180h960q-117 -93 -236.5 -137t-246.5 -44q-139 0 -258 48t-219 133zM1360 1263h-969q116 87 236.5 134.5 t249.5 47.5q74 0 137 -15t121 -40.5t113 -58.5z"/>
<glyph glyph-name="sixoldstyle" unicode="" d="M477 261l936 945q186 -239 186 -476q0 -135 -42.5 -256t-124.5 -213h-955zM337 238q-88 111 -133 233t-45 259q0 58 10 119.5t31 120.5t52.5 112t73.5 95h948zM400 180h960q-117 -93 -236.5 -137t-246.5 -44q-139 0 -258 48t-219 133zM1360 1263h-969q116 87 236.5 134.5 t249.5 47.5q74 0 137 -15t121 -40.5t113 -58.5z"/>
<glyph glyph-name="sevenoldstyle" unicode="" d="M477 261l936 945q186 -239 186 -476q0 -135 -42.5 -256t-124.5 -213h-955zM337 238q-88 111 -133 233t-45 259q0 58 10 119.5t31 120.5t52.5 112t73.5 95h948zM400 180h960q-117 -93 -236.5 -137t-246.5 -44q-139 0 -258 48t-219 133zM1360 1263h-969q116 87 236.5 134.5 t249.5 47.5q74 0 137 -15t121 -40.5t113 -58.5z"/>
<glyph glyph-name="eightoldstyle" unicode="" d="M477 261l936 945q186 -239 186 -476q0 -135 -42.5 -256t-124.5 -213h-955zM337 238q-88 111 -133 233t-45 259q0 58 10 119.5t31 120.5t52.5 112t73.5 95h948zM400 180h960q-117 -93 -236.5 -137t-246.5 -44q-139 0 -258 48t-219 133zM1360 1263h-969q116 87 236.5 134.5 t249.5 47.5q74 0 137 -15t121 -40.5t113 -58.5z"/>
<glyph glyph-name="nineoldstyle" unicode="" d="M477 261l936 945q186 -239 186 -476q0 -135 -42.5 -256t-124.5 -213h-955zM337 238q-88 111 -133 233t-45 259q0 58 10 119.5t31 120.5t52.5 112t73.5 95h948zM400 180h960q-117 -93 -236.5 -137t-246.5 -44q-139 0 -258 48t-219 133zM1360 1263h-969q116 87 236.5 134.5 t249.5 47.5q74 0 137 -15t121 -40.5t113 -58.5z"/>
<glyph glyph-name="centoldstyle" unicode="" horiz-adv-x="1258" d="M566 -185v157q-115 11 -207 52t-157 110t-100 164t-35 214q0 121 35.5 217.5t100.5 165.5t157.5 110t205.5 51v164h177v-167q350 -44 412 -381l-269 -32q-14 104 -70 155.5t-163 51.5q-130 0 -200 -88t-70 -246q0 -168 73 -251t202 -83q101 0 161.5 54.5t77.5 160.5 l272 -31q-28 -167 -133 -268.5t-293 -121.5v-158h-177z"/>
<glyph glyph-name="dollaroldstyle" unicode="" horiz-adv-x="1167" d="M511 432l-95.5 19.5t-96.5 25.5t-90 36.5t-75 54t-51 77t-19 105.5q0 135 106 215.5t309 91.5v164l177 1v-170q73 -9 136.5 -32t112 -62.5t80 -97t40.5 -136.5l-244 -21q-17 84 -74 123t-172 39q-96 0 -138.5 -31.5t-42.5 -80.5q0 -30 13 -50t44 -34.5t81.5 -26 t124.5 -25.5q121 -23 208 -50.5t142 -64t81 -84.5t26 -114q0 -142 -106.5 -228.5t-311.5 -103.5v-155h-177v154q-96 6 -173.5 28t-134.5 63.5t-92.5 103t-45.5 145.5l255 18q10 -41 30 -72t52 -52t79 -32t112 -11q58 0 99.5 9.5t67.5 26t38 40t12 51.5q0 24 -14 43t-47 35.5 t-88 32t-138 32.5z"/>
<glyph glyph-name="currency.taboldstyle" horiz-adv-x="1238" d="M1000 102l-127 129q-107 -60 -250 -60q-75 0 -141 16t-120 48l-128 -130l-149 134l124 127q-42 59 -61.5 130.5t-19.5 153.5q0 81 19.5 150t61.5 127l-124 126l149 136l127 -131q55 31 120.5 47.5t141.5 16.5q75 0 138 -15.5t117 -45.5l126 128l149 -136l-120 -123 q44 -60 63.5 -131t19.5 -156q0 -169 -86 -285l118 -122zM623 362q125 0 190.5 75t65.5 214q0 135 -67.5 205.5t-188.5 70.5q-125 0 -192.5 -73t-67.5 -213q0 -135 69 -207t191 -72z"/>
<glyph glyph-name="cent.taboldstyle" horiz-adv-x="1258" d="M583 -185v156q-116 9 -211 49t-163 109t-105 165.5t-37 217.5q0 124 36.5 222t104 167.5t162.5 109t213 46.5v163h177v-174q154 -32 248 -137t113 -271l-248 -63q-6 62 -21.5 111t-43 82.5t-68.5 51.5t-98 18q-121 0 -190 -83.5t-69 -241.5q0 -84 19.5 -145t55.5 -101 t88 -59t117 -19q100 0 161.5 52.5t83.5 142.5l246 -69q-15 -60 -46.5 -115t-80 -100.5t-115.5 -77.5t-152 -45v-162h-177z"/>
<glyph glyph-name="dollar.taboldstyle" horiz-adv-x="1167" d="M511 432l-95.5 19.5t-96.5 25.5t-90 36.5t-75 54t-51 77t-19 105.5q0 136 106 216t310 91v164l178 1v-170q73 -9 136 -32t111 -63t79.5 -97.5t40.5 -135.5l-244 -21q-17 84 -74 123t-172 39q-96 0 -138.5 -31.5t-42.5 -80.5q0 -30 13 -50t44 -34.5t81.5 -26t124.5 -25.5 q121 -23 208 -50.5t142 -64t81 -84.5t26 -114q0 -142 -105.5 -228.5t-310.5 -103.5v-155h-178v153q-96 6 -174 28t-135 63.5t-92.5 103t-45.5 146.5l255 18q10 -41 30 -72t52 -52t79 -32t112 -11q58 0 99.5 9.5t67.5 26t38 40t12 51.5q0 24 -14 43t-47 35.5t-88 32 t-138 32.5z"/>
<glyph glyph-name="Euro.taboldstyle" horiz-adv-x="1291" d="M1212 315q-17 -69 -56 -131.5t-102 -110.5t-150.5 -76.5t-199.5 -28.5q-110 0 -204 26.5t-166.5 78t-122.5 126t-71 170.5h-122l11 99h97q-1 11 -1 22v22v16t1 16h-108l11 98h108q19 100 66 177.5t118 130.5t164.5 81t204.5 28q103 0 188 -29t148 -83t102 -132t51 -177 l-248 -63q-6 62 -21.5 111t-43 82.5t-68.5 51.5t-98 18q-94 0 -157 -50t-88 -146h369l-12 -98h-372v-31q0 -12 0.5 -23t1.5 -22h382l-12 -99h-353q29 -94 96 -137t165 -43q100 0 162 52.5t84 142.5z"/>
<glyph glyph-name="zerosuperior" unicode="⁰" d="M477 261l936 945q186 -239 186 -476q0 -135 -42.5 -256t-124.5 -213h-955zM337 238q-88 111 -133 233t-45 259q0 58 10 119.5t31 120.5t52.5 112t73.5 95h948zM400 180h960q-117 -93 -236.5 -137t-246.5 -44q-139 0 -258 48t-219 133zM1360 1263h-969q116 87 236.5 134.5 t249.5 47.5q74 0 137 -15t121 -40.5t113 -58.5z"/>
<glyph glyph-name="onesuperior" unicode="¹" d="M477 261l936 945q186 -239 186 -476q0 -135 -42.5 -256t-124.5 -213h-955zM337 238q-88 111 -133 233t-45 259q0 58 10 119.5t31 120.5t52.5 112t73.5 95h948zM400 180h960q-117 -93 -236.5 -137t-246.5 -44q-139 0 -258 48t-219 133zM1360 1263h-969q116 87 236.5 134.5 t249.5 47.5q74 0 137 -15t121 -40.5t113 -58.5z"/>
<glyph glyph-name="twosuperior" unicode="²" d="M477 261l936 945q186 -239 186 -476q0 -135 -42.5 -256t-124.5 -213h-955zM337 238q-88 111 -133 233t-45 259q0 58 10 119.5t31 120.5t52.5 112t73.5 95h948zM400 180h960q-117 -93 -236.5 -137t-246.5 -44q-139 0 -258 48t-219 133zM1360 1263h-969q116 87 236.5 134.5 t249.5 47.5q74 0 137 -15t121 -40.5t113 -58.5z"/>
<glyph glyph-name="threesuperior" unicode="³" d="M477 261l936 945q186 -239 186 -476q0 -135 -42.5 -256t-124.5 -213h-955zM337 238q-88 111 -133 233t-45 259q0 58 10 119.5t31 120.5t52.5 112t73.5 95h948zM400 180h960q-117 -93 -236.5 -137t-246.5 -44q-139 0 -258 48t-219 133zM1360 1263h-969q116 87 236.5 134.5 t249.5 47.5q74 0 137 -15t121 -40.5t113 -58.5z"/>
<glyph glyph-name="foursuperior" unicode="⁴" d="M477 261l936 945q186 -239 186 -476q0 -135 -42.5 -256t-124.5 -213h-955zM337 238q-88 111 -133 233t-45 259q0 58 10 119.5t31 120.5t52.5 112t73.5 95h948zM400 180h960q-117 -93 -236.5 -137t-246.5 -44q-139 0 -258 48t-219 133zM1360 1263h-969q116 87 236.5 134.5 t249.5 47.5q74 0 137 -15t121 -40.5t113 -58.5z"/>
<glyph glyph-name="fivesuperior" unicode="⁵" d="M477 261l936 945q186 -239 186 -476q0 -135 -42.5 -256t-124.5 -213h-955zM337 238q-88 111 -133 233t-45 259q0 58 10 119.5t31 120.5t52.5 112t73.5 95h948zM400 180h960q-117 -93 -236.5 -137t-246.5 -44q-139 0 -258 48t-219 133zM1360 1263h-969q116 87 236.5 134.5 t249.5 47.5q74 0 137 -15t121 -40.5t113 -58.5z"/>
<glyph glyph-name="sixsuperior" unicode="⁶" d="M477 261l936 945q186 -239 186 -476q0 -135 -42.5 -256t-124.5 -213h-955zM337 238q-88 111 -133 233t-45 259q0 58 10 119.5t31 120.5t52.5 112t73.5 95h948zM400 180h960q-117 -93 -236.5 -137t-246.5 -44q-139 0 -258 48t-219 133zM1360 1263h-969q116 87 236.5 134.5 t249.5 47.5q74 0 137 -15t121 -40.5t113 -58.5z"/>
<glyph glyph-name="sevensuperior" unicode="⁷" d="M477 261l936 945q186 -239 186 -476q0 -135 -42.5 -256t-124.5 -213h-955zM337 238q-88 111 -133 233t-45 259q0 58 10 119.5t31 120.5t52.5 112t73.5 95h948zM400 180h960q-117 -93 -236.5 -137t-246.5 -44q-139 0 -258 48t-219 133zM1360 1263h-969q116 87 236.5 134.5 t249.5 47.5q74 0 137 -15t121 -40.5t113 -58.5z"/>
<glyph glyph-name="eightsuperior" unicode="⁸" d="M477 261l936 945q186 -239 186 -476q0 -135 -42.5 -256t-124.5 -213h-955zM337 238q-88 111 -133 233t-45 259q0 58 10 119.5t31 120.5t52.5 112t73.5 95h948zM400 180h960q-117 -93 -236.5 -137t-246.5 -44q-139 0 -258 48t-219 133zM1360 1263h-969q116 87 236.5 134.5 t249.5 47.5q74 0 137 -15t121 -40.5t113 -58.5z"/>
<glyph glyph-name="ninesuperior" unicode="⁹" d="M477 261l936 945q186 -239 186 -476q0 -135 -42.5 -256t-124.5 -213h-955zM337 238q-88 111 -133 233t-45 259q0 58 10 119.5t31 120.5t52.5 112t73.5 95h948zM400 180h960q-117 -93 -236.5 -137t-246.5 -44q-139 0 -258 48t-219 133zM1360 1263h-969q116 87 236.5 134.5 t249.5 47.5q74 0 137 -15t121 -40.5t113 -58.5z"/>
<glyph glyph-name="parenleftsuperior" unicode="⁽" horiz-adv-x="413" d="M232 664q-85 103 -130.5 225.5t-45.5 252.5q0 129 45.5 251.5t130.5 222.5l171 -31q-76 -105 -111.5 -215t-35.5 -230t36.5 -228.5t112.5 -214.5z"/>
<glyph glyph-name="parenrightsuperior" unicode="⁾" horiz-adv-x="414" d="M8 696q75 106 112 215t37 229t-35.5 230t-112.5 215l171 31q84 -100 130.5 -222.5t46.5 -251.5q0 -130 -46 -252.5t-129 -227.5z"/>
<glyph glyph-name="hyphensuperior" unicode="" horiz-adv-x="512" d="M43 998v166h426v-166h-426z"/>
<glyph glyph-name="commasuperior" unicode="" horiz-adv-x="314" d="M56 705q46 14 61 39t13 62h-73v178h203v-168q0 -31 -9.5 -62.5t-31.5 -58t-57.5 -45.5t-87.5 -25z"/>
<glyph glyph-name="periodsuperior" unicode="" horiz-adv-x="317" d="M59 806v195h199v-195h-199z"/>
<glyph glyph-name="zero.taboldstyle" d="M477 261l936 945q186 -239 186 -476q0 -135 -42.5 -256t-124.5 -213h-955zM337 238q-88 111 -133 233t-45 259q0 58 10 119.5t31 120.5t52.5 112t73.5 95h948zM400 180h960q-117 -93 -236.5 -137t-246.5 -44q-139 0 -258 48t-219 133zM1360 1263h-969q116 87 236.5 134.5 t249.5 47.5q74 0 137 -15t121 -40.5t113 -58.5z"/>
<glyph glyph-name="one.taboldstyle" d="M477 261l936 945q186 -239 186 -476q0 -135 -42.5 -256t-124.5 -213h-955zM337 238q-88 111 -133 233t-45 259q0 58 10 119.5t31 120.5t52.5 112t73.5 95h948zM400 180h960q-117 -93 -236.5 -137t-246.5 -44q-139 0 -258 48t-219 133zM1360 1263h-969q116 87 236.5 134.5 t249.5 47.5q74 0 137 -15t121 -40.5t113 -58.5z"/>
<glyph glyph-name="two.taboldstyle" d="M477 261l936 945q186 -239 186 -476q0 -135 -42.5 -256t-124.5 -213h-955zM337 238q-88 111 -133 233t-45 259q0 58 10 119.5t31 120.5t52.5 112t73.5 95h948zM400 180h960q-117 -93 -236.5 -137t-246.5 -44q-139 0 -258 48t-219 133zM1360 1263h-969q116 87 236.5 134.5 t249.5 47.5q74 0 137 -15t121 -40.5t113 -58.5z"/>
<glyph glyph-name="three.taboldstyle" d="M477 261l936 945q186 -239 186 -476q0 -135 -42.5 -256t-124.5 -213h-955zM337 238q-88 111 -133 233t-45 259q0 58 10 119.5t31 120.5t52.5 112t73.5 95h948zM400 180h960q-117 -93 -236.5 -137t-246.5 -44q-139 0 -258 48t-219 133zM1360 1263h-969q116 87 236.5 134.5 t249.5 47.5q74 0 137 -15t121 -40.5t113 -58.5z"/>
<glyph glyph-name="four.taboldstyle" d="M477 261l936 945q186 -239 186 -476q0 -135 -42.5 -256t-124.5 -213h-955zM337 238q-88 111 -133 233t-45 259q0 58 10 119.5t31 120.5t52.5 112t73.5 95h948zM400 180h960q-117 -93 -236.5 -137t-246.5 -44q-139 0 -258 48t-219 133zM1360 1263h-969q116 87 236.5 134.5 t249.5 47.5q74 0 137 -15t121 -40.5t113 -58.5z"/>
<glyph glyph-name="five.taboldstyle" d="M477 261l936 945q186 -239 186 -476q0 -135 -42.5 -256t-124.5 -213h-955zM337 238q-88 111 -133 233t-45 259q0 58 10 119.5t31 120.5t52.5 112t73.5 95h948zM400 180h960q-117 -93 -236.5 -137t-246.5 -44q-139 0 -258 48t-219 133zM1360 1263h-969q116 87 236.5 134.5 t249.5 47.5q74 0 137 -15t121 -40.5t113 -58.5z"/>
<glyph glyph-name="six.taboldstyle" d="M477 261l936 945q186 -239 186 -476q0 -135 -42.5 -256t-124.5 -213h-955zM337 238q-88 111 -133 233t-45 259q0 58 10 119.5t31 120.5t52.5 112t73.5 95h948zM400 180h960q-117 -93 -236.5 -137t-246.5 -44q-139 0 -258 48t-219 133zM1360 1263h-969q116 87 236.5 134.5 t249.5 47.5q74 0 137 -15t121 -40.5t113 -58.5z"/>
<glyph glyph-name="seven.taboldstyle" d="M477 261l936 945q186 -239 186 -476q0 -135 -42.5 -256t-124.5 -213h-955zM337 238q-88 111 -133 233t-45 259q0 58 10 119.5t31 120.5t52.5 112t73.5 95h948zM400 180h960q-117 -93 -236.5 -137t-246.5 -44q-139 0 -258 48t-219 133zM1360 1263h-969q116 87 236.5 134.5 t249.5 47.5q74 0 137 -15t121 -40.5t113 -58.5z"/>
<glyph glyph-name="eight.taboldstyle" d="M477 261l936 945q186 -239 186 -476q0 -135 -42.5 -256t-124.5 -213h-955zM337 238q-88 111 -133 233t-45 259q0 58 10 119.5t31 120.5t52.5 112t73.5 95h948zM400 180h960q-117 -93 -236.5 -137t-246.5 -44q-139 0 -258 48t-219 133zM1360 1263h-969q116 87 236.5 134.5 t249.5 47.5q74 0 137 -15t121 -40.5t113 -58.5z"/>
<glyph glyph-name="nine.taboldstyle" d="M477 261l936 945q186 -239 186 -476q0 -135 -42.5 -256t-124.5 -213h-955zM337 238q-88 111 -133 233t-45 259q0 58 10 119.5t31 120.5t52.5 112t73.5 95h948zM400 180h960q-117 -93 -236.5 -137t-246.5 -44q-139 0 -258 48t-219 133zM1360 1263h-969q116 87 236.5 134.5 t249.5 47.5q74 0 137 -15t121 -40.5t113 -58.5z"/>
<glyph glyph-name="centsuperior" unicode="" horiz-adv-x="703" d="M306 708v84q-62 7 -112.5 29t-86 58.5t-54.5 86.5t-19 113t19.5 113.5t55.5 87t86 58.5t111 28v85h114v-87q192 -25 226 -208l-177 -20q-8 48 -30.5 71.5t-73.5 23.5q-58 0 -90 -39t-32 -112q0 -80 32.5 -116.5t92.5 -36.5q46 0 72.5 25t34.5 73l179 -20 q-16 -90 -72 -145t-162 -68v-84h-114z"/>
<glyph glyph-name="dollarsuperior" unicode="" horiz-adv-x="781" d="M365 692v93q-77 3 -135.5 24t-99 54t-63 75.5t-27.5 88.5l161 59q10 -65 50.5 -103.5t113.5 -43.5v179l-52 16q-49 16 -92 37t-74.5 48t-49.5 62t-18 79q0 53 20 94t57.5 69.5t90.5 43.5t118 17v78h64v-79q50 -5 95 -20.5t82 -40.5t64 -59t40 -76l-159 -59 q-6 24 -19 41.5t-29.5 30t-35.5 20t-38 10.5v-152l51 -16q60 -19 106 -40t77.5 -48.5t47.5 -63t16 -84.5q0 -54 -21.5 -96.5t-60.5 -73t-94 -48.5t-122 -22v-94h-64zM520 1015q0 32 -22 49t-69 34v-158q52 8 71.5 29.5t19.5 45.5zM277 1369q0 -30 25 -45t63 -27v134 q-48 -5 -68 -21.5t-20 -40.5z"/>
<glyph glyph-name="zeroinferior" unicode="₀" d="M477 261l936 945q186 -239 186 -476q0 -135 -42.5 -256t-124.5 -213h-955zM337 238q-88 111 -133 233t-45 259q0 58 10 119.5t31 120.5t52.5 112t73.5 95h948zM400 180h960q-117 -93 -236.5 -137t-246.5 -44q-139 0 -258 48t-219 133zM1360 1263h-969q116 87 236.5 134.5 t249.5 47.5q74 0 137 -15t121 -40.5t113 -58.5z"/>
<glyph glyph-name="oneinferior" unicode="₁" d="M477 261l936 945q186 -239 186 -476q0 -135 -42.5 -256t-124.5 -213h-955zM337 238q-88 111 -133 233t-45 259q0 58 10 119.5t31 120.5t52.5 112t73.5 95h948zM400 180h960q-117 -93 -236.5 -137t-246.5 -44q-139 0 -258 48t-219 133zM1360 1263h-969q116 87 236.5 134.5 t249.5 47.5q74 0 137 -15t121 -40.5t113 -58.5z"/>
<glyph glyph-name="twoinferior" unicode="₂" d="M477 261l936 945q186 -239 186 -476q0 -135 -42.5 -256t-124.5 -213h-955zM337 238q-88 111 -133 233t-45 259q0 58 10 119.5t31 120.5t52.5 112t73.5 95h948zM400 180h960q-117 -93 -236.5 -137t-246.5 -44q-139 0 -258 48t-219 133zM1360 1263h-969q116 87 236.5 134.5 t249.5 47.5q74 0 137 -15t121 -40.5t113 -58.5z"/>
<glyph glyph-name="threeinferior" unicode="₃" d="M477 261l936 945q186 -239 186 -476q0 -135 -42.5 -256t-124.5 -213h-955zM337 238q-88 111 -133 233t-45 259q0 58 10 119.5t31 120.5t52.5 112t73.5 95h948zM400 180h960q-117 -93 -236.5 -137t-246.5 -44q-139 0 -258 48t-219 133zM1360 1263h-969q116 87 236.5 134.5 t249.5 47.5q74 0 137 -15t121 -40.5t113 -58.5z"/>
<glyph glyph-name="fourinferior" unicode="₄" d="M477 261l936 945q186 -239 186 -476q0 -135 -42.5 -256t-124.5 -213h-955zM337 238q-88 111 -133 233t-45 259q0 58 10 119.5t31 120.5t52.5 112t73.5 95h948zM400 180h960q-117 -93 -236.5 -137t-246.5 -44q-139 0 -258 48t-219 133zM1360 1263h-969q116 87 236.5 134.5 t249.5 47.5q74 0 137 -15t121 -40.5t113 -58.5z"/>
<glyph glyph-name="fiveinferior" unicode="₅" d="M477 261l936 945q186 -239 186 -476q0 -135 -42.5 -256t-124.5 -213h-955zM337 238q-88 111 -133 233t-45 259q0 58 10 119.5t31 120.5t52.5 112t73.5 95h948zM400 180h960q-117 -93 -236.5 -137t-246.5 -44q-139 0 -258 48t-219 133zM1360 1263h-969q116 87 236.5 134.5 t249.5 47.5q74 0 137 -15t121 -40.5t113 -58.5z"/>
<glyph glyph-name="sixinferior" unicode="₆" d="M477 261l936 945q186 -239 186 -476q0 -135 -42.5 -256t-124.5 -213h-955zM337 238q-88 111 -133 233t-45 259q0 58 10 119.5t31 120.5t52.5 112t73.5 95h948zM400 180h960q-117 -93 -236.5 -137t-246.5 -44q-139 0 -258 48t-219 133zM1360 1263h-969q116 87 236.5 134.5 t249.5 47.5q74 0 137 -15t121 -40.5t113 -58.5z"/>
<glyph glyph-name="seveninferior" unicode="₇" d="M477 261l936 945q186 -239 186 -476q0 -135 -42.5 -256t-124.5 -213h-955zM337 238q-88 111 -133 233t-45 259q0 58 10 119.5t31 120.5t52.5 112t73.5 95h948zM400 180h960q-117 -93 -236.5 -137t-246.5 -44q-139 0 -258 48t-219 133zM1360 1263h-969q116 87 236.5 134.5 t249.5 47.5q74 0 137 -15t121 -40.5t113 -58.5z"/>
<glyph glyph-name="eightinferior" unicode="₈" d="M477 261l936 945q186 -239 186 -476q0 -135 -42.5 -256t-124.5 -213h-955zM337 238q-88 111 -133 233t-45 259q0 58 10 119.5t31 120.5t52.5 112t73.5 95h948zM400 180h960q-117 -93 -236.5 -137t-246.5 -44q-139 0 -258 48t-219 133zM1360 1263h-969q116 87 236.5 134.5 t249.5 47.5q74 0 137 -15t121 -40.5t113 -58.5z"/>
<glyph glyph-name="nineinferior" unicode="₉" d="M477 261l936 945q186 -239 186 -476q0 -135 -42.5 -256t-124.5 -213h-955zM337 238q-88 111 -133 233t-45 259q0 58 10 119.5t31 120.5t52.5 112t73.5 95h948zM400 180h960q-117 -93 -236.5 -137t-246.5 -44q-139 0 -258 48t-219 133zM1360 1263h-969q116 87 236.5 134.5 t249.5 47.5q74 0 137 -15t121 -40.5t113 -58.5z"/>
<glyph glyph-name="parenleftinferior" unicode="₍" horiz-adv-x="413" d="M232 -254q-85 103 -130.5 225.5t-45.5 252.5q0 129 45.5 251.5t130.5 222.5l171 -31q-76 -105 -111.5 -215t-35.5 -230t36.5 -228.5t112.5 -214.5z"/>
<glyph glyph-name="parenrightinferior" unicode="₎" horiz-adv-x="414" d="M8 -222q75 106 112 215t37 229t-35.5 230t-112.5 215l171 31q84 -100 130.5 -222.5t46.5 -251.5q0 -130 -46 -252.5t-129 -227.5z"/>
<glyph glyph-name="hypheninferior" unicode="" horiz-adv-x="512" d="M43 80v166h426v-166h-426z"/>
<glyph glyph-name="commainferior" unicode="" horiz-adv-x="314" d="M56 -213q46 14 61 39t13 62h-73v178h203v-168q0 -31 -9.5 -62.5t-31.5 -58t-57.5 -45.5t-87.5 -25z"/>
<glyph glyph-name="periodinferior" unicode="" horiz-adv-x="317" d="M59 -112v195h199v-195h-199z"/>
<glyph glyph-name="centinferior" unicode="" horiz-adv-x="703" d="M306 -210v84q-62 7 -112.5 29t-86 58.5t-54.5 86.5t-19 113t19.5 113.5t55.5 87t86 58.5t111 28v85h114v-87q192 -25 226 -208l-177 -20q-8 48 -30.5 71.5t-73.5 23.5q-58 0 -90 -39t-32 -112q0 -80 32.5 -116.5t92.5 -36.5q46 0 72.5 25t34.5 73l179 -20 q-16 -90 -72 -145t-162 -68v-84h-114z"/>
<glyph glyph-name="dollarinferior" unicode="" horiz-adv-x="781" d="M365 -226v93q-77 3 -135.5 24t-99 54t-63 75.5t-27.5 88.5l161 59q10 -65 50.5 -103.5t113.5 -43.5v179l-52 16q-49 16 -92 37t-74.5 48t-49.5 62t-18 79q0 53 20 94t57.5 69.5t90.5 43.5t118 17v78h64v-79q50 -5 95 -20.5t82 -40.5t64 -59t40 -76l-159 -59 q-6 24 -19 41.5t-29.5 30t-35.5 20t-38 10.5v-152l51 -16q60 -19 106 -40t77.5 -48.5t47.5 -63t16 -84.5q0 -54 -21.5 -96.5t-60.5 -73t-94 -48.5t-122 -22v-94h-64zM520 97q0 32 -22 49t-69 34v-158q52 8 71.5 29.5t19.5 45.5zM277 451q0 -30 25 -45t63 -27v134 q-48 -5 -68 -21.5t-20 -40.5z"/>
<glyph glyph-name="zero.denominator" d="M477 261l936 945q186 -239 186 -476q0 -135 -42.5 -256t-124.5 -213h-955zM337 238q-88 111 -133 233t-45 259q0 58 10 119.5t31 120.5t52.5 112t73.5 95h948zM400 180h960q-117 -93 -236.5 -137t-246.5 -44q-139 0 -258 48t-219 133zM1360 1263h-969q116 87 236.5 134.5 t249.5 47.5q74 0 137 -15t121 -40.5t113 -58.5z"/>
<glyph glyph-name="one.denominator" d="M477 261l936 945q186 -239 186 -476q0 -135 -42.5 -256t-124.5 -213h-955zM337 238q-88 111 -133 233t-45 259q0 58 10 119.5t31 120.5t52.5 112t73.5 95h948zM400 180h960q-117 -93 -236.5 -137t-246.5 -44q-139 0 -258 48t-219 133zM1360 1263h-969q116 87 236.5 134.5 t249.5 47.5q74 0 137 -15t121 -40.5t113 -58.5z"/>
<glyph glyph-name="two.denominator" d="M477 261l936 945q186 -239 186 -476q0 -135 -42.5 -256t-124.5 -213h-955zM337 238q-88 111 -133 233t-45 259q0 58 10 119.5t31 120.5t52.5 112t73.5 95h948zM400 180h960q-117 -93 -236.5 -137t-246.5 -44q-139 0 -258 48t-219 133zM1360 1263h-969q116 87 236.5 134.5 t249.5 47.5q74 0 137 -15t121 -40.5t113 -58.5z"/>
<glyph glyph-name="three.denominator" d="M477 261l936 945q186 -239 186 -476q0 -135 -42.5 -256t-124.5 -213h-955zM337 238q-88 111 -133 233t-45 259q0 58 10 119.5t31 120.5t52.5 112t73.5 95h948zM400 180h960q-117 -93 -236.5 -137t-246.5 -44q-139 0 -258 48t-219 133zM1360 1263h-969q116 87 236.5 134.5 t249.5 47.5q74 0 137 -15t121 -40.5t113 -58.5z"/>
<glyph glyph-name="four.denominator" d="M477 261l936 945q186 -239 186 -476q0 -135 -42.5 -256t-124.5 -213h-955zM337 238q-88 111 -133 233t-45 259q0 58 10 119.5t31 120.5t52.5 112t73.5 95h948zM400 180h960q-117 -93 -236.5 -137t-246.5 -44q-139 0 -258 48t-219 133zM1360 1263h-969q116 87 236.5 134.5 t249.5 47.5q74 0 137 -15t121 -40.5t113 -58.5z"/>
<glyph glyph-name="five.denominator" d="M477 261l936 945q186 -239 186 -476q0 -135 -42.5 -256t-124.5 -213h-955zM337 238q-88 111 -133 233t-45 259q0 58 10 119.5t31 120.5t52.5 112t73.5 95h948zM400 180h960q-117 -93 -236.5 -137t-246.5 -44q-139 0 -258 48t-219 133zM1360 1263h-969q116 87 236.5 134.5 t249.5 47.5q74 0 137 -15t121 -40.5t113 -58.5z"/>
<glyph glyph-name="six.denominator" d="M477 261l936 945q186 -239 186 -476q0 -135 -42.5 -256t-124.5 -213h-955zM337 238q-88 111 -133 233t-45 259q0 58 10 119.5t31 120.5t52.5 112t73.5 95h948zM400 180h960q-117 -93 -236.5 -137t-246.5 -44q-139 0 -258 48t-219 133zM1360 1263h-969q116 87 236.5 134.5 t249.5 47.5q74 0 137 -15t121 -40.5t113 -58.5z"/>
<glyph glyph-name="seven.denominator" d="M477 261l936 945q186 -239 186 -476q0 -135 -42.5 -256t-124.5 -213h-955zM337 238q-88 111 -133 233t-45 259q0 58 10 119.5t31 120.5t52.5 112t73.5 95h948zM400 180h960q-117 -93 -236.5 -137t-246.5 -44q-139 0 -258 48t-219 133zM1360 1263h-969q116 87 236.5 134.5 t249.5 47.5q74 0 137 -15t121 -40.5t113 -58.5z"/>
<glyph glyph-name="eight.denominator" d="M477 261l936 945q186 -239 186 -476q0 -135 -42.5 -256t-124.5 -213h-955zM337 238q-88 111 -133 233t-45 259q0 58 10 119.5t31 120.5t52.5 112t73.5 95h948zM400 180h960q-117 -93 -236.5 -137t-246.5 -44q-139 0 -258 48t-219 133zM1360 1263h-969q116 87 236.5 134.5 t249.5 47.5q74 0 137 -15t121 -40.5t113 -58.5z"/>
<glyph glyph-name="nine.denominator" d="M477 261l936 945q186 -239 186 -476q0 -135 -42.5 -256t-124.5 -213h-955zM337 238q-88 111 -133 233t-45 259q0 58 10 119.5t31 120.5t52.5 112t73.5 95h948zM400 180h960q-117 -93 -236.5 -137t-246.5 -44q-139 0 -258 48t-219 133zM1360 1263h-969q116 87 236.5 134.5 t249.5 47.5q74 0 137 -15t121 -40.5t113 -58.5z"/>
<glyph glyph-name="parenleft.denominator" horiz-adv-x="413" d="M232 -142q-85 103 -130.5 225.5t-45.5 252.5q0 129 45.5 251.5t130.5 222.5l171 -31q-76 -105 -111.5 -215t-35.5 -230t36.5 -228.5t112.5 -214.5z"/>
<glyph glyph-name="parenright.denominator" horiz-adv-x="414" d="M8 -110q75 106 112 215t37 229t-35.5 230t-112.5 215l171 31q84 -100 130.5 -222.5t46.5 -251.5q0 -130 -46 -252.5t-129 -227.5z"/>
<glyph glyph-name="cent.denominator" horiz-adv-x="703" d="M306 -98v84q-62 7 -112.5 29t-86 58.5t-54.5 86.5t-19 113t19.5 113.5t55.5 87t86 58.5t111 28v85h114v-87q192 -25 226 -208l-177 -20q-8 48 -30.5 71.5t-73.5 23.5q-58 0 -90 -39t-32 -112q0 -80 32.5 -116.5t92.5 -36.5q46 0 72.5 25t34.5 73l179 -20 q-16 -90 -72 -145t-162 -68v-84h-114z"/>
<glyph glyph-name="dollar.denominator" horiz-adv-x="781" d="M365 -114v93q-77 3 -135.5 24t-99 54t-63 75.5t-27.5 88.5l161 59q10 -65 50.5 -103.5t113.5 -43.5v179l-52 16q-49 16 -92 37t-74.5 48t-49.5 62t-18 79q0 53 20 94t57.5 69.5t90.5 43.5t118 17v78h64v-79q50 -5 95 -20.5t82 -40.5t64 -59t40 -76l-159 -59 q-6 24 -19 41.5t-29.5 30t-35.5 20t-38 10.5v-152l51 -16q60 -19 106 -40t77.5 -48.5t47.5 -63t16 -84.5q0 -54 -21.5 -96.5t-60.5 -73t-94 -48.5t-122 -22v-94h-64zM520 209q0 32 -22 49t-69 34v-158q52 8 71.5 29.5t19.5 45.5zM277 563q0 -30 25 -45t63 -27v134 q-48 -5 -68 -21.5t-20 -40.5z"/>
<glyph glyph-name="hyphen.denominator" horiz-adv-x="512" d="M43 192v166h426v-166h-426z"/>
<glyph glyph-name="comma.denominator" horiz-adv-x="314" d="M56 -101q46 14 61 39t13 62h-73v178h203v-168q0 -31 -9.5 -62.5t-31.5 -58t-57.5 -45.5t-87.5 -25z"/>
<glyph glyph-name="period.denominator" horiz-adv-x="317" d="M59 0v195h199v-195h-199z"/>
<glyph glyph-name="zero.numerator" d="M477 261l936 945q186 -239 186 -476q0 -135 -42.5 -256t-124.5 -213h-955zM337 238q-88 111 -133 233t-45 259q0 58 10 119.5t31 120.5t52.5 112t73.5 95h948zM400 180h960q-117 -93 -236.5 -137t-246.5 -44q-139 0 -258 48t-219 133zM1360 1263h-969q116 87 236.5 134.5 t249.5 47.5q74 0 137 -15t121 -40.5t113 -58.5z"/>
<glyph glyph-name="one.numerator" d="M477 261l936 945q186 -239 186 -476q0 -135 -42.5 -256t-124.5 -213h-955zM337 238q-88 111 -133 233t-45 259q0 58 10 119.5t31 120.5t52.5 112t73.5 95h948zM400 180h960q-117 -93 -236.5 -137t-246.5 -44q-139 0 -258 48t-219 133zM1360 1263h-969q116 87 236.5 134.5 t249.5 47.5q74 0 137 -15t121 -40.5t113 -58.5z"/>
<glyph glyph-name="two.numerator" d="M477 261l936 945q186 -239 186 -476q0 -135 -42.5 -256t-124.5 -213h-955zM337 238q-88 111 -133 233t-45 259q0 58 10 119.5t31 120.5t52.5 112t73.5 95h948zM400 180h960q-117 -93 -236.5 -137t-246.5 -44q-139 0 -258 48t-219 133zM1360 1263h-969q116 87 236.5 134.5 t249.5 47.5q74 0 137 -15t121 -40.5t113 -58.5z"/>
<glyph glyph-name="three.numerator" d="M477 261l936 945q186 -239 186 -476q0 -135 -42.5 -256t-124.5 -213h-955zM337 238q-88 111 -133 233t-45 259q0 58 10 119.5t31 120.5t52.5 112t73.5 95h948zM400 180h960q-117 -93 -236.5 -137t-246.5 -44q-139 0 -258 48t-219 133zM1360 1263h-969q116 87 236.5 134.5 t249.5 47.5q74 0 137 -15t121 -40.5t113 -58.5z"/>
<glyph glyph-name="four.numerator" d="M477 261l936 945q186 -239 186 -476q0 -135 -42.5 -256t-124.5 -213h-955zM337 238q-88 111 -133 233t-45 259q0 58 10 119.5t31 120.5t52.5 112t73.5 95h948zM400 180h960q-117 -93 -236.5 -137t-246.5 -44q-139 0 -258 48t-219 133zM1360 1263h-969q116 87 236.5 134.5 t249.5 47.5q74 0 137 -15t121 -40.5t113 -58.5z"/>
<glyph glyph-name="five.numerator" d="M477 261l936 945q186 -239 186 -476q0 -135 -42.5 -256t-124.5 -213h-955zM337 238q-88 111 -133 233t-45 259q0 58 10 119.5t31 120.5t52.5 112t73.5 95h948zM400 180h960q-117 -93 -236.5 -137t-246.5 -44q-139 0 -258 48t-219 133zM1360 1263h-969q116 87 236.5 134.5 t249.5 47.5q74 0 137 -15t121 -40.5t113 -58.5z"/>
<glyph glyph-name="six.numerator" d="M477 261l936 945q186 -239 186 -476q0 -135 -42.5 -256t-124.5 -213h-955zM337 238q-88 111 -133 233t-45 259q0 58 10 119.5t31 120.5t52.5 112t73.5 95h948zM400 180h960q-117 -93 -236.5 -137t-246.5 -44q-139 0 -258 48t-219 133zM1360 1263h-969q116 87 236.5 134.5 t249.5 47.5q74 0 137 -15t121 -40.5t113 -58.5z"/>
<glyph glyph-name="seven.numerator" d="M477 261l936 945q186 -239 186 -476q0 -135 -42.5 -256t-124.5 -213h-955zM337 238q-88 111 -133 233t-45 259q0 58 10 119.5t31 120.5t52.5 112t73.5 95h948zM400 180h960q-117 -93 -236.5 -137t-246.5 -44q-139 0 -258 48t-219 133zM1360 1263h-969q116 87 236.5 134.5 t249.5 47.5q74 0 137 -15t121 -40.5t113 -58.5z"/>
<glyph glyph-name="eight.numerator" d="M477 261l936 945q186 -239 186 -476q0 -135 -42.5 -256t-124.5 -213h-955zM337 238q-88 111 -133 233t-45 259q0 58 10 119.5t31 120.5t52.5 112t73.5 95h948zM400 180h960q-117 -93 -236.5 -137t-246.5 -44q-139 0 -258 48t-219 133zM1360 1263h-969q116 87 236.5 134.5 t249.5 47.5q74 0 137 -15t121 -40.5t113 -58.5z"/>
<glyph glyph-name="nine.numerator" d="M477 261l936 945q186 -239 186 -476q0 -135 -42.5 -256t-124.5 -213h-955zM337 238q-88 111 -133 233t-45 259q0 58 10 119.5t31 120.5t52.5 112t73.5 95h948zM400 180h960q-117 -93 -236.5 -137t-246.5 -44q-139 0 -258 48t-219 133zM1360 1263h-969q116 87 236.5 134.5 t249.5 47.5q74 0 137 -15t121 -40.5t113 -58.5z"/>
<glyph glyph-name="parenleft.numerator" horiz-adv-x="413" d="M232 552q-85 103 -130.5 225.5t-45.5 252.5q0 129 45.5 251.5t130.5 222.5l171 -31q-76 -105 -111.5 -215t-35.5 -230t36.5 -228.5t112.5 -214.5z"/>
<glyph glyph-name="parenright.numerator" horiz-adv-x="414" d="M8 584q75 106 112 215t37 229t-35.5 230t-112.5 215l171 31q84 -100 130.5 -222.5t46.5 -251.5q0 -130 -46 -252.5t-129 -227.5z"/>
<glyph glyph-name="cent.numerator" horiz-adv-x="703" d="M306 596v84q-62 7 -112.5 29t-86 58.5t-54.5 86.5t-19 113t19.5 113.5t55.5 87t86 58.5t111 28v85h114v-87q192 -25 226 -208l-177 -20q-8 48 -30.5 71.5t-73.5 23.5q-58 0 -90 -39t-32 -112q0 -80 32.5 -116.5t92.5 -36.5q46 0 72.5 25t34.5 73l179 -20 q-16 -90 -72 -145t-162 -68v-84h-114z"/>
<glyph glyph-name="dollar.numerator" horiz-adv-x="781" d="M365 580v93q-77 3 -135.5 24t-99 54t-63 75.5t-27.5 88.5l161 59q10 -65 50.5 -103.5t113.5 -43.5v179l-52 16q-49 16 -92 37t-74.5 48t-49.5 62t-18 79q0 53 20 94t57.5 69.5t90.5 43.5t118 17v78h64v-79q50 -5 95 -20.5t82 -40.5t64 -59t40 -76l-159 -59 q-6 24 -19 41.5t-29.5 30t-35.5 20t-38 10.5v-152l51 -16q60 -19 106 -40t77.5 -48.5t47.5 -63t16 -84.5q0 -54 -21.5 -96.5t-60.5 -73t-94 -48.5t-122 -22v-94h-64zM520 903q0 32 -22 49t-69 34v-158q52 8 71.5 29.5t19.5 45.5zM277 1257q0 -30 25 -45t63 -27v134 q-48 -5 -68 -21.5t-20 -40.5z"/>
<glyph glyph-name="hyphen.numerator" horiz-adv-x="512" d="M43 886v166h426v-166h-426z"/>
<glyph glyph-name="comma.numerator" horiz-adv-x="314" d="M56 593q46 14 61 39t13 62h-73v178h203v-168q0 -31 -9.5 -62.5t-31.5 -58t-57.5 -45.5t-87.5 -25z"/>
<glyph glyph-name="period.numerator" horiz-adv-x="317" d="M59 694v195h199v-195h-199z"/>
<glyph glyph-name="afii10017" unicode="А" horiz-adv-x="1556" d="M1088 300h-633l-106 -300h-329l560 1432h397l558 -1432h-341zM546 558h450l-225 637z"/>
<glyph glyph-name="afii10019" unicode="В" horiz-adv-x="1488" d="M1058 746q69 -6 133.5 -28.5t115 -63t81 -101t30.5 -141.5q0 -95 -30.5 -171t-94.5 -129.5t-163 -82.5t-237 -29h-736v1432h737q232 0 357.5 -90t125.5 -271q0 -74 -26.5 -129t-70.5 -94t-101.5 -61.5t-120.5 -30.5v-10zM813 222q61 0 110.5 8.5t84.5 32t54 64t19 105.5 q0 60 -18 99.5t-50.5 62.5t-78 32.5t-100.5 9.5h-365v-414h344zM831 834q45 0 84 9.5t67.5 32t44.5 59t16 89.5q0 52 -16.5 87.5t-45.5 57t-69 31t-87 9.5h-356v-375h362z"/>
<glyph glyph-name="afii10022" unicode="Е" horiz-adv-x="1341" d="M157 0v1432h1100v-257h-777v-330h639v-234h-639v-354h794v-257h-1117z"/>
<glyph glyph-name="afii10028" unicode="К" horiz-adv-x="1437" d="M156 1432h321v-590h214l334 590h359l-320 -548l-112 -168l113 -168l316 -548h-356l-334 591h-214v-591h-321v1432z"/>
<glyph glyph-name="afii10030" unicode="М" horiz-adv-x="1945" d="M1484 0v904l7 178l-61 -175l-342 -907h-253l-342 905l-61 180l6 -179v-906h-281v1432h413l344 -882l58 -210l59 210l343 882h413v-1432h-303z"/>
<glyph glyph-name="afii10031" unicode="Н" horiz-adv-x="1624" d="M1144 0v592h-664v-592h-323v1432h323v-574h664v574h322v-1432h-322z"/>
<glyph glyph-name="afii10032" unicode="О" horiz-adv-x="1620" d="M810 -39q-176 0 -315 51.5t-235 149t-147 237t-51 316.5t51 317.5t147 238t235.5 149t316.5 51.5q175 0 313.5 -52t234.5 -149.5t147 -237.5t51 -317t-50.5 -316.5t-146.5 -237t-235 -149t-316 -51.5zM811 232q95 0 171 30.5t129 91.5t81.5 151t28.5 210t-28 211 t-81 151.5t-129 91.5t-172 31t-172 -31t-129.5 -91.5t-82 -151.5t-28.5 -211t28.5 -210t82 -151t130 -91.5t171.5 -30.5z"/>
<glyph glyph-name="afii10034" unicode="Р" horiz-adv-x="1421" d="M157 0v1432h619q126 0 235.5 -23t189.5 -76.5t126 -141.5t46 -218q0 -124 -38.5 -216.5t-110 -153.5t-172.5 -91.5t-226 -30.5h-354v-481h-315zM792 725q119 0 183 61.5t64 183.5q0 62 -18 103.5t-51 67t-79 36.5t-101 11h-318v-463h320z"/>
<glyph glyph-name="afii10035" unicode="С" horiz-adv-x="1535" d="M1169 794q-8 112 -42 189.5t-85 125.5t-116 69.5t-134 21.5q-92 0 -164.5 -31.5t-123.5 -93.5t-78 -154t-27 -214q0 -117 28.5 -205.5t82.5 -148.5t131 -90.5t174 -30.5q66 0 126 17t109.5 52t86 88t57.5 125l289 -84q-28 -102 -86 -188t-144.5 -148.5t-200 -97.5 t-251.5 -35q-174 0 -311.5 51.5t-232.5 148.5t-145 236.5t-50 316.5q0 178 49.5 318.5t143.5 238t229.5 149t308.5 51.5q141 0 263 -41t213.5 -120t146 -195.5t60.5 -267.5l-298 -59z"/>
<glyph glyph-name="afii10036" unicode="Т" horiz-adv-x="1322" d="M500 0v1164h-482v268h1286v-268h-482v-1164h-322z"/>
<glyph glyph-name="afii10039" unicode="Х" horiz-adv-x="1512" d="M1112 0l-362 569l-382 -569h-354l533 743l-501 689h385l322 -515l351 515h353l-497 -688l538 -744h-386z"/>
<glyph glyph-name="afii10054" unicode="Ѕ" horiz-adv-x="1331" d="M294 479q16 -67 51 -116.5t85.5 -82t114 -48.5t138.5 -16t126 15.5t82.5 40.5t45.5 56.5t14 63.5q0 41 -16.5 69.5t-48 50.5t-78 39.5t-107.5 37.5l-217 59q-186 55 -284.5 156t-98.5 263q0 99 39 174.5t112 126.5t175.5 77t230.5 26q235 0 380.5 -102t207.5 -295 l-248 -85l-8 2q-17 73 -54 117.5t-82.5 69t-95 33t-91.5 8.5q-69 0 -118.5 -13t-80.5 -35t-45.5 -49.5t-14.5 -55.5q0 -41 17 -69t44.5 -48t64 -34t75.5 -27l238 -62q102 -32 181 -68.5t132.5 -85.5t81 -114.5t27.5 -155.5q0 -96 -39.5 -177t-114.5 -139.5t-182.5 -91.5 t-243.5 -33q-117 0 -224 27t-192 80t-144 131.5t-80 181.5l238 100z"/>
<glyph glyph-name="afii10055" unicode="І" horiz-adv-x="951" d="M637 1180v-928h231v-252h-781v252h227v928h-227v252h781v-252h-231z"/>
<glyph glyph-name="afii10057" unicode="Ј" horiz-adv-x="1232" d="M561 235q65 0 108.5 23.5t69.5 61.5t37 86.5t11 98.5v927h322v-912q0 -124 -30 -226.5t-94 -176.5t-164 -115t-239 -41q-144 0 -245.5 39.5t-165 104.5t-92.5 148.5t-29 172.5q0 42 4.5 82t10.5 73.5t12.5 59t11.5 39.5l283 -64q-11 -25 -19.5 -65.5t-8.5 -91.5 q0 -48 14 -89t42 -71t68 -47t93 -17z"/>
<glyph glyph-name="afii10018" unicode="Б" horiz-adv-x="1488" d="M810 230q64 0 114 9.5t85 34.5t53.5 67t18.5 107q0 58 -18 98.5t-51 65.5t-79 36.5t-102 11.5h-362v-430h341zM1254 1196h-785v-321h430q113 0 208 -25.5t164 -79t108 -135.5t39 -195q0 -103 -31 -184.5t-95.5 -138.5t-164 -87t-237.5 -30h-733v1432h1097v-236z"/>
<glyph glyph-name="afii10020" unicode="Г" horiz-adv-x="1277" d="M1233 1432v-251h-753v-1181h-323v1432h1076z"/>
<glyph glyph-name="afii10021" unicode="Д" horiz-adv-x="1924" d="M1583 -260v260h-1253v-260h-295v511h126q77 0 128 32.5t81 115t42.5 222.5t12.5 355v456h1220v-1181h232v-511h-294zM746 1181v-209q0 -140 -11 -252.5t-32 -200.5t-51.5 -154t-69.5 -114h740v930h-576z"/>
<glyph glyph-name="afii10024" unicode="Ж" horiz-adv-x="2115" d="M88 0l267 528l112 188l-112 188l-271 528h359l286 -590h167v590h322v-590h168l285 590h359l-271 -528l-112 -188l113 -188l267 -528h-356l-285 591h-168v-591h-322v591h-167l-285 -591h-356z"/>
<glyph glyph-name="afii10026" unicode="И" horiz-adv-x="1626" d="M157 0v1432h286v-871l-13 -145l77 123l632 893h330v-1432h-287v870l14 145l-79 -123l-635 -892h-325z"/>
<glyph glyph-name="afii10025" unicode="З" horiz-adv-x="1318" d="M522 619v194h138q115 0 174.5 51.5t59.5 144.5q0 95 -61.5 146t-181.5 51q-68 0 -118 -17t-85 -49.5t-56 -80.5t-30 -109l-269 56q6 106 48.5 186t116 133.5t174.5 80.5t224 27q129 0 231 -25.5t173.5 -75t109.5 -122t38 -165.5q0 -63 -19 -114.5t-53.5 -91t-84 -67 t-109.5 -42.5q75 -11 130.5 -39.5t92.5 -72t55.5 -100t18.5 -122.5q0 -101 -39.5 -180.5t-114.5 -134.5t-183.5 -84t-246.5 -29q-139 0 -244.5 29.5t-177 85t-108.5 136t-38 181.5l279 59q6 -129 80.5 -197.5t208.5 -68.5q72 0 122.5 18t82.5 48.5t46.5 70t14.5 82.5 q0 57 -19.5 96.5t-54 64t-82 35.5t-104.5 11h-139z"/>
<glyph glyph-name="afii10033" unicode="П" horiz-adv-x="1605" d="M1125 0v1181h-645v-1181h-323v1432h1291v-1432h-323z"/>
<glyph glyph-name="afii10029" unicode="Л" horiz-adv-x="1803" d="M31 230h46q53 0 93 13t69.5 45.5t49 87.5t31 138t16.5 197t5 265v456h1289v-1432h-321v1181h-647v-209q0 -195 -14.5 -345.5t-44.5 -261.5t-76 -186.5t-109 -121t-143.5 -65.5t-179.5 -20h-64v258z"/>
<glyph glyph-name="afii10037" unicode="У" horiz-adv-x="1262" d="M496 397l-500 1035h366l287 -758l263 758h351l-488 -1120q-41 -99 -84 -165t-91.5 -106t-106 -56.5t-127.5 -16.5q-43 0 -84.5 7t-78.5 17t-67.5 22t-51.5 23l54 209q29 -13 69 -27t94 -14q61 0 99.5 27t65.5 90z"/>
<glyph glyph-name="afii10038" unicode="Ф" horiz-adv-x="1876" d="M783 -108v176h-9q-352 0 -531.5 158t-179.5 489t179.5 489.5t533.5 158.5h7v177h323v-177h14q344 0 519 -159.5t175 -488.5q0 -332 -175 -489t-522 -158h-11v-176h-323zM399 715q0 -103 22 -177t68.5 -121.5t117 -70t168.5 -22.5h8v784h-9q-98 0 -168.5 -22.5 t-116.5 -70.5t-68 -122.5t-22 -177.5zM1106 1108v-784h5q96 1 165 23.5t114 69.5t66 120.5t21 177.5t-20 178t-63.5 121t-111.5 69.5t-164 24.5h-12z"/>
<glyph glyph-name="afii10040" unicode="Ц" horiz-adv-x="1715" d="M1386 -260v260h-1229v1432h323v-1181h645v1181h323v-1181h232v-511h-294z"/>
<glyph glyph-name="afii10041" unicode="Ч" horiz-adv-x="1554" d="M458 1433v-464q0 -66 19 -123t55 -99t89 -66t121 -24q108 0 191.5 34t140.5 117v625h322v-1433h-322v544q-37 -35 -86.5 -61.5t-108 -44t-124 -26.5t-135.5 -9q-119 0 -209 38t-151.5 106.5t-92.5 162.5t-31 207v516h322z"/>
<glyph glyph-name="afii10042" unicode="Ш" horiz-adv-x="2398" d="M2229 1432v-1432h-2072v1432h323v-1181h552v1181h322v-1181h553v1181h322z"/>
<glyph glyph-name="afii10043" unicode="Щ" horiz-adv-x="2490" d="M2229 1432v-1181h232v-511h-293v260h-2011v1432h323v-1181h552v1181h322v-1181h553v1181h322z"/>
<glyph glyph-name="afii10044" unicode="Ъ" horiz-adv-x="1545" d="M21 1432h575v-495h354q117 0 217 -25.5t173.5 -81.5t115 -146t41.5 -219q0 -93 -22.5 -163.5t-63 -122t-96.5 -86t-122.5 -55.5t-141.5 -29.5t-153 -8.5h-616v1173h-261v259zM596 693v-449h317q46 0 91 8t80 31t57 66t22 112q0 64 -16 108.5t-47 72t-77 39.5t-107 12 h-320z"/>
<glyph glyph-name="afii10046" unicode="Ь" horiz-adv-x="1421" d="M472 1432v-495h354q117 0 217 -25.5t173.5 -81.5t115 -146t41.5 -219q0 -93 -22.5 -163.5t-63 -122t-96.5 -86t-122.5 -55.5t-141.5 -29.5t-153 -8.5h-617v1432h315zM472 693v-449h318q45 0 90 8t80 31t57 66t22 112q0 64 -16 108.5t-47 72t-77 39.5t-107 12h-320z"/>
<glyph glyph-name="afii10045" unicode="Ы" horiz-adv-x="2292" d="M1994 1180v-928h231v-252h-781v252h227v928h-227v252h781v-252h-231zM472 1432v-495h354q117 0 217 -25.5t173.5 -81.5t115 -146t41.5 -219q0 -93 -22.5 -163.5t-63 -122t-96.5 -86t-122.5 -55.5t-141.5 -29.5t-153 -8.5h-617v1432h315zM472 693v-449h318q45 0 90 8 t80 31t57 66t22 112q0 64 -16 108.5t-47 72t-77 39.5t-107 12h-320z"/>
<glyph glyph-name="afii10047" unicode="Э" horiz-adv-x="1537" d="M595 839h538q-28 178 -130.5 269.5t-259.5 91.5q-73 0 -139 -21.5t-117 -71t-83.5 -130t-37.5 -198.5l-291 62q4 151 54 268.5t138 197.5t208 122t263 42q172 0 308 -51.5t229.5 -149t143 -238t49.5 -318.5q0 -177 -50 -316.5t-144.5 -236.5t-232 -148.5t-311.5 -51.5 q-138 0 -251 34.5t-198.5 98.5t-143 154.5t-84.5 203.5l287 62q19 -73 56 -126.5t87 -88t110.5 -51t126.5 -16.5q85 0 156.5 24t125 70.5t88 116t46.5 161.5h-541v235z"/>
<glyph glyph-name="afii10048" unicode="Ю" horiz-adv-x="2195" d="M157 0v1432h323v-593h168q17 149 75 266.5t152.5 198.5t224.5 124t291 43q175 0 313.5 -52t234.5 -149.5t147 -237.5t51 -317t-50.5 -316.5t-146.5 -237t-235 -149t-316 -51.5q-162 0 -292 43.5t-225 126.5t-152.5 202t-72.5 271h-167v-604h-323zM1391 232 q95 0 170.5 30.5t128.5 91.5t81.5 151t28.5 210t-28 211t-81 151.5t-129 91.5t-172 31q-95 0 -171.5 -31t-129.5 -91.5t-81.5 -151.5t-28.5 -211t28.5 -210t82 -151t129.5 -91.5t172 -30.5z"/>
<glyph glyph-name="afii10049" unicode="Я" horiz-adv-x="1480" d="M92 0v251h63q28 0 47 4.5t34.5 16t29.5 32.5t32 54l52 112q20 35 43.5 59.5t49.5 41.5q-67 21 -126.5 55t-104.5 84.5t-71 119.5t-26 160q0 117 40.5 201t116 137.5t184 78.5t244.5 25h632v-1432h-316v532h-196q-63 -2 -107 -34.5t-79 -102.5l-74 -162q-25 -51 -51.5 -94 t-60.5 -73.5t-78.5 -48t-105.5 -17.5h-172zM1016 771v417h-311q-61 0 -108.5 -9t-80.5 -32t-50 -62t-17 -99q0 -61 15 -102t45.5 -66t76 -36t106.5 -11h324z"/>
<glyph glyph-name="afii10050" unicode="Ґ" horiz-adv-x="1277" d="M973 1432v259h260v-510h-753v-1181h-323v1432h816z"/>
<glyph glyph-name="afii10051" unicode="Ђ" horiz-adv-x="1705" d="M469 0v1175h-451v257h1223v-257h-450v-388q48 106 153 162t244 56q117 0 197 -37.5t129.5 -102t71 -151t21.5 -183.5v-515q0 -82 -17 -154t-60.5 -125.5t-117 -84.5t-186.5 -31q-24 0 -52 2t-56.5 6t-55 10t-48.5 14l44 207q55 -13 105 -13q64 0 93.5 36t29.5 118v496 q0 55 -9.5 105.5t-34 89.5t-67 62.5t-109.5 23.5q-57 0 -107 -21t-87.5 -62t-59 -103.5t-21.5 -144.5v-447h-322z"/>
<glyph glyph-name="afii10052" unicode="Ѓ" horiz-adv-x="1277" d="M557 1591l188 295h324l-286 -295h-226zM1233 1432v-251h-753v-1181h-323v1432h1076z"/>
<glyph glyph-name="afii10053" unicode="Є" horiz-adv-x="1537" d="M1477 452q-27 -113 -84 -203.5t-142.5 -154.5t-198.5 -98.5t-251 -34.5q-174 0 -311 51.5t-232.5 148.5t-145.5 236.5t-50 316.5q0 178 49.5 318.5t143.5 238t230 149t308 51.5q143 0 263 -42t207.5 -122t138 -197.5t53.5 -268.5l-290 -62q-6 118 -38 198.5t-83 130 t-117 71t-139 21.5q-158 0 -260 -91.5t-130 -269.5h537v-235h-540q25 -184 134 -278t283 -94q66 0 126 16.5t109.5 51t86.5 88t57 126.5z"/>
<glyph glyph-name="afii10058" unicode="Љ" horiz-adv-x="2577" d="M31 230h46q53 0 93 13t69.5 45.5t49 87.5t31 138t16.5 197t5 265v456h1289v-495h354q117 0 217 -25.5t173.5 -81.5t115.5 -146t42 -219q0 -93 -22.5 -163.5t-63.5 -122t-97 -86t-122.5 -55.5t-141.5 -29.5t-153 -8.5h-623v1181h-647v-209q0 -195 -14.5 -345.5 t-44.5 -261.5t-76 -186.5t-109 -121t-143.5 -65.5t-179.5 -20h-64v258zM1630 693v-449h317q46 0 91 8t80.5 31t57.5 66t22 112q0 64 -16 108.5t-47 72t-77.5 39.5t-106.5 12h-321z"/>
<glyph glyph-name="afii10059" unicode="Њ" horiz-adv-x="2398" d="M1466 1432v-516h354q117 0 217 -22.5t173.5 -76t115.5 -140.5t42 -216q0 -93 -22.5 -163.5t-63.5 -121.5t-97 -85t-122.5 -54t-142 -28.5t-153.5 -8.5h-623v630h-664v-630h-323v1432h323v-552h664v552h322zM1466 672v-428h318q45 0 89.5 7.5t80 30t57 64.5t21.5 111 q0 64 -15.5 105.5t-46.5 66t-77 34t-106 9.5h-321z"/>
<glyph glyph-name="afii10060" unicode="Ћ" horiz-adv-x="1705" d="M469 0v1175h-451v257h1223v-257h-450v-388q48 106 153 162t244 56q117 0 197 -37.5t129.5 -102t71 -151t21.5 -183.5v-531h-321v497q0 55 -9.5 105.5t-34 89.5t-67 62.5t-109.5 23.5q-57 0 -107 -21t-87.5 -62t-59 -103.5t-21.5 -144.5v-447h-322z"/>
<glyph glyph-name="afii10061" unicode="Ќ" horiz-adv-x="1437" d="M156 1432h321v-590h214l334 590h359l-320 -548l-112 -168l113 -168l316 -548h-356l-334 591h-214v-591h-321v1432zM640 1591l188 295h324l-286 -295h-226z"/>
<glyph glyph-name="afii10062" unicode="Ў" horiz-adv-x="1198" d="M969 1890q-4 -64 -25.5 -117t-63.5 -90.5t-107 -58t-157 -20.5q-91 0 -155.5 21t-106 58.5t-62.5 90t-25 115.5l193 39q3 -74 40.5 -116t115.5 -42q79 0 118 42t42 116zM496 397l-500 1035h366l287 -758l263 758h351l-488 -1120q-41 -99 -84 -165t-91.5 -106t-106 -56.5 t-127.5 -16.5q-43 0 -84.5 7t-78.5 17t-67.5 22t-51.5 23l54 209q29 -13 69 -27t94 -14q61 0 99.5 27t65.5 90z"/>
<glyph glyph-name="afii10079" unicode="н" horiz-adv-x="1390" d="M938 0v406h-486v-406h-307v1026h307v-385h486v385h307v-1026h-307z"/>
<glyph glyph-name="afii10067" unicode="в" horiz-adv-x="1239" d="M146 0v1026h607q94 0 169 -15t127.5 -46.5t81 -80.5t28.5 -118q0 -56 -21 -96t-57.5 -67t-86 -42t-106.5 -21q61 -5 116.5 -21t96.5 -45t65.5 -72t24.5 -101q0 -66 -25.5 -121.5t-78.5 -95.5t-135 -62t-195 -22h-611zM701 201q42 0 75.5 5t57 18t36 36t12.5 60 q0 70 -45.5 97t-123.5 27h-271v-243h259zM704 604q32 0 59 6t46.5 19.5t30.5 35t11 53.5q0 31 -11.5 51.5t-31.5 33t-47.5 17.5t-60.5 5h-258v-221h262z"/>
<glyph glyph-name="afii10065" unicode="а" horiz-adv-x="1330" d="M1291 14q-9 -5 -27.5 -13t-43.5 -15.5t-54.5 -12.5t-59.5 -5q-51 0 -91 11t-67.5 35t-42 63.5t-14.5 96.5q0 25 3.5 59t9.5 79q-20 -94 -64.5 -159.5t-106.5 -106.5t-137.5 -59.5t-156.5 -18.5q-89 0 -158.5 21t-117 60t-72.5 93.5t-25 122.5q0 67 28 116.5t79 85t122 58 t157.5 35t185.5 17t205 4.5v70q0 45 -12.5 82.5t-40 64.5t-71.5 42t-107 15q-43 0 -83 -10t-73 -31.5t-56 -54.5t-32 -79l-239 45q18 75 58 136.5t103.5 105.5t151 68t201.5 24q258 0 382 -113t124 -347v-359q0 -47 14.5 -69.5t49.5 -22.5q24 0 45.5 5.5t32.5 10.5v-150z M844 447q-101 -3 -186 -10.5t-147.5 -25.5t-97.5 -50t-35 -84q0 -26 9 -48.5t28.5 -39.5t51.5 -27t77 -10q61 0 116 24.5t95.5 64t64.5 91t24 105.5v10z"/>
<glyph glyph-name="afii10066" unicode="б" horiz-adv-x="1281" d="M1078 1280l-194 1q-132 0 -228.5 -29.5t-162.5 -85.5t-104.5 -136t-55.5 -180q25 55 65 95t88 65.5t102 37.5t108 12q126 0 226 -40.5t169 -112.5t105.5 -171.5t36.5 -217.5q0 -128 -39.5 -229.5t-115.5 -173t-185.5 -109.5t-248.5 -38q-143 0 -253.5 38t-186 113.5 t-114.5 187.5t-39 259q0 131 14 251t48.5 223.5t93.5 188t148.5 144t214 92t289.5 32.5h219v-217zM646 179q126 0 198.5 84.5t72.5 254.5q0 77 -17.5 138t-52 103.5t-86.5 65t-121 22.5t-120.5 -23.5t-85 -67t-50 -106t-16.5 -141.5q0 -72 16.5 -133t50.5 -104.5t86.5 -68 t124.5 -24.5z"/>
<glyph glyph-name="afii10068" unicode="г" horiz-adv-x="1041" d="M1009 1026v-226h-557v-800h-306v1026h863z"/>
<glyph glyph-name="afii10069" unicode="д" horiz-adv-x="1516" d="M1212 -182v182h-896v-182h-277v409h99q39 0 69 7.5t52 26.5t37.5 52.5t24.5 85.5t13 125.5t4 172.5v329h973v-799h178v-409h-277zM644 800v-107q0 -175 -29.5 -287t-81.5 -179h471v573h-360z"/>
<glyph glyph-name="afii10070" unicode="е" horiz-adv-x="1217" d="M933 351l210 -84q-79 -143 -201 -221t-297 -78q-147 0 -258.5 39.5t-186 111.5t-112 172.5t-37.5 223.5t36.5 223.5t108.5 171.5t179.5 110t250.5 39q129 0 229.5 -38t170 -108.5t106 -170t36.5 -221.5v-65h-830q3 -67 27 -120t64.5 -89.5t96 -56t122.5 -19.5 q94 0 166 43t110 137h9zM878 615q-2 57 -19 104.5t-49.5 81t-80 52t-110.5 18.5q-61 0 -110.5 -19t-85.5 -53t-57.5 -81t-25.5 -103h538z"/>
<glyph glyph-name="afii10072" unicode="ж" horiz-adv-x="1768" d="M41 0l203 393l67 120l-67 120l-202 393h297l152 -295l53 -99l186 -1v395h306v-395h186v1l53 99l152 295h297l-202 -393l-67 -120l67 -120l202 -393h-297l-151 296l-54 100h-186v-396h-306v396h-186l-54 -100l-151 -296h-298z"/>
<glyph glyph-name="afii10073" unicode="з" horiz-adv-x="1084" d="M429 429v174h108q158 0 158 117q0 58 -41.5 95t-131.5 37q-91 0 -143.5 -35.5t-68.5 -117.5l-248 53q6 77 42 134.5t98 96t147 57.5t188 19q108 0 195 -22.5t149 -63t95.5 -95.5t33.5 -121q0 -50 -16 -89t-45.5 -68t-70 -48.5t-88.5 -29.5q61 -7 106.5 -27.5t76 -52 t45.5 -72t15 -87.5q0 -73 -34 -130t-98.5 -96t-156.5 -59.5t-208 -20.5q-117 0 -205 23t-147.5 63.5t-90 97t-33.5 123.5l250 58q9 -80 67.5 -121.5t158.5 -41.5q51 0 86 11t56.5 29.5t31 42t9.5 47.5q0 33 -13 56t-36.5 37.5t-56 20.5t-70.5 6h-114z"/>
<glyph glyph-name="afii10074" unicode="и" horiz-adv-x="1392" d="M145 0v1026h297v-560l-11 -122l65 100l439 582h311v-1026h-298v561l12 119l-66 -98l-444 -582h-305z"/>
<glyph glyph-name="afii10076" unicode="к" horiz-adv-x="1250" d="M146 1026h306v-395h216v1l53 99l152 295h301l-203 -393l-65 -120l66 -120l203 -393h-298l-156 296l-53 100h-216v-396h-306v1026z"/>
<glyph glyph-name="afii10077" unicode="л" horiz-adv-x="1471" d="M55 206h16q24 0 43 6t33 26t24 57.5t16 102t9 159t3 227.5v242h1098v-1026h-306v791h-487q0 -238 -14.5 -394.5t-52 -249t-102.5 -130t-166 -37.5h-116z"/>
<glyph glyph-name="afii10081" unicode="п" horiz-adv-x="1390" d="M911 0v800h-487v-800h-306v1026h1099v-1026h-306z"/>
<glyph glyph-name="afii10080" unicode="о" horiz-adv-x="1281" d="M641 -32q-128 0 -236.5 36.5t-187.5 106t-123 171t-44 231.5t44.5 231.5t123.5 171.5t187 106.5t236 36.5q127 0 235.5 -36.5t187 -106.5t123 -171t44.5 -230q0 -131 -44 -232.5t-122.5 -171.5t-187 -106.5t-236.5 -36.5zM641 189q61 0 111.5 19.5t87 59.5t56.5 101 t20 145q0 83 -20 144t-56.5 101t-87 59.5t-111.5 19.5q-62 0 -112.5 -19.5t-86.5 -59.5t-56 -101.5t-20 -144.5t20 -144t56 -101t86.5 -59.5t112.5 -19.5z"/>
<glyph glyph-name="afii10078" unicode="м" horiz-adv-x="1659" d="M1216 0v566l5 137l-50 -135l-229 -568h-244l-232 566l-51 136l7 -135v-567h-276v1026h377l251 -570l55 -163l55 163l253 570h376v-1026h-297z"/>
<glyph glyph-name="afii10082" unicode="р" horiz-adv-x="1371" d="M360 1026l42 -210q28 57 71.5 102t100 76t123 47.5t140.5 16.5q109 0 197 -39.5t150 -111t95.5 -172t33.5 -222.5q0 -128 -34 -229t-96 -171.5t-150.5 -108t-196.5 -37.5q-74 0 -135.5 16t-110 43t-83.5 62.5t-54 74.5v-524h-307v1387h214zM452 514q0 -86 22 -147.5 t59.5 -101.5t87.5 -58.5t106 -18.5q60 0 109.5 19t85.5 58.5t56 100.5t20 146q0 81 -19.5 141.5t-55 101.5t-85.5 61.5t-112 20.5t-112.5 -21t-86.5 -62t-55.5 -101.5t-19.5 -138.5z"/>
<glyph glyph-name="afii10083" unicode="с" horiz-adv-x="1180" d="M911 360l221 -93q-24 -62 -68 -116.5t-107 -95t-145 -64t-182 -23.5q-129 0 -236 36.5t-183.5 106.5t-118.5 171t-42 230q0 130 40.5 232t114.5 172t178.5 106.5t232.5 36.5q103 0 193 -29.5t158.5 -84t111 -133.5t50.5 -178l-244 -52l-11 4q-12 120 -74.5 186t-174.5 66 q-60 0 -108 -22t-81.5 -63.5t-51.5 -101.5t-18 -136q0 -84 19.5 -145.5t55.5 -101.5t88 -59.5t117 -19.5q93 0 160 45.5t98 124.5z"/>
<glyph glyph-name="afii10084" unicode="т" horiz-adv-x="1113" d="M405 0v800h-382v226h1069v-226h-382v-800h-305z"/>
<glyph glyph-name="afii10085" unicode="у" horiz-adv-x="1204" d="M477 7l-479 1019h333l284 -752l268 752h318l-448 -1050q-43 -98 -86 -165.5t-90.5 -109.5t-102 -61t-118.5 -19q-47 0 -90 11t-80.5 27.5t-67.5 37t-50 38.5l70 148q30 -16 71 -30.5t91 -14.5q113 0 163 132z"/>
<glyph glyph-name="afii10087" unicode="х" horiz-adv-x="1199" d="M849 0l-260 359l-260 -359h-336l415 529l-388 497h352l230 -326l230 326h337l-382 -486l417 -540h-355z"/>
<glyph glyph-name="afii10088" unicode="ц" horiz-adv-x="1437" d="M1119 -182v182h-1001v1026h306v-799h487v799h306v-799h179v-409h-277z"/>
<glyph glyph-name="afii10086" unicode="ф" horiz-adv-x="2051" d="M868 -361v544l-1 -8q-20 -40 -55 -77.5t-83 -66.5t-106 -46.5t-124 -17.5q-108 0 -191 37t-140 107t-86.5 171.5t-29.5 230.5q0 122 29 222.5t85.5 172t139.5 111t191 39.5q69 0 126 -17t103.5 -45.5t82 -66t59.5 -79.5v596h306v-595q24 42 59.5 79.5t81.5 66t103 45 t126 16.5q108 0 191.5 -39.5t140 -111t85.5 -172t29 -222.5q0 -129 -29.5 -230.5t-86.5 -171.5t-140 -107t-190 -37q-66 0 -124.5 17.5t-106.5 46.5t-83.5 66.5t-55.5 77.5v-536h-306zM1437 847q-65 0 -114 -23t-81.5 -64.5t-49.5 -100t-18 -130.5v-32q4 -158 74 -238.5 t186 -80.5q125 0 183 82t58 252q0 161 -56 248t-182 87zM868 514q0 75 -16 136t-49 105t-82.5 68t-115.5 24q-126 0 -182 -87t-56 -248q0 -170 58 -252t183 -82q116 0 186 80.5t74 238.5v17z"/>
<glyph glyph-name="afii10089" unicode="ч" horiz-adv-x="1348" d="M388 1026v-288q0 -54 9.5 -105t34 -90.5t67 -63t109.5 -23.5q100 0 165 33t109 85v452h307v-1026h-307v368q-54 -63 -156.5 -101t-239.5 -38q-117 0 -195 37.5t-124.5 102.5t-65.5 151t-19 184v322h306z"/>
<glyph glyph-name="afii10090" unicode="ш" horiz-adv-x="1959" d="M1839 1026v-1026h-1721v1026h306v-799h401v799h306v-799h402v799h306z"/>
<glyph glyph-name="afii10091" unicode="щ" horiz-adv-x="2058" d="M1839 1026v-799h178v-409h-276v182h-1623v1026h306v-799h401v799h306v-799h402v799h306z"/>
<glyph glyph-name="afii10094" unicode="ь" horiz-adv-x="1202" d="M445 1026v-319h267q99 0 183 -20t145 -63t95.5 -110.5t34.5 -162.5q0 -106 -42.5 -174t-113 -107.5t-163 -54.5t-192.5 -15h-513v1026h299zM445 497v-286h242q30 0 60 5.5t54 20.5t39 43t15 73q0 77 -42 110.5t-123 33.5h-245z"/>
<glyph glyph-name="afii10092" unicode="ъ" horiz-adv-x="1272" d="M19 1026h493v-319h268q99 0 183 -20t145 -63t95.5 -110.5t34.5 -162.5q0 -106 -42 -174t-113 -107.5t-163.5 -54.5t-192.5 -15h-513v786h-195v240zM512 497v-286h245q29 0 58.5 5.5t53.5 20.5t39 43t15 73q0 77 -42 110.5t-122 33.5h-247z"/>
<glyph glyph-name="afii10093" unicode="ы" horiz-adv-x="1838" d="M1363 0v1026h307v-1026h-307zM445 1026v-319h267q99 0 183 -20t145 -63t95.5 -110.5t34.5 -162.5q0 -106 -42.5 -174t-113 -107.5t-163 -54.5t-192.5 -15h-513v1026h299zM445 497v-286h242q30 0 60 5.5t54 20.5t39 43t15 73q0 77 -42 110.5t-123 33.5h-245z"/>
<glyph glyph-name="afii10095" unicode="э" horiz-adv-x="1213" d="M326 394q17 -106 83 -162t167 -56q57 0 105 14t84.5 44.5t60 78t32.5 114.5l-357 -9v208l354 -9q-23 117 -93.5 176t-178.5 59t-169.5 -54t-75.5 -158l-269 32q35 193 165 290t355 97q128 0 233 -36.5t180 -106.5t116 -172t41 -232q0 -129 -41 -230t-117 -171 t-183.5 -106.5t-240.5 -36.5q-117 0 -207 27t-155 77.5t-104.5 124t-54.5 166.5z"/>
<glyph glyph-name="afii10096" unicode="ю" horiz-adv-x="1886" d="M146 0v1026h307v-400h212q18 103 69 184t127 136t173.5 84t210.5 29q127 0 235.5 -36.5t187.5 -106.5t123.5 -171t44.5 -230q0 -131 -44 -232.5t-123 -171.5t-187 -106.5t-237 -36.5q-116 0 -216 30t-176.5 87.5t-126 141t-64.5 191.5h-209v-418h-307zM1245 179 q128 0 202 84t74 251q0 166 -73.5 249.5t-202.5 83.5q-128 0 -201.5 -84t-73.5 -250t73.5 -250t201.5 -84z"/>
<glyph glyph-name="afii10097" unicode="я" horiz-adv-x="1260" d="M78 0v214h55q20 0 35 4t27 12t23 21.5t23 33.5l38 68q17 26 41 41q-49 16 -91 41.5t-73.5 61.5t-49.5 84t-18 110q0 88 34 151.5t98 104t155.5 60t206.5 19.5h529v-1026h-298v353h-118q-54 0 -94.5 -21t-72.5 -82l-44 -85q-19 -39 -40.5 -69.5t-50.5 -51.5t-67 -32.5 t-89 -11.5h-159zM813 566v231h-230q-44 0 -77 -4.5t-55.5 -17t-33.5 -34.5t-11 -56q0 -69 40 -94t127 -25h240z"/>
<glyph glyph-name="afii10098" unicode="ґ" horiz-adv-x="1041" d="M769 1026v195h240v-421h-557v-800h-306v1026h623z"/>
<glyph glyph-name="afii10099" unicode="ђ" horiz-adv-x="1412" d="M1276 18q0 -82 -14.5 -154t-51 -126t-100 -85t-160.5 -31q-53 0 -99.5 9.5t-84 22.5t-64.5 27t-40 24l51 187q31 -17 63.5 -30.5t70.5 -13.5q62 0 92 36t30 118v549q0 54 -9.5 104.5t-34 89.5t-67 62.5t-108.5 23.5q-57 0 -107 -20.5t-87.5 -62t-59.5 -103.5t-22 -145 v-500h-306v1155h-147v184h147v107h306v-107h273v-184h-273v-315q24 53 63 94t90.5 68.5t113 42t130.5 14.5q117 0 195 -37.5t124.5 -102.5t66 -151.5t19.5 -183.5v-566v0z"/>
<glyph glyph-name="afii10100" unicode="ѓ" horiz-adv-x="1041" d="M403 1126l188 295h324l-286 -295h-226zM1009 1026v-226h-557v-800h-306v1026h863z"/>
<glyph glyph-name="afii10101" unicode="є" horiz-adv-x="1213" d="M1157 363q-16 -93 -55.5 -166.5t-104.5 -124t-155 -77.5t-207 -27q-133 0 -240.5 36.5t-183.5 106.5t-117 171t-41 230q0 130 41 232t116 172t180 106.5t233 36.5q225 0 354.5 -97t164.5 -290l-269 -32q-14 104 -75 158t-169 54q-109 0 -179.5 -59t-92.5 -176l353 9v-208 l-357 9q9 -68 32.5 -115.5t60 -77.5t84.5 -44t106 -14q100 0 166 56t83 162z"/>
<glyph glyph-name="afii10102" unicode="ѕ" horiz-adv-x="1167" d="M516 435q-42 8 -90 18.5t-95.5 25.5t-91 37t-76.5 54.5t-53 77.5t-20 106q0 73 31.5 130t93 96t151.5 59t207 20q184 0 305.5 -70.5t182.5 -225.5l-241 -58q-15 41 -35.5 71t-51 50t-71.5 29.5t-96 9.5q-96 0 -141 -31.5t-45 -80.5q0 -30 16 -50.5t48.5 -35.5t82 -26.5 t115.5 -24.5q116 -22 201 -49.5t140 -64.5t81.5 -86t26.5 -115q0 -79 -34.5 -141t-101 -104.5t-164.5 -65t-225 -22.5q-101 0 -185.5 19t-149.5 57.5t-108.5 98t-62.5 140.5l237 64q11 -41 32.5 -74.5t55 -57t81 -36.5t109.5 -13q117 0 168.5 34t51.5 90q0 24 -14 43.5 t-46.5 36.5t-86 32.5t-132.5 32.5z"/>
<glyph glyph-name="afii10103" unicode="і" horiz-adv-x="599" d="M146 0v1026h307v-1026h-307zM142 1162v270h314v-270h-314z"/>
<glyph glyph-name="afii10105" unicode="ј" horiz-adv-x="599" d="M453 1026v-1028q0 -75 -20 -144t-64.5 -121.5t-114.5 -83.5t-169 -31q-57 0 -105.5 14t-87 34.5t-66 44t-42.5 42.5l89 140q13 -10 30 -21t36.5 -20t42 -14.5t47.5 -5.5t47.5 7.5t39 23.5t26.5 41t10 59q0 20 -1 40.5t-2 53t-2 82.5t-1 129v758h307zM142 1162v270h314 v-270h-314z"/>
<glyph glyph-name="afii10106" unicode="љ" horiz-adv-x="1998" d="M55 206h16q24 0 43 6t33 26t24 57.5t16 102t9 159t3 227.5v242h1075v-319h236q99 0 183 -20t145 -63t95.5 -110.5t34.5 -162.5q0 -70 -19 -123.5t-53.5 -92.5t-82 -65t-104.5 -41.5t-120.5 -22t-130.5 -6.5h-490v791h-464q0 -238 -14.5 -394.5t-52 -249t-102.5 -130 t-166 -37.5h-116zM1274 497v-286h213q30 0 59.5 5.5t53.5 20.5t39 43t15 73q0 77 -42.5 110.5t-122.5 33.5h-215z"/>
<glyph glyph-name="afii10107" unicode="њ" horiz-adv-x="1980" d="M1245 1026v-357h236q99 0 183 -17t144.5 -56t95 -103.5t34.5 -159.5q0 -71 -19 -123.5t-53.5 -89.5t-82 -60t-104.5 -36.5t-120.5 -18.5t-130.5 -5h-490v417h-486v-417h-307v1026h307v-374h486v374h307zM1245 458v-247h213q29 0 58.5 3.5t53.5 16t39 37t15 67.5 q0 38 -10.5 62t-31.5 37.5t-51.5 18.5t-70.5 5h-215z"/>
<glyph glyph-name="afii10108" unicode="ћ" horiz-adv-x="1412" d="M474 1155v-315q24 53 63 94t90.5 68.5t113 42t130.5 14.5q117 0 195 -37.5t124.5 -102.5t66 -151.5t19.5 -183.5v-584h-307v551q0 54 -9.5 104.5t-34 89.5t-67 62.5t-108.5 23.5q-57 0 -107 -20.5t-87.5 -62t-59.5 -103.5t-22 -145v-500h-306v1155h-147v184h147v107h306 v-107h273v-184h-273z"/>
<glyph glyph-name="afii10109" unicode="ќ" horiz-adv-x="1250" d="M494 1132l188 295h324l-286 -295h-226zM146 1026h306v-395h216v1l53 99l152 295h301l-203 -393l-65 -120l66 -120l203 -393h-298l-156 296l-53 100h-216v-396h-306v1026z"/>
<glyph glyph-name="afii10110" unicode="ў" horiz-adv-x="1198" d="M477 7l-479 1019h333l284 -752l268 752h318l-448 -1050q-43 -98 -86 -165.5t-90.5 -109.5t-102 -61t-118.5 -19q-47 0 -90 11t-80.5 27.5t-67.5 37t-50 38.5l70 148q30 -16 71 -30.5t91 -14.5q113 0 163 132zM964 1472q-4 -64 -25.5 -117t-63.5 -90.5t-107 -58 t-157 -20.5q-91 0 -155.5 21t-106 58.5t-62.5 90t-25 115.5l193 39q3 -74 40.5 -116t115.5 -42q79 0 118 42t42 116z"/>
<glyph glyph-name="uni24EA" unicode="⓪" horiz-adv-x="1685" d="M840 -21q-174 0 -316 50t-242.5 145t-155 232.5t-54.5 312.5q0 161 51 296t148.5 232.5t240 151.5t324.5 54q180 0 323 -52t242 -148t151.5 -231.5t52.5 -302.5q0 -165 -51 -301.5t-148.5 -234t-240 -151t-325.5 -53.5zM839 120q129 0 240 38.5t192 114.5t127 188t46 259 q0 132 -41 241t-119 187t-190.5 121t-254.5 43q-140 0 -252 -42t-190.5 -119.5t-120.5 -187t-42 -243.5q0 -136 42 -246.5t121 -189t190.5 -121.5t251.5 -43zM838 335q-92 0 -159 27t-111.5 77.5t-66 121.5t-21.5 159t22 159t66.5 121.5t112 77.5t159.5 27q91 0 158.5 -27 t112 -77.5t66 -121.5t21.5 -159t-22 -159t-66.5 -121.5t-112 -77.5t-159.5 -27zM839 504q72 0 105.5 55t33.5 161q0 108 -33 162.5t-106 54.5q-140 0 -140 -217q0 -107 34 -161.5t106 -54.5z"/>
<glyph glyph-name="uni2460" unicode="①" horiz-adv-x="1685" d="M840 -21q-174 0 -316 50t-242.5 145t-155 232.5t-54.5 312.5q0 161 51 296t148.5 232.5t240 151.5t324.5 54q180 0 323 -52t242 -148t151.5 -231.5t52.5 -302.5q0 -165 -51 -301.5t-148.5 -234t-240 -151t-325.5 -53.5zM839 120q129 0 240 38.5t192 114.5t127 188t46 259 q0 132 -41 241t-119 187t-190.5 121t-254.5 43q-140 0 -252 -42t-190.5 -119.5t-120.5 -187t-42 -243.5q0 -136 42 -246.5t121 -189t190.5 -121.5t251.5 -43zM716 367v630q43 14 63.5 39.5t21.5 68.5h129v-738h-214z"/>
<glyph glyph-name="uni2461" unicode="②" horiz-adv-x="1685" d="M840 -21q-174 0 -316 50t-242.5 145t-155 232.5t-54.5 312.5q0 161 51 296t148.5 232.5t240 151.5t324.5 54q180 0 323 -52t242 -148t151.5 -231.5t52.5 -302.5q0 -165 -51 -301.5t-148.5 -234t-240 -151t-325.5 -53.5zM839 120q129 0 240 38.5t192 114.5t127 188t46 259 q0 132 -41 241t-119 187t-190.5 121t-254.5 43q-140 0 -252 -42t-190.5 -119.5t-120.5 -187t-42 -243.5q0 -136 42 -246.5t121 -189t190.5 -121.5t251.5 -43zM506 377v67q0 48 25 86t64.5 70t89 60l97.5 56q42 26 69.5 48t44.5 42.5t24 41t7 44.5q0 82 -104 82q-27 0 -50 -9 t-38 -27t-19.5 -44.5t5.5 -61.5l-168 -21q-17 58 -12.5 114.5t37.5 101.5t97 73t167 28q65 0 119.5 -14t93.5 -42t61 -69t22 -95q0 -82 -43.5 -141t-121.5 -108q-24 -16 -50.5 -31.5l-52 -31l-48.5 -30.5t-40 -29h357v-160h-633z"/>
<glyph glyph-name="uni2462" unicode="③" horiz-adv-x="1685" d="M840 -21q-174 0 -316 50t-242.5 145t-155 232.5t-54.5 312.5q0 161 51 296t148.5 232.5t240 151.5t324.5 54q180 0 323 -52t242 -148t151.5 -231.5t52.5 -302.5q0 -165 -51 -301.5t-148.5 -234t-240 -151t-325.5 -53.5zM839 120q129 0 240 38.5t192 114.5t127 188t46 259 q0 132 -41 241t-119 187t-190.5 121t-254.5 43q-140 0 -252 -42t-190.5 -119.5t-120.5 -187t-42 -243.5q0 -136 42 -246.5t121 -189t190.5 -121.5t251.5 -43zM756 681v123h69q56 0 81.5 23.5t25.5 62.5q0 41 -27 64.5t-81 23.5q-65 0 -95 -32t-39 -91l-177 37q1 59 25 102.5 t65.5 72.5t98.5 43.5t125 14.5q72 0 129.5 -13.5t98 -40t62.5 -65.5t22 -90q0 -67 -38 -108t-101 -56q81 -11 118 -58.5t37 -115.5q0 -54 -22.5 -97t-64.5 -72t-103 -44.5t-139 -15.5q-158 0 -236.5 61t-78.5 173l183 39q3 -62 35.5 -94.5t95.5 -32.5q62 0 91 27.5t29 67.5 q0 48 -31 69.5t-89 21.5h-69z"/>
<glyph glyph-name="uni2463" unicode="④" horiz-adv-x="1685" d="M840 -21q-174 0 -316 50t-242.5 145t-155 232.5t-54.5 312.5q0 161 51 296t148.5 232.5t240 151.5t324.5 54q180 0 323 -52t242 -148t151.5 -231.5t52.5 -302.5q0 -165 -51 -301.5t-148.5 -234t-240 -151t-325.5 -53.5zM839 120q129 0 240 38.5t192 114.5t127 188t46 259 q0 132 -41 241t-119 187t-190.5 121t-254.5 43q-140 0 -252 -42t-190.5 -119.5t-120.5 -187t-42 -243.5q0 -136 42 -246.5t121 -189t190.5 -121.5t251.5 -43zM857 1097q-5 -57 -21.5 -119t-39.5 -120.5t-51.5 -109t-58.5 -83.5h196v165h185v-165h108v-144h-108v-147h-185 v147h-409v143q46 49 80 105.5t59 115.5t41 118t25 115z"/>
<glyph glyph-name="uni2464" unicode="⑤" horiz-adv-x="1685" d="M840 -21q-174 0 -316 50t-242.5 145t-155 232.5t-54.5 312.5q0 161 51 296t148.5 232.5t240 151.5t324.5 54q180 0 323 -52t242 -148t151.5 -231.5t52.5 -302.5q0 -165 -51 -301.5t-148.5 -234t-240 -151t-325.5 -53.5zM839 120q129 0 240 38.5t192 114.5t127 188t46 259 q0 132 -41 241t-119 187t-190.5 121t-254.5 43q-140 0 -252 -42t-190.5 -119.5t-120.5 -187t-42 -243.5q0 -136 42 -246.5t121 -189t190.5 -121.5t251.5 -43zM711 579q5 -43 35.5 -67.5t81.5 -24.5q54 0 80 30.5t26 89.5q0 49 -26 75t-80 26q-36 0 -65 -12.5t-52 -45.5 l-180 9l36 433h533v-147h-370l-15 -177q29 36 71 54t102 18q126 0 193.5 -61t67.5 -179q0 -128 -83 -196.5t-238 -68.5q-144 0 -220.5 55.5t-89.5 148.5z"/>
<glyph glyph-name="uni2465" unicode="⑥" horiz-adv-x="1685" d="M840 -21q-174 0 -316 50t-242.5 145t-155 232.5t-54.5 312.5q0 161 51 296t148.5 232.5t240 151.5t324.5 54q180 0 323 -52t242 -148t151.5 -231.5t52.5 -302.5q0 -165 -51 -301.5t-148.5 -234t-240 -151t-325.5 -53.5zM839 120q129 0 240 38.5t192 114.5t127 188t46 259 q0 132 -41 241t-119 187t-190.5 121t-254.5 43q-140 0 -252 -42t-190.5 -119.5t-120.5 -187t-42 -243.5q0 -136 42 -246.5t121 -189t190.5 -121.5t251.5 -43zM955 891q-11 39 -37.5 60.5t-83.5 21.5q-64 0 -102.5 -53.5t-40.5 -168.5q28 51 75 74.5t113 23.5 q131 0 200.5 -64t69.5 -182q0 -60 -21.5 -108.5t-62.5 -83t-101 -53t-137 -18.5q-168 0 -249 91.5t-81 274.5q0 88 19.5 163.5t61.5 131t108 87t158 31.5q125 0 196.5 -51.5t85.5 -137.5zM827 489q57 0 88 29t31 86q0 106 -114 106q-55 0 -90 -28.5t-34 -77.5 q0 -58 32 -86.5t87 -28.5z"/>
<glyph glyph-name="uni2466" unicode="⑦" horiz-adv-x="1685" d="M840 -21q-174 0 -316 50t-242.5 145t-155 232.5t-54.5 312.5q0 161 51 296t148.5 232.5t240 151.5t324.5 54q180 0 323 -52t242 -148t151.5 -231.5t52.5 -302.5q0 -165 -51 -301.5t-148.5 -234t-240 -151t-325.5 -53.5zM839 120q129 0 240 38.5t192 114.5t127 188t46 259 q0 132 -41 241t-119 187t-190.5 121t-254.5 43q-140 0 -252 -42t-190.5 -119.5t-120.5 -187t-42 -243.5q0 -136 42 -246.5t121 -189t190.5 -121.5t251.5 -43zM704 335q-2 99 10.5 178.5t40.5 148t72 128.5t107 120h-402v163h610v-147q-60 -65 -103 -130.5t-70 -136.5 t-39 -150.5t-11 -173.5h-215z"/>
<glyph glyph-name="uni2467" unicode="⑧" horiz-adv-x="1685" d="M840 -21q-174 0 -316 50t-242.5 145t-155 232.5t-54.5 312.5q0 161 51 296t148.5 232.5t240 151.5t324.5 54q180 0 323 -52t242 -148t151.5 -231.5t52.5 -302.5q0 -165 -51 -301.5t-148.5 -234t-240 -151t-325.5 -53.5zM839 120q129 0 240 38.5t192 114.5t127 188t46 259 q0 132 -41 241t-119 187t-190.5 121t-254.5 43q-140 0 -252 -42t-190.5 -119.5t-120.5 -187t-42 -243.5q0 -136 42 -246.5t121 -189t190.5 -121.5t251.5 -43zM998 762q39 -7 71 -24t54 -41.5t34 -55.5t12 -67q0 -107 -86 -165.5t-248 -58.5q-159 0 -246.5 55t-87.5 158 q0 33 9 65t29.5 59t53 47t79.5 29q-32 8 -59.5 22.5t-47.5 35t-31.5 46t-11.5 56.5q0 99 83.5 153t230.5 54q72 0 130 -14t98.5 -40t62 -64.5t21.5 -86.5q0 -56 -41.5 -99.5t-108.5 -63.5zM837 492q61 0 93.5 25t32.5 71q0 42 -28 69.5t-96 27.5q-38 0 -63 -7.5t-40.5 -21 t-22 -31.5t-6.5 -38q0 -95 130 -95zM836 831q47 0 80 19.5t33 61.5q0 45 -28.5 65t-84.5 20t-85.5 -20.5t-29.5 -63.5q0 -37 27.5 -60t87.5 -22z"/>
<glyph glyph-name="uni2468" unicode="⑨" horiz-adv-x="1685" d="M840 -21q-174 0 -316 50t-242.5 145t-155 232.5t-54.5 312.5q0 161 51 296t148.5 232.5t240 151.5t324.5 54q180 0 323 -52t242 -148t151.5 -231.5t52.5 -302.5q0 -165 -51 -301.5t-148.5 -234t-240 -151t-325.5 -53.5zM839 120q129 0 240 38.5t192 114.5t127 188t46 259 q0 132 -41 241t-119 187t-190.5 121t-254.5 43q-140 0 -252 -42t-190.5 -119.5t-120.5 -187t-42 -243.5q0 -136 42 -246.5t121 -189t190.5 -121.5t251.5 -43zM706 567q11 -39 40.5 -60t82.5 -21q65 0 103 53.5t40 168.5q-29 -51 -78.5 -74t-109.5 -23q-130 0 -199.5 63 t-69.5 181q0 60 21.5 108.5t62.5 83t101 53.5t137 19q168 0 249 -91.5t81 -275.5q0 -88 -20 -163t-62 -130t-107.5 -86.5t-156.5 -31.5q-125 0 -197 51.5t-86 136.5zM837 970q-57 0 -88 -29t-31 -86q0 -107 114 -107q56 0 90.5 28.5t33.5 76.5q0 58 -31.5 87.5t-87.5 29.5z "/>
<glyph glyph-name="uni24FF" unicode="⓿" horiz-adv-x="1685" d="M840 -21q-174 0 -316 50t-242.5 145t-155 232.5t-54.5 312.5q0 161 51 296t148.5 232.5t240 151.5t324.5 54q180 0 323 -52t242 -148t151.5 -231.5t52.5 -302.5q0 -165 -51 -301.5t-148.5 -234t-240 -151t-325.5 -53.5zM835 339q92 0 159.5 27t112 77.5t66.5 121.5 t22 159t-21.5 159t-66 121.5t-112 77.5t-158.5 27q-92 0 -159.5 -27t-112 -77.5t-66.5 -121.5t-22 -159t21.5 -159t66 -121.5t111.5 -77.5t159 -27zM835 508q-139 0 -139 216q0 107 34 162t105 55q73 0 106.5 -54.5t33.5 -162.5q0 -107 -34 -161.5t-106 -54.5z"/>
<glyph glyph-name="uni2776" unicode="❶" horiz-adv-x="1685" d="M840 -21q-174 0 -316 50t-242.5 145t-155 232.5t-54.5 312.5q0 161 51 296t148.5 232.5t240 151.5t324.5 54q180 0 323 -52t242 -148t151.5 -231.5t52.5 -302.5q0 -165 -51 -301.5t-148.5 -234t-240 -151t-325.5 -53.5zM931 367v738h-130q0 -43 -21 -68.5t-63 -39.5v-630 h214z"/>
<glyph glyph-name="uni2777" unicode="❷" horiz-adv-x="1685" d="M840 -21q-174 0 -316 50t-242.5 145t-155 232.5t-54.5 312.5q0 161 51 296t148.5 232.5t240 151.5t324.5 54q180 0 323 -52t242 -148t151.5 -231.5t52.5 -302.5q0 -165 -51 -301.5t-148.5 -234t-240 -151t-325.5 -53.5zM1139 377v161h-357q18 14 41 29l48.5 30.5l52 31 l50.5 30.5q78 49 121 108t43 142q0 54 -21.5 94.5t-60.5 68.5t-93.5 42t-120.5 14q-102 0 -166.5 -28t-97.5 -73t-37.5 -101.5t12.5 -113.5l168 21q-10 35 -5.5 61.5t19.5 44.5t38 27t50 9q104 0 104 -83q0 -24 -7 -44.5t-23.5 -41t-44.5 -42.5t-69 -47l-98.5 -56t-89 -60.5 t-64.5 -70.5t-25 -86v-67h633z"/>
<glyph glyph-name="uni2778" unicode="❸" horiz-adv-x="1685" d="M840 -21q-174 0 -316 50t-242.5 145t-155 232.5t-54.5 312.5q0 161 51 296t148.5 232.5t240 151.5t324.5 54q180 0 323 -52t242 -148t151.5 -231.5t52.5 -302.5q0 -165 -51 -301.5t-148.5 -234t-240 -151t-325.5 -53.5zM825 681q58 0 89 -21.5t31 -69.5q0 -41 -29 -68 t-91 -27q-63 0 -96 32.5t-35 94.5l-184 -39q1 -112 79.5 -173t236.5 -61q78 0 139 15.5t103.5 45t65 71.5t22.5 96q0 69 -38 116.5t-119 58.5q63 15 101.5 56.5t38.5 107.5q0 51 -22 90t-62.5 65.5t-98 40t-129.5 13.5q-68 0 -125 -14.5t-98.5 -43.5t-65.5 -72.5t-25 -102.5 l177 -37q9 59 39 90.5t95 31.5q54 0 80.5 -23t26.5 -63t-25.5 -63t-80.5 -23h-69v-124h69z"/>
<glyph glyph-name="uni2779" unicode="❹" horiz-adv-x="1685" d="M840 -21q-174 0 -316 50t-242.5 145t-155 232.5t-54.5 312.5q0 161 51 296t148.5 232.5t240 151.5t324.5 54q180 0 323 -52t242 -148t151.5 -231.5t52.5 -302.5q0 -165 -51 -301.5t-148.5 -234t-240 -151t-325.5 -53.5zM678 1118q-10 -56 -26 -115t-40.5 -118 t-58.5 -115.5t-80 -106.5v-143h409v-146h185v146h108v145h-108v166h-185v-166h-196q30 33 58.5 83.5t51.5 109t39.5 120.5t21.5 118z"/>
<glyph glyph-name="uni277A" unicode="❺" horiz-adv-x="1685" d="M840 -21q-174 0 -316 50t-242.5 145t-155 232.5t-54.5 312.5q0 161 51 296t148.5 232.5t240 151.5t324.5 54q180 0 323 -52t242 -148t151.5 -231.5t52.5 -302.5q0 -165 -51 -301.5t-148.5 -234t-240 -151t-325.5 -53.5zM518 539q13 -93 89.5 -148.5t220.5 -55.5 q155 0 238 69t83 197q0 117 -67.5 178t-193.5 61q-60 0 -102 -18t-71 -54l15 178h369v146h-532l-37 -434l181 -8q23 33 52 45.5t65 12.5q55 0 81 -26t26 -75q0 -59 -26 -90t-81 -31q-52 0 -81.5 25t-36.5 68z"/>
<glyph glyph-name="uni277B" unicode="❻" horiz-adv-x="1685" d="M840 -21q-174 0 -316 50t-242.5 145t-155 232.5t-54.5 312.5q0 161 51 296t148.5 232.5t240 151.5t324.5 54q180 0 323 -52t242 -148t151.5 -231.5t52.5 -302.5q0 -165 -51 -301.5t-148.5 -234t-240 -151t-325.5 -53.5zM1126 930q-14 86 -85.5 137t-197.5 51 q-92 0 -157.5 -31.5t-107.5 -86.5t-61.5 -130.5t-19.5 -163.5q0 -184 81 -275.5t249 -91.5q77 0 137 19t101 53.5t62.5 83t21.5 108.5q0 118 -69.5 182t-200.5 64q-66 0 -113 -23t-74 -74q0 114 39 167.5t103 53.5q57 0 83.5 -21.5t37.5 -59.5zM827 489q-55 0 -86.5 28 t-32.5 88q0 48 34.5 76.5t89.5 28.5q114 0 114 -107q0 -56 -31 -85t-88 -29z"/>
<glyph glyph-name="uni277C" unicode="❼" horiz-adv-x="1685" d="M840 -21q-174 0 -316 50t-242.5 145t-155 232.5t-54.5 312.5q0 161 51 296t148.5 232.5t240 151.5t324.5 54q180 0 323 -52t242 -148t151.5 -231.5t52.5 -302.5q0 -165 -51 -301.5t-148.5 -234t-240 -151t-325.5 -53.5zM920 335q-2 94 10 173.5t39 150.5t69.5 136 t103.5 130v148h-610v-163h402q-63 -60 -107 -120t-72 -128.5t-40.5 -148t-10.5 -178.5h216z"/>
<glyph glyph-name="uni277D" unicode="❽" horiz-adv-x="1685" d="M840 -21q-174 0 -316 50t-242.5 145t-155 232.5t-54.5 312.5q0 161 51 296t148.5 232.5t240 151.5t324.5 54q180 0 323 -52t242 -148t151.5 -231.5t52.5 -302.5q0 -165 -51 -301.5t-148.5 -234t-240 -151t-325.5 -53.5zM999 762q66 20 107.5 63.5t41.5 98.5 q0 49 -21.5 87t-62 64.5t-98.5 40.5t-130 14q-147 0 -230.5 -54t-83.5 -153q0 -31 11.5 -56.5t31.5 -46t47 -34.5t59 -23q-47 -9 -79.5 -29t-52.5 -47t-29.5 -59t-9.5 -65q0 -103 88 -158t247 -55q162 0 248 58.5t86 165.5q0 72 -46 123t-124 65zM836 493q-63 0 -96 23 t-33 71q0 20 6.5 38t21.5 31.5t40.5 21t63.5 7.5q68 0 96 -27.5t28 -69.5q0 -46 -32.5 -70.5t-94.5 -24.5zM837 831q-60 -1 -88 22t-28 61q0 42 29.5 62.5t85.5 20.5q57 0 85 -20t28 -65q0 -42 -33 -61.5t-79 -19.5z"/>
<glyph glyph-name="uni277E" unicode="❾" horiz-adv-x="1685" d="M840 -21q-174 0 -316 50t-242.5 145t-155 232.5t-54.5 312.5q0 161 51 296t148.5 232.5t240 151.5t324.5 54q180 0 323 -52t242 -148t151.5 -231.5t52.5 -302.5q0 -165 -51 -301.5t-148.5 -234t-240 -151t-325.5 -53.5zM538 529q13 -86 85.5 -137.5t197.5 -51.5 q91 0 156.5 31.5t107.5 87t62 131t20 163.5q0 183 -81 274.5t-249 91.5q-77 0 -137 -19t-101 -53.5t-62.5 -83t-21.5 -108.5q0 -118 70 -181t199 -63q60 0 109 23t78 74q0 -114 -39 -168.5t-103 -54.5q-54 0 -83 21.5t-40 60.5zM837 971q57 0 88 -30t31 -87q0 -48 -34 -76.5 t-90 -28.5q-113 0 -113 106q0 57 30.5 86.5t87.5 29.5z"/>
<glyph glyph-name="arrowup" unicode="↑" horiz-adv-x="893" d="M326 903q0 48 3.5 93.5t8.5 81.5q5 41 13 79l-182 -143l-100 114l375 356l374 -356l-98 -114l-184 143q7 -37 12 -78q5 -35 8.5 -81.5t3.5 -95.5v-902h-234v903z"/>
<glyph glyph-name="uni2197" unicode="↗" horiz-adv-x="1553" d="M978 1083q34 34 68.5 63l63.5 52q33 26 64 48l-230 27l10 150l516 -13l13 -515l-149 -12l-29 232q-21 -31 -47 -64q-22 -29 -52 -64t-65 -70l-936 -934l-164 166z"/>
<glyph glyph-name="arrowright" unicode="→" horiz-adv-x="1551" d="M944 858q48 0 93.5 -3.5t80.5 -8.5q41 -5 79 -12l-142 182l112 99l357 -374l-356 -373l-114 98l143 183q-37 -7 -78 -12q-35 -5 -81 -8.5t-95 -3.5h-902v233h903z"/>
<glyph glyph-name="uni2198" unicode="↘" horiz-adv-x="1553" d="M41 1279l164 164l936 -933q35 -35 65 -70t52 -64q26 -33 47 -64l29 232l149 -12l-13 -515l-516 -13l-10 150l230 27q-31 22 -64 48q-29 22 -63.5 51.5t-68.5 63.5z"/>
<glyph glyph-name="arrowdown" unicode="↓" horiz-adv-x="893" d="M326 1432h234v-901q0 -50 -3.5 -96t-8.5 -81q-5 -41 -12 -78l184 144l98 -115l-374 -355l-375 356l100 114l182 -144q-8 37 -13 79q-5 35 -8.5 81t-3.5 94v902z"/>
<glyph glyph-name="uni2199" unicode="↙" horiz-adv-x="1553" d="M566 344q-34 -34 -68.5 -63.5t-63.5 -51.5q-33 -26 -64 -48l230 -27l-10 -150l-516 13l-13 515l150 12l29 -232q21 31 47 64q22 29 51.5 64t64.5 70l935 933l165 -164z"/>
<glyph glyph-name="arrowleft" unicode="←" horiz-adv-x="1551" d="M1524 858v-233h-902q-49 0 -95 3.5t-81 8.5q-42 5 -79 12l145 -183l-115 -98l-356 373l356 374l114 -99l-144 -182q37 7 79 12q36 5 82 8.5t94 3.5h902z"/>
<glyph glyph-name="uni2196" unicode="↖" horiz-adv-x="1553" d="M1503 149l-165 -166l-935 934q-35 35 -64.5 70t-51.5 64q-26 33 -47 64l-29 -232l-150 12l13 515l516 13l10 -150l-230 -27q31 -22 64 -48l63.5 -52t68.5 -63z"/>
<glyph glyph-name="arrowboth" unicode="↔" horiz-adv-x="2096" d="M1489 858q48 0 93.5 -3.5t81.5 -8.5q41 -5 79 -12l-143 182l113 99l356 -374l-355 -373l-115 98l144 183q-37 -7 -78 -12q-35 -5 -81 -8.5t-95 -3.5h-874q-50 0 -95.5 3.5t-80.5 8.5q-41 5 -78 12l144 -183l-115 -98l-356 373l356 374l114 -99l-143 -182q37 7 79 12 q35 5 81 8.5t94 3.5h874z"/>
<glyph glyph-name="arrowupdn" unicode="↕" horiz-adv-x="1155" d="M690 475q0 -48 -3.5 -93.5t-8.5 -81.5q-5 -42 -12 -79l182 143l100 -112l-375 -357l-374 356l99 114l184 -144q-8 37 -13 79q-5 35 -8.5 81t-3.5 95v451q0 48 3.5 94t8.5 81q5 41 13 79l-184 -144l-99 115l374 355l375 -356l-100 -114l-182 144q7 -37 12 -79 q5 -36 8.5 -81.5t3.5 -93.5v-452z"/>
<glyph glyph-name="uni21C4" unicode="⇄" horiz-adv-x="1728" d="M1121 1136q48 0 93.5 -3.5t80.5 -8.5q41 -5 79 -12l-143 183l114 98l355 -373l-355 -374l-115 98l144 183q-37 -7 -78 -12q-35 -5 -81.5 -8t-95.5 -3h-902v232h904zM1523 483v-233h-902q-49 0 -95 3.5t-81 8.5q-41 5 -78 12l144 -183l-115 -98l-356 373l356 374l114 -98 l-143 -183q37 7 79 12q35 5 81 8.5t94 3.5h902z"/>
<glyph glyph-name="uni21C5" unicode="⇅" horiz-adv-x="1627" d="M1257 443q0 -48 -3.5 -94t-8.5 -81q-5 -42 -12 -79l183 143l99 -114l-375 -355l-373 355l97 115l185 -144q-8 37 -13 78q-5 35 -8.5 81t-3.5 95v903h233v-903zM604 40h-233v902q0 49 3.5 95t8.5 81q5 41 13 78l-184 -144l-98 115l374 355l373 -355l-99 -114l-182 143 q7 -38 12 -79q5 -35 8.5 -80.5t3.5 -93.5v-903z"/>
<glyph glyph-name="at.cap" d="M477 261l936 945q186 -239 186 -476q0 -135 -42.5 -256t-124.5 -213h-955zM337 238q-88 111 -133 233t-45 259q0 58 10 119.5t31 120.5t52.5 112t73.5 95h948zM400 180h960q-117 -93 -236.5 -137t-246.5 -44q-139 0 -258 48t-219 133zM1360 1263h-969q116 87 236.5 134.5 t249.5 47.5q74 0 137 -15t121 -40.5t113 -58.5z"/>
<glyph glyph-name="parenleft.cap" horiz-adv-x="701" d="M423 -180q-155 193 -238.5 423t-83.5 476q0 121 21.5 240.5t63 233t102 219t137.5 197.5l258 -48q-146 -197 -213.5 -406.5t-67.5 -438.5q0 -227 69 -436t215 -411z"/>
<glyph glyph-name="parenright.cap" horiz-adv-x="700" d="M12 -131q145 202 214 411t69 436q0 229 -67.5 438.5t-211.5 406.5l258 48q77 -92 137 -197.5t101.5 -219t63 -233t21.5 -240.5q0 -246 -83.5 -476t-239.5 -423z"/>
<glyph glyph-name="bracketleft.cap" horiz-adv-x="747" d="M141 -154v1745h558v-217h-270v-1311h270v-217h-558z"/>
<glyph glyph-name="bracketright.cap" horiz-adv-x="747" d="M52 -154v217h270v1311h-270v217h558v-1745h-558z"/>
<glyph glyph-name="braceleft.cap" horiz-adv-x="785" d="M562 -158q-102 0 -169 21t-107.5 66.5t-57 117t-16.5 173.5v233q0 42 -8.5 73t-28.5 51.5t-52.5 31t-80.5 12.5v204q52 0 85 11.5t52 34t25.5 56t6.5 78.5v227q0 104 21.5 173.5t68.5 111t122 59t182 17.5h129v-218h-96q-42 0 -69 -8.5t-43.5 -28.5t-23 -52t-6.5 -79 v-208q0 -52 -6 -95.5t-24.5 -78.5t-52.5 -60.5t-89 -40.5q52 -15 85.5 -41.5t53 -61.5t26.5 -76.5t7 -87.5v-247q0 -44 8.5 -73.5t26 -46.5t44 -24t63.5 -7h97v-217h-173z"/>
<glyph glyph-name="braceright.cap" horiz-adv-x="783" d="M43 -158v217h98q37 0 63.5 7t43.5 24t25.5 46.5t8.5 73.5v247q0 46 7 87.5t26.5 76.5t52.5 61.5t86 41.5q-55 15 -88.5 40.5t-52 60.5t-25 78.5t-6.5 95.5v208q0 47 -6.5 79t-22.5 52t-43.5 28.5t-68.5 8.5h-96v218h128q107 0 182 -17.5t122 -59t68 -111t21 -173.5v-227 q0 -45 7 -78.5t26 -56t52 -34t85 -11.5v-204q-48 -2 -81 -12.5t-53 -31t-28.5 -51.5t-8.5 -73v-233q0 -102 -16.5 -173.5t-56.5 -117t-107 -66.5t-169 -21h-173z"/>
<glyph glyph-name="exclamdown.cap" horiz-adv-x="618" d="M390 958l80 -457v-501h-322v500l80 458h162zM466 1432v-305h-317v305h317z"/>
<glyph glyph-name="questiondown.cap" horiz-adv-x="1217" d="M775 1013v-45q0 -59 -12.5 -101t-39 -78t-68 -71.5t-98.5 -79.5l-65.5 -53.5t-61 -59t-45 -68t-17.5 -79.5q0 -44 16.5 -80t48 -62t76 -40.5t100.5 -14.5q69 0 123.5 15t88.5 48.5t43.5 86.5t-10.5 129l255 57q39 -137 21 -240.5t-85 -174t-179.5 -106t-263.5 -35.5 q-125 0 -226 25.5t-172 75.5t-109.5 122.5t-38.5 167.5q0 46 9.5 88.5t30.5 82.5t53 79t77 79q43 38 79.5 65l65.5 48.5t51 39.5t37 38.5t22.5 46t7.5 61.5v33h286zM789 1432v-305h-317v305h317z"/>
<glyph glyph-name="guillemotleft.cap" horiz-adv-x="1280" d="M918 263l-339 437l344 435h295l-336 -433l334 -439h-298zM393 263l-339 437l345 435h294l-335 -433l334 -439h-299z"/>
<glyph glyph-name="guillemotright.cap" horiz-adv-x="1280" d="M72 263l334 439l-335 433h295l342 -435l-338 -437h-298zM597 263l333 439l-335 433h295l345 -435l-340 -437h-298z"/>
<glyph glyph-name="guilsinglleft.cap" horiz-adv-x="753" d="M393 263l-339 437l345 435h294l-335 -433l334 -439h-299z"/>
<glyph glyph-name="guilsinglright.cap" horiz-adv-x="752" d="M87 263l333 439l-335 433h295l344 -435l-339 -437h-298z"/>
<glyph glyph-name="hyphen.cap" horiz-adv-x="922" d="M80 605v250h762v-250h-762z"/>
<glyph glyph-name="endash.cap" horiz-adv-x="1292" d="M-3 605v250h1298v-250h-1298z"/>
<glyph glyph-name="emdash.cap" horiz-adv-x="2054" d="M-3 605v250h2060v-250h-2060z"/>
<glyph glyph-name="periodcentered.cap" horiz-adv-x="536" d="M116 566v326h303v-326h-303z"/>
<glyph glyph-name="afii61352" unicode="№" horiz-adv-x="2389" d="M1664 525v165h654v-165h-654zM1995 815q-78 0 -144.5 21.5t-115 63t-76.5 102.5t-28 141q0 79 28 140.5t77 103t115.5 63t143.5 21.5t143.5 -21.5t115 -63t76.5 -102.5t28 -140q0 -80 -27.5 -141.5t-76 -103t-115 -63t-144.5 -21.5zM1995 954q75 0 115 46.5t40 143.5 t-40 143t-115 46t-115.5 -46.5t-40.5 -143.5t40.5 -143t115.5 -46zM1144 0l-636 892l-78 123l13 -145v-870h-286v1432h330l631 -893l78 -123l-14 145v871h287v-1432h-325z"/>
<glyph glyph-name="zero.slash" d="M477 261l936 945q186 -239 186 -476q0 -135 -42.5 -256t-124.5 -213h-955zM337 238q-88 111 -133 233t-45 259q0 58 10 119.5t31 120.5t52.5 112t73.5 95h948zM400 180h960q-117 -93 -236.5 -137t-246.5 -44q-139 0 -258 48t-219 133zM1360 1263h-969q116 87 236.5 134.5 t249.5 47.5q74 0 137 -15t121 -40.5t113 -58.5z"/>
<glyph glyph-name="uni1E9E" unicode="ẞ" horiz-adv-x="1575" d="M986 -31q-80 0 -142 12.5t-113 33.5t-94 48.5t-83 57.5l99 215q70 -52 137.5 -82t147.5 -30q55 0 96 16t68.5 43.5t41 65.5t13.5 83q0 58 -21.5 97.5t-64.5 66t-106 42t-145 26.5v203l213 226q-45 54 -111.5 88.5t-167.5 34.5q-131 0 -202.5 -78t-71.5 -232v-906h-322 v915q0 138 41 242t119 174t192 105t260 35q132 0 236.5 -33.5t183.5 -86t132 -115.5t82 -123l-280 -298q81 -15 149 -47t116.5 -81t75.5 -116.5t27 -154.5q0 -97 -33.5 -179t-98 -141.5t-159 -93t-215.5 -33.5z"/>
<glyph glyph-name="filledbox" unicode="■" horiz-adv-x="1285" d="M1049 977v-816h-815v816h815z"/>
<glyph glyph-name="uni25A1" unicode="□" horiz-adv-x="1285" d="M1101 1168v-921h-923v921h923zM425 493h430v429h-430v-429z"/>
<glyph glyph-name="uni25B3" unicode="△" horiz-adv-x="1600" d="M806 1526l731 -1527h-1472zM1125 217l-320 752l-323 -752h643z"/>
<glyph glyph-name="uni25B4" unicode="▴" horiz-adv-x="1285" d="M1049 384h-815l407 816z"/>
<glyph glyph-name="uni25B8" unicode="▸" horiz-adv-x="1202" d="M234 384v816l815 -410z"/>
<glyph glyph-name="uni25BD" unicode="▽" horiz-adv-x="1600" d="M65 1431h1472l-731 -1526zM482 1213l323 -752l320 752h-643z"/>
<glyph glyph-name="uni25BE" unicode="▾" horiz-adv-x="1285" d="M234 977h815l-408 -816z"/>
<glyph glyph-name="uni25C2" unicode="◂" horiz-adv-x="1174" d="M937 1200v-816l-814 406z"/>
<glyph glyph-name="uni25C6" unicode="◆" horiz-adv-x="1285" d="M1201 686l-559 -598l-559 598l559 587z"/>
<glyph glyph-name="uni25C7" unicode="◇" horiz-adv-x="1285" d="M1292 722l-651 -651l-654 652l653 651zM337 723l304 -303l302 302l-303 304z"/>
<glyph glyph-name="circle" unicode="○" horiz-adv-x="1285" d="M644 87q-108 0 -202 40.5t-164 111t-110 165.5t-40 203q0 107 40 201.5t110 165t164 111t202 40.5q107 0 201 -40.5t164 -111t110.5 -165t40.5 -201.5q0 -108 -40.5 -203t-110.5 -165.5t-164 -111t-201 -40.5zM643 318q58 0 108 22t87 60.5t58.5 91.5t21.5 115 q0 61 -21.5 113t-58.5 90.5t-87 60.5t-108 22t-108.5 -22t-88 -60.5t-59 -90.5t-21.5 -113q0 -62 21.5 -115t59 -91.5t88 -60.5t108.5 -22z"/>
<glyph glyph-name="uni25CF" unicode="●" horiz-adv-x="1285" d="M644 87q-108 0 -202 40.5t-164 111t-110 165.5t-40 203q0 107 40 201.5t110 165t164 111t202 40.5q107 0 201 -40.5t164 -111t110.5 -165t40.5 -201.5q0 -108 -40.5 -203t-110.5 -165.5t-164 -111t-201 -40.5z"/>
<glyph glyph-name="uni2611" unicode="☑" horiz-adv-x="1929" d="M212 1504h1506v-1504h-1506v1504zM1474 242v1021h-1020v-1021h1020zM1314 1118l-302 -719h-211l-178 362h191l81 -157l196 514h223z"/>
<glyph glyph-name="uni2612" unicode="☒" horiz-adv-x="1928" d="M1099 411l-139 218l-138 -218h-192l227 338l-212 319h200l124 -198l122 198h192l-209 -312l227 -345h-202zM212 1504h1506v-1504h-1506v1504zM1474 242v1021h-1020v-1021h1020z"/>
<glyph glyph-name="afii10145" unicode="Џ" horiz-adv-x="1605" d="M674 -260v260h-517v1432h323v-1181h645v1181h323v-1432h-480v-260h-294z"/>
<glyph glyph-name="afii10146" unicode="Ѣ" horiz-adv-x="1728" d="M779 937h353q117 0 217 -25.5t173.5 -81.5t115.5 -146t42 -219q0 -93 -22.5 -163.5t-63.5 -122t-97 -86t-122.5 -55.5t-141.5 -29.5t-153 -8.5h-617v1175h-450v257h1222v-257h-456v-238zM779 693v-449h316q46 0 91 8t80.5 31t57.5 66t22 112q0 64 -16 108.5t-47.5 72 t-77.5 39.5t-107 12h-319z"/>
<glyph glyph-name="afii10147" unicode="Ѳ" horiz-adv-x="1620" d="M810 -39q-176 0 -315 51.5t-235 149t-147 237t-51 316.5t51 317.5t147 238t235.5 149t316.5 51.5q175 0 313.5 -52t234.5 -149.5t147 -237.5t51 -317t-50.5 -316.5t-146.5 -237t-235 -149t-316 -51.5zM811 216q143 0 239.5 69.5t138.5 203.5l-789 280q-1 -14 -1 -27v-27 q0 -120 28 -212.5t80.5 -156.5t129 -97t174.5 -33zM811 1216q-143 0 -238.5 -68.5t-139.5 -199.5l787 -278q0 11 0.5 22.5t0.5 22.5q0 120 -27 213.5t-79.5 157t-128.5 97t-175 33.5z"/>
<glyph glyph-name="afii10148" unicode="Ѵ" horiz-adv-x="1493" d="M551 0l-542 1432h364l384 -1147l385 1147h342l-543 -1432h-390z"/>
<glyph glyph-name="afii10193" unicode="џ" horiz-adv-x="1390" d="M542 -182v182h-424v1026h306v-799h487v799h306v-1026h-398v-182h-277z"/>
<glyph glyph-name="afii10194" unicode="ѣ" horiz-adv-x="1202" d="M445 1116v-409h267q99 0 183 -20t145 -63t95.5 -110.5t34.5 -162.5q0 -106 -42.5 -174t-113 -107.5t-163 -54.5t-192.5 -15h-513v1116h-127v183h127v147h299v-147h300v-183h-300zM445 497v-286h242q30 0 60 5.5t54 20.5t39 43t15 73q0 77 -42 110.5t-123 33.5h-245z"/>
<glyph glyph-name="afii10195" unicode="ѳ" horiz-adv-x="1281" d="M641 -32q-128 0 -236.5 36.5t-187.5 106t-123 171t-44 231.5t44.5 231.5t123.5 171.5t187 106.5t236 36.5q127 0 235.5 -36.5t187 -106.5t123 -171t44.5 -230q0 -131 -44 -232.5t-122.5 -171.5t-187 -106.5t-236.5 -36.5zM641 179q91 0 154 41.5t94 125.5l-523 185v-18 q0 -166 73.5 -250t201.5 -84zM641 847q-89 0 -151.5 -39.5t-94.5 -118.5l521 -185v10q0 166 -73.5 249.5t-201.5 83.5z"/>
<glyph glyph-name="afii10196" unicode="ѵ" horiz-adv-x="1186" d="M418 0l-430 1026h335l246 -669l41 -142l42 142l246 669h299l-429 -1026h-350z"/>
<glyph glyph-name="afii10846" unicode="ә" horiz-adv-x="1229" d="M60 705q22 90 69 157t114.5 110.5t152.5 65t183 21.5q147 0 259 -39.5t187.5 -111.5t114 -173t38.5 -223q0 -123 -36.5 -223t-108.5 -171.5t-180 -110.5t-251 -39q-128 0 -230 36t-173 104.5t-109 166.5t-38 223v76h826q-6 65 -27.5 117t-58.5 88t-87.5 55t-113.5 19 q-49 0 -91 -9.5t-75 -31t-57 -56t-37 -84.5zM353 408q3 -57 19 -102.5t47.5 -78t79 -50t111.5 -17.5q61 0 108 18t79.5 51t51.5 78.5t25 100.5h-521z"/>
<glyph glyph-name="w_w_w" horiz-adv-x="3242" d="M1082 0l-174 590l-37 142l-36 -142l-176 -590h-327l-320 1026h309l168 -678l20 -93l23 94l188 677h303l187 -677l24 -94l19 92l168 679h348l189 -677l23 -94l20 92l168 679h349l189 -677l22 -94l20 92l167 679h309l-320 -1026h-328l-174 590l-28 108l-218 -698h-327 l-175 590l-28 108l-218 -698h-327z"/>
<glyph glyph-name="Bitcoin" unicode="₿" horiz-adv-x="1488" d="M669 -214v214h-512v1432h512v179h116v-179h109q232 0 357.5 -90t125.5 -271q0 -75 -28 -132t-75 -96.5t-109.5 -62t-132.5 -29.5q75 -5 144.5 -27.5t123 -64t86 -103t32.5 -144.5q0 -95 -30.5 -171t-94.5 -129.5t-163 -82.5t-237 -29h-108v-215zM785 634v-412h28 q61 0 110.5 8t84.5 30.5t54 62.5t19 105q0 60 -18 99.5t-50.5 63t-78 33.5t-100.5 10h-49zM785 1209v-373h46q45 0 84 10t67.5 33t44.5 59.5t16 90.5q0 52 -16.5 86.5t-45.5 55.5t-69 29.5t-87 8.5h-40zM669 222v412h-200v-412h200zM669 836v373h-200v-373h200z"/>
<glyph glyph-name="Ruble" unicode="₽" horiz-adv-x="1486" d="M27 370h194v124h-194v245h194v693h617q78 0 153 -8.5t141.5 -29.5t122.5 -55.5t97 -86t63.5 -122t22.5 -163.5q0 -129 -41.5 -219t-115 -146.5t-173.5 -82t-217 -25.5h-354v-124h543v-149h-543v-221h-316v221h-194v149zM537 739h319q61 0 107 12t77 39.5t47 71.5t16 109 q0 69 -22 111.5t-57 66t-79.5 31.5t-90.5 8h-317v-449z"/>
<glyph glyph-name="i.trk" horiz-adv-x="599" d="M146 0v1026h307v-1026h-307zM142 1162v270h314v-270h-314z"/>
<glyph glyph-name="parenleft.fitted" horiz-adv-x="701" d="M423 -264q-77 96 -137 202.5t-101 220.5t-62.5 234t-21.5 242q0 121 21.5 241t63 233t102 218t137.5 198l258 -48q-146 -198 -213.5 -406.5t-67.5 -438.5q0 -228 69 -436.5t215 -410.5z"/>
<glyph glyph-name="parenright.fitted" horiz-adv-x="700" d="M12 -216q145 202 213.5 411t68.5 437q0 229 -68 438.5t-212 406.5l257 48q77 -93 137.5 -198t102 -218t63 -233t21.5 -241q0 -246 -82.5 -476.5t-238.5 -424.5z"/>
<glyph glyph-name="hyphen.fitted" horiz-adv-x="922" d="M80 396v252h762v-252h-762z"/>
<glyph glyph-name="comma.fitted" horiz-adv-x="531" d="M102 -182q39 13 63.5 31t38.5 40.5t18.5 50t3.5 60.5h-115v298h311v-285q0 -53 -15 -105t-49.5 -95.5t-90.5 -75t-138 -42.5z"/>
<glyph glyph-name="period.fitted" horiz-adv-x="536" d="M116 0v325h303v-325h-303z"/>
<glyph glyph-name="cent.fitted" horiz-adv-x="1258" d="M566 -185v156q-116 9 -211 49t-163 109t-105 165.5t-37 217.5q0 124 36.5 222t104 167.5t162.5 109t213 46.5v163h177v-174q154 -32 248 -137t113 -271l-248 -63q-6 62 -21.5 111t-43 82.5t-68.5 51.5t-98 18q-121 0 -190 -83.5t-69 -241.5q0 -84 19.5 -145t55.5 -101 t88 -59t117 -19q100 0 161.5 52.5t83.5 142.5l246 -69q-15 -60 -46.5 -115t-80 -100.5t-115.5 -77.5t-152 -45v-162h-177z"/>
<glyph glyph-name="dollar.fitted" horiz-adv-x="1411" d="M664 -214v176q-117 5 -220.5 37.5t-183 91t-131 143t-66.5 192.5l279 70q6 -63 32 -111t67.5 -81.5t98 -52.5t124.5 -23v395l-143 41q-93 28 -166.5 66t-124.5 88.5t-77.5 114t-26.5 141.5q0 97 37 171t106.5 123.5t169.5 75t225 27.5v140h117v-146q90 -11 172 -41.5 t147.5 -82.5t111 -125t63.5 -168l-267 -56q-11 52 -33.5 89t-52.5 62t-66 39.5t-75 21.5v-340l94 -25q102 -32 180 -71t130.5 -90.5t79 -118.5t26.5 -157q0 -98 -35 -176t-101 -133.5t-160.5 -88t-213.5 -40.5v-179zM437 1075q0 -38 17 -65t45.5 -47t65.5 -34.5t77 -27.5 l22 -6v317q-58 -2 -100.5 -13t-70.5 -29.5t-42 -43t-14 -51.5zM969 398q0 37 -11.5 64.5t-35 49t-59 39.5t-82.5 35v-354q52 7 88 23.5t58.5 39t32 49.5t9.5 54z"/>
<glyph glyph-name="parenleft.tadoldstyle" horiz-adv-x="701" d="M423 -264q-77 96 -137 202.5t-101 220.5t-62.5 234t-21.5 242q0 121 21.5 241t63 233t102 218t137.5 198l258 -48q-146 -198 -213.5 -406.5t-67.5 -438.5q0 -228 69 -436.5t215 -410.5z"/>
<glyph glyph-name="parenright.tadoldstyle" horiz-adv-x="700" d="M12 -216q145 202 213.5 411t68.5 437q0 229 -68 438.5t-212 406.5l257 48q77 -93 137.5 -198t102 -218t63 -233t21.5 -241q0 -246 -82.5 -476.5t-238.5 -424.5z"/>
<glyph glyph-name="hyphen.tadoldstyle" horiz-adv-x="922" d="M80 396v252h762v-252h-762z"/>
<glyph glyph-name="comma.tadoldstyle" horiz-adv-x="531" d="M102 -182q39 13 63.5 31t38.5 40.5t18.5 50t3.5 60.5h-115v298h311v-285q0 -53 -15 -105t-49.5 -95.5t-90.5 -75t-138 -42.5z"/>
<glyph glyph-name="period.tadoldstyle" horiz-adv-x="536" d="M116 0v325h303v-325h-303z"/>
<glyph glyph-name="cent.tadoldstyle" horiz-adv-x="1258" d="M566 -185v156q-116 9 -211 49t-163 109t-105 165.5t-37 217.5q0 124 36.5 222t104 167.5t162.5 109t213 46.5v163h177v-174q154 -32 248 -137t113 -271l-248 -63q-6 62 -21.5 111t-43 82.5t-68.5 51.5t-98 18q-121 0 -190 -83.5t-69 -241.5q0 -84 19.5 -145t55.5 -101 t88 -59t117 -19q100 0 161.5 52.5t83.5 142.5l246 -69q-15 -60 -46.5 -115t-80 -100.5t-115.5 -77.5t-152 -45v-162h-177z"/>
<glyph glyph-name="dollar.tadoldstyle" horiz-adv-x="1411" d="M664 -214v177q-116 6 -217 39t-179 91.5t-128.5 142t-65.5 190.5l279 70q6 -62 30.5 -109t65 -80.5t95 -53t120.5 -24.5v397l-132 38q-93 28 -166.5 66t-124.5 88.5t-77.5 114t-26.5 141.5q0 96 36.5 169t104.5 122.5t165.5 76t220.5 29.5v140h117v-145q91 -9 175 -39.5 t151.5 -82t114.5 -125.5t65 -171l-268 -56q-12 54 -35.5 92t-55 63t-69.5 39t-78 20v-339l105 -28q102 -32 180 -70.5t130.5 -90t79 -119t26.5 -157.5q0 -99 -36 -177.5t-103 -134.5t-164 -88t-218 -39v-178zM979 398q0 37 -12 65t-36.5 50.5t-62 40.5t-87.5 36v-360 q55 6 93 22.5t61.5 39.5t33.5 50.5t10 55.5zM448 1075q0 -38 17 -64.5t45.5 -46.5t65.5 -35t77 -28l11 -3v313q-109 -5 -162.5 -43.5t-53.5 -92.5z"/>
<glyph glyph-name="idieresis" unicode="ï" horiz-adv-x="599" d="M-73 1185v256h264v-256h-264zM390 1185v256h263v-256h-263zM146 0v1026h307v-1026h-307z"/>
<glyph glyph-name="afii10023" unicode="Ё" horiz-adv-x="1341" d="M157 0v1432h1100v-257h-777v-330h639v-234h-639v-354h794v-257h-1117zM352 1561v256h264v-256h-264zM815 1561v256h263v-256h-263z"/>
<glyph glyph-name="afii10027" unicode="Й" horiz-adv-x="1626" d="M1182 1905q-4 -64 -25.5 -117t-63.5 -90.5t-107 -58t-157 -20.5q-91 0 -155.5 21t-106 58.5t-62.5 90t-25 115.5l193 39q3 -74 40.5 -116t115.5 -42q79 0 118 42t42 116zM157 0v1432h286v-871l-13 -145l77 123l632 893h330v-1432h-287v870l14 145l-79 -123l-635 -892 h-325z"/>
<glyph glyph-name="afii10056" unicode="Ї" horiz-adv-x="951" d="M637 1180v-928h231v-252h-781v252h227v928h-227v252h781v-252h-231zM108 1560v256h264v-256h-264zM571 1560v256h263v-256h-263z"/>
<glyph glyph-name="afii10071" unicode="ё" horiz-adv-x="1222" d="M933 351l210 -84q-79 -143 -201 -221t-297 -78q-147 0 -258.5 39.5t-186 111.5t-112 172.5t-37.5 223.5t36.5 223.5t108.5 171.5t179.5 110t250.5 39q129 0 229.5 -38t170 -108.5t106 -170t36.5 -221.5v-65h-830q3 -67 27 -120t64.5 -89.5t96 -56t122.5 -19.5 q94 0 166 43t110 137h9zM878 615q-2 57 -19 104.5t-49.5 81t-80 52t-110.5 18.5q-61 0 -110.5 -19t-85.5 -53t-57.5 -81t-25.5 -103h538zM286 1186v256h264v-256h-264zM749 1186v256h263v-256h-263z"/>
<glyph glyph-name="afii10075" unicode="й" horiz-adv-x="1392" d="M1046 1470q-4 -64 -25.5 -117t-63.5 -90.5t-107 -58t-157 -20.5q-91 0 -155.5 21t-106 58.5t-62.5 90t-25 115.5l193 39q3 -74 40.5 -116t115.5 -42q79 0 118 42t42 116zM145 0v1026h297v-560l-11 -122l65 100l439 582h311v-1026h-298v561l12 119l-66 -98l-444 -582h-305 z"/>
<glyph glyph-name="afii10104" unicode="ї" horiz-adv-x="599" d="M-64 1173v256h264v-256h-264zM399 1173v256h263v-256h-263zM146 0v1026h307v-1026h-307z"/>
<glyph glyph-name="Eth" unicode="Ð" horiz-adv-x="1589" d="M157 0v589h-147v251h147v592h592q182 0 326 -45t244.5 -133.5t154 -221t53.5 -307.5q0 -190 -55.5 -327t-159 -225.5t-250.5 -130.5t-330 -42h-575zM759 251q111 0 192 33t134.5 96t79.5 153t26 204q0 222 -106.5 333t-314.5 111h-294v-341h294v-251h-294v-338h283z"/>
<glyph glyph-name="lira" unicode="₤" horiz-adv-x="1535" d="M763 502q6 -119 -19 -214q51 -26 93 -45t80 -31t75.5 -18t81.5 -6q51 0 91 9.5t71.5 25.5t56 38t42.5 46l156 -100q-29 -60 -72.5 -105t-97.5 -75t-116 -44.5t-127 -14.5q-103 -1 -209.5 26.5t-226.5 95.5q-54 -59 -129.5 -90.5t-174.5 -31.5q-74 0 -129 18t-92 48.5 t-55.5 70t-18.5 81.5q0 67 26.5 111.5t66.5 71.5t86.5 38t87.5 11q35 0 82 -7t99 -20q1 26 0 53.5t-4 57.5h-232v125h213q-9 45 -21 93h-192v123h144q-10 32 -17.5 74t-7.5 90q0 95 38.5 174t107 135.5t163 88t206.5 31.5q117 0 211.5 -21t163 -66.5t110 -117t52.5 -172.5 l-261 -53q-11 63 -37 102.5t-61.5 62t-78 30.5t-84.5 8q-67 0 -111.5 -20t-71.5 -52t-38 -72t-11 -81q0 -29 5.5 -67.5t18.5 -73.5h441v-123h-407q6 -24 11 -47t9 -46h387v-125h-374zM343 144q69 0 107 69q-35 20 -60 27.5t-55 7.5q-33 0 -51 -14.5t-18 -38.5q0 -23 21 -37 t56 -14z"/>
<glyph glyph-name="Aacute" unicode="Á" horiz-adv-x="1556" d="M1088 300h-633l-106 -300h-329l560 1432h397l558 -1432h-341zM546 558h450l-225 637zM657 1591l188 295h324l-286 -295h-226z"/>
<glyph glyph-name="Abreve" unicode="Ă" horiz-adv-x="1556" d="M1088 300h-633l-106 -300h-329l560 1432h397l558 -1432h-341zM546 558h450l-225 637zM1122 1878q-4 -64 -25.5 -117t-63.5 -90.5t-107 -58t-157 -20.5q-91 0 -155.5 21t-106 58.5t-62.5 90t-25 115.5l193 39q3 -74 40.5 -116t115.5 -42q79 0 118 42t42 116z"/>
<glyph glyph-name="Acircumflex" unicode="Â" horiz-adv-x="1556" d="M1088 300h-633l-106 -300h-329l560 1432h397l558 -1432h-341zM546 558h450l-225 637zM919 1888l244 -296h-247l-144 179l-142 -179h-249l244 296h294z"/>
<glyph glyph-name="Agrave" unicode="À" horiz-adv-x="1556" d="M1088 300h-633l-106 -300h-329l560 1432h397l558 -1432h-341zM546 558h450l-225 637zM653 1591l-285 295h323l189 -295h-227z"/>
<glyph glyph-name="Adieresis" unicode="Ä" horiz-adv-x="1556" d="M1088 300h-633l-106 -300h-329l560 1432h397l558 -1432h-341zM546 558h450l-225 637zM411 1592v256h264v-256h-264zM874 1592v256h263v-256h-263z"/>
<glyph glyph-name="Amacron" unicode="Ā" horiz-adv-x="1556" d="M1088 300h-633l-106 -300h-329l560 1432h397l558 -1432h-341zM546 558h450l-225 637zM419 1595v198h709v-198h-709z"/>
<glyph glyph-name="Aogonek" unicode="Ą" horiz-adv-x="1556" d="M1088 300h-633l-106 -300h-329l560 1432h397l558 -1432h-341zM546 558h450l-225 637zM1553 -338q-32 -26 -84 -43t-123 -17q-55 0 -100 11.5t-77 34.5t-49.5 56t-17.5 77q0 34 14 69t42.5 66t71.5 56.5t100 40.5l197 -13q-46 -15 -83.5 -33t-64.5 -39.5t-41.5 -45.5 t-14.5 -51q0 -35 18.5 -57.5t66.5 -22.5q50 0 89 31z"/>
<glyph glyph-name="Aring" unicode="Å" horiz-adv-x="1556" d="M1088 300h-633l-106 -300h-329l560 1432h397l558 -1432h-341zM546 558h450l-225 637zM778 1332q-65 0 -116.5 16.5t-88.5 46.5t-56.5 72t-19.5 93q0 52 19.5 94t56.5 72t88.5 46t116.5 16q64 0 116 -16t88.5 -46t56 -72t19.5 -94q0 -51 -19.5 -93t-56 -72t-88.5 -46.5 t-116 -16.5zM778 1468q53 0 81.5 24.5t28.5 67.5q0 42 -28.5 67.5t-81.5 25.5q-54 0 -82 -25.5t-28 -67.5q0 -43 28 -67.5t82 -24.5z"/>
<glyph glyph-name="Atilde" unicode="Ã" horiz-adv-x="1556" d="M1088 300h-633l-106 -300h-329l560 1432h397l558 -1432h-341zM546 558h450l-225 637zM346 1628q10 131 73.5 196t176.5 65q28 0 53 -5.5t48.5 -15t48 -22.5l52.5 -28q51 -26 78.5 -35t49.5 -9q28 0 46.5 11.5t30 28.5t16 37t6.5 36l177 -34q-9 -129 -72 -195t-178 -66 q-32 0 -58.5 6.5t-50 16.5t-46 23t-47.5 25l-25 13.5t-30.5 14.5t-34.5 12t-36 5q-30 0 -48.5 -12t-30 -29t-16 -37t-5.5 -35z"/>
<glyph glyph-name="AEacute" unicode="Ǽ" horiz-adv-x="2194" d="M1080 319h-619l-112 -319h-329l559 1432h1381v-250h-886l131 -335h758v-234h-667l141 -362h704v-251h-948zM542 547h457l-229 648zM1042 1590l188 295h324l-286 -295h-226z"/>
<glyph glyph-name="Cacute" unicode="Ć" horiz-adv-x="1535" d="M1169 794q-8 112 -42 189.5t-85 125.5t-116 69.5t-134 21.5q-92 0 -164.5 -31.5t-123.5 -93.5t-78 -154t-27 -214q0 -117 28.5 -205.5t82.5 -148.5t131 -90.5t174 -30.5q66 0 126 17t109.5 52t86 88t57.5 125l289 -84q-28 -102 -86 -188t-144.5 -148.5t-200 -97.5 t-251.5 -35q-174 0 -311.5 51.5t-232.5 148.5t-145 236.5t-50 316.5q0 178 49.5 318.5t143.5 238t229.5 149t308.5 51.5q141 0 263 -41t213.5 -120t146 -195.5t60.5 -267.5l-298 -59zM685 1590l188 295h324l-286 -295h-226z"/>
<glyph glyph-name="Ccaron" unicode="Č" horiz-adv-x="1535" d="M1169 794q-8 112 -42 189.5t-85 125.5t-116 69.5t-134 21.5q-92 0 -164.5 -31.5t-123.5 -93.5t-78 -154t-27 -214q0 -117 28.5 -205.5t82.5 -148.5t131 -90.5t174 -30.5q66 0 126 17t109.5 52t86 88t57.5 125l289 -84q-28 -102 -86 -188t-144.5 -148.5t-200 -97.5 t-251.5 -35q-174 0 -311.5 51.5t-232.5 148.5t-145 236.5t-50 316.5q0 178 49.5 318.5t143.5 238t229.5 149t308.5 51.5q141 0 263 -41t213.5 -120t146 -195.5t60.5 -267.5l-298 -59zM652 1590l-244 296h249l142 -179l144 179h247l-244 -296h-294z"/>
<glyph glyph-name="Ccedilla" unicode="Ç" horiz-adv-x="1535" d="M1169 794q-8 112 -42 189.5t-85 125.5t-116 69.5t-134 21.5q-92 0 -164.5 -31.5t-123.5 -93.5t-78 -154t-27 -214q0 -117 28.5 -205.5t82.5 -148.5t131 -90.5t174 -30.5q66 0 126 17t109.5 52t86 88t57.5 125l289 -84q-28 -102 -86 -188t-144.5 -148.5t-200 -97.5 t-251.5 -35q-174 0 -311.5 51.5t-232.5 148.5t-145 236.5t-50 316.5q0 178 49.5 318.5t143.5 238t229.5 149t308.5 51.5q141 0 263 -41t213.5 -120t146 -195.5t60.5 -267.5l-298 -59zM653 -307q12 -6 31.5 -12t41.5 -11.5t44.5 -8.5t42.5 -3q51 0 78.5 15.5t27.5 47.5 q0 31 -22.5 47.5t-60.5 16.5q-27 0 -46.5 -7t-32.5 -18l-110 15l62 209l151 -11l-64 -122q20 12 46 18t67 6q49 0 88.5 -12t67 -33.5t42 -52t14.5 -66.5q0 -85 -75.5 -130t-210.5 -45q-31 0 -62 4t-60 10.5t-53.5 15t-41.5 18.5z"/>
<glyph glyph-name="Ccircumflex" unicode="Ĉ" horiz-adv-x="1535" d="M1169 794q-8 112 -42 189.5t-85 125.5t-116 69.5t-134 21.5q-92 0 -164.5 -31.5t-123.5 -93.5t-78 -154t-27 -214q0 -117 28.5 -205.5t82.5 -148.5t131 -90.5t174 -30.5q66 0 126 17t109.5 52t86 88t57.5 125l289 -84q-28 -102 -86 -188t-144.5 -148.5t-200 -97.5 t-251.5 -35q-174 0 -311.5 51.5t-232.5 148.5t-145 236.5t-50 316.5q0 178 49.5 318.5t143.5 238t229.5 149t308.5 51.5q141 0 263 -41t213.5 -120t146 -195.5t60.5 -267.5l-298 -59zM946 1886l244 -296h-247l-144 179l-142 -179h-249l244 296h294z"/>
<glyph glyph-name="Cdotaccent" unicode="Ċ" horiz-adv-x="1535" d="M1169 794q-8 112 -42 189.5t-85 125.5t-116 69.5t-134 21.5q-92 0 -164.5 -31.5t-123.5 -93.5t-78 -154t-27 -214q0 -117 28.5 -205.5t82.5 -148.5t131 -90.5t174 -30.5q66 0 126 17t109.5 52t86 88t57.5 125l289 -84q-28 -102 -86 -188t-144.5 -148.5t-200 -97.5 t-251.5 -35q-174 0 -311.5 51.5t-232.5 148.5t-145 236.5t-50 316.5q0 178 49.5 318.5t143.5 238t229.5 149t308.5 51.5q141 0 263 -41t213.5 -120t146 -195.5t60.5 -267.5l-298 -59zM669 1589v273h269v-273h-269z"/>
<glyph glyph-name="Dcaron" unicode="Ď" horiz-adv-x="1589" d="M157 0v1432h591q182 0 326.5 -45t245 -133.5t154 -221t53.5 -307.5q0 -190 -55.5 -327t-159 -225.5t-250.5 -130.5t-330 -42h-575zM759 251q111 0 192 33t134.5 96t79.5 153t26 204q0 222 -107 333t-314 111h-294v-930h283zM577 1589l-244 296h249l142 -179l144 179h247 l-244 -296h-294z"/>
<glyph glyph-name="Dcroat" unicode="Đ" horiz-adv-x="1589" d="M157 0v1432h591q182 0 326.5 -45t245 -133.5t154 -221t53.5 -307.5q0 -190 -55.5 -327t-159 -225.5t-250.5 -130.5t-330 -42h-575zM759 251q111 0 192 33t134.5 96t79.5 153t26 204q0 222 -107 333t-314 111h-294v-930h283zM32 615v198h709v-198h-709z"/>
<glyph glyph-name="Eacute" unicode="É" horiz-adv-x="1341" d="M157 0v1432h1100v-257h-777v-330h639v-234h-639v-354h794v-257h-1117zM610 1590l188 295h324l-286 -295h-226z"/>
<glyph glyph-name="Ebreve" unicode="Ĕ" horiz-adv-x="1341" d="M157 0v1432h1100v-257h-777v-330h639v-234h-639v-354h794v-257h-1117zM1074 1876q-4 -64 -25.5 -117t-63.5 -90.5t-107 -58t-157 -20.5q-91 0 -155.5 21t-106 58.5t-62.5 90t-25 115.5l193 39q3 -74 40.5 -116t115.5 -42q79 0 118 42t42 116z"/>
<glyph glyph-name="Ecaron" unicode="Ě" horiz-adv-x="1341" d="M157 0v1432h1100v-257h-777v-330h639v-234h-639v-354h794v-257h-1117zM576 1590l-244 296h249l142 -179l144 179h247l-244 -296h-294z"/>
<glyph glyph-name="Ecircumflex" unicode="Ê" horiz-adv-x="1341" d="M157 0v1432h1100v-257h-777v-330h639v-234h-639v-354h794v-257h-1117zM871 1886l244 -296h-247l-144 179l-142 -179h-249l244 296h294z"/>
<glyph glyph-name="Edieresis" unicode="Ë" horiz-adv-x="1341" d="M157 0v1432h1100v-257h-777v-330h639v-234h-639v-354h794v-257h-1117zM363 1591v256h264v-256h-264zM826 1591v256h263v-256h-263z"/>
<glyph glyph-name="Edotaccent" unicode="Ė" horiz-adv-x="1341" d="M157 0v1432h1100v-257h-777v-330h639v-234h-639v-354h794v-257h-1117zM593 1589v273h269v-273h-269z"/>
<glyph glyph-name="Egrave" unicode="È" horiz-adv-x="1341" d="M157 0v1432h1100v-257h-777v-330h639v-234h-639v-354h794v-257h-1117zM605 1590l-285 295h323l189 -295h-227z"/>
<glyph glyph-name="Emacron" unicode="Ē" horiz-adv-x="1341" d="M157 0v1432h1100v-257h-777v-330h639v-234h-639v-354h794v-257h-1117zM371 1593v198h709v-198h-709z"/>
<glyph glyph-name="Eogonek" unicode="Ę" horiz-adv-x="1341" d="M157 0v1432h1100v-257h-777v-330h639v-234h-639v-354h794v-257h-1117zM1282 -338q-32 -26 -84 -43t-123 -17q-55 0 -100 11.5t-77 34.5t-49.5 56t-17.5 77q0 34 14 69t42.5 66t71.5 56.5t100 40.5l197 -13q-46 -15 -83.5 -33t-64.5 -39.5t-41.5 -45.5t-14.5 -51 q0 -35 18.5 -57.5t66.5 -22.5q50 0 89 31z"/>
<glyph glyph-name="Gbreve" unicode="Ğ" horiz-adv-x="1574" d="M1156 894q-23 152 -115 231t-240 79q-95 0 -170.5 -32.5t-128 -94.5t-80.5 -152.5t-28 -205.5q0 -124 28.5 -217t81.5 -155t130 -93t175 -31q78 0 143.5 23t114.5 64.5t79 99.5t35 128h-358v212h668q0 -100 -0.5 -201.5t2 -198.5t8.5 -186t20 -164h-226q-6 40 -9.5 83.5 t-5.5 86t-3 83.5t-2 76q-12 -62 -52 -127t-105.5 -118.5t-155.5 -88t-202 -34.5q-165 0 -294.5 55.5t-219 154.5t-137 235.5t-47.5 298.5q0 159 46.5 299t139 243.5t232 163.5t325.5 60q132 0 241.5 -34.5t193.5 -100.5t140 -161.5t81 -218.5l-293 -61zM1160 1876 q-4 -64 -25.5 -117t-63.5 -90.5t-107 -58t-157 -20.5q-91 0 -155.5 21t-106 58.5t-62.5 90t-25 115.5l193 39q3 -74 40.5 -116t115.5 -42q79 0 118 42t42 116z"/>
<glyph glyph-name="Gcircumflex" unicode="Ĝ" horiz-adv-x="1574" d="M1156 894q-23 152 -115 231t-240 79q-95 0 -170.5 -32.5t-128 -94.5t-80.5 -152.5t-28 -205.5q0 -124 28.5 -217t81.5 -155t130 -93t175 -31q78 0 143.5 23t114.5 64.5t79 99.5t35 128h-358v212h668q0 -100 -0.5 -201.5t2 -198.5t8.5 -186t20 -164h-226q-6 40 -9.5 83.5 t-5.5 86t-3 83.5t-2 76q-12 -62 -52 -127t-105.5 -118.5t-155.5 -88t-202 -34.5q-165 0 -294.5 55.5t-219 154.5t-137 235.5t-47.5 298.5q0 159 46.5 299t139 243.5t232 163.5t325.5 60q132 0 241.5 -34.5t193.5 -100.5t140 -161.5t81 -218.5l-293 -61zM956 1886l244 -296 h-247l-144 179l-142 -179h-249l244 296h294z"/>
<glyph glyph-name="Gcommaaccent" unicode="Ģ" horiz-adv-x="1574" d="M1156 894q-23 152 -115 231t-240 79q-95 0 -170.5 -32.5t-128 -94.5t-80.5 -152.5t-28 -205.5q0 -124 28.5 -217t81.5 -155t130 -93t175 -31q78 0 143.5 23t114.5 64.5t79 99.5t35 128h-358v212h668q0 -100 -0.5 -201.5t2 -198.5t8.5 -186t20 -164h-226q-6 40 -9.5 83.5 t-5.5 86t-3 83.5t-2 76q-12 -62 -52 -127t-105.5 -118.5t-155.5 -88t-202 -34.5q-165 0 -294.5 55.5t-219 154.5t-137 235.5t-47.5 298.5q0 159 46.5 299t139 243.5t232 163.5t325.5 60q132 0 241.5 -34.5t193.5 -100.5t140 -161.5t81 -218.5l-293 -61zM660 -495 q28 11 45 21t25.5 21.5t11 25.5t2.5 33h-70v245h232v-224q0 -102 -53.5 -160t-165.5 -85z"/>
<glyph glyph-name="Gdotaccent" unicode="Ġ" horiz-adv-x="1574" d="M1156 894q-23 152 -115 231t-240 79q-95 0 -170.5 -32.5t-128 -94.5t-80.5 -152.5t-28 -205.5q0 -124 28.5 -217t81.5 -155t130 -93t175 -31q78 0 143.5 23t114.5 64.5t79 99.5t35 128h-358v212h668q0 -100 -0.5 -201.5t2 -198.5t8.5 -186t20 -164h-226q-6 40 -9.5 83.5 t-5.5 86t-3 83.5t-2 76q-12 -62 -52 -127t-105.5 -118.5t-155.5 -88t-202 -34.5q-165 0 -294.5 55.5t-219 154.5t-137 235.5t-47.5 298.5q0 159 46.5 299t139 243.5t232 163.5t325.5 60q132 0 241.5 -34.5t193.5 -100.5t140 -161.5t81 -218.5l-293 -61zM678 1589v273h269 v-273h-269z"/>
<glyph glyph-name="Hbar" unicode="Ħ" horiz-adv-x="1624" d="M1144 0v592h-664v-592h-323v1432h323v-574h664v574h322v-1432h-322z"/>
<glyph glyph-name="Hcircumflex" unicode="Ĥ" horiz-adv-x="1624" d="M1144 0v592h-664v-592h-323v1432h323v-574h664v574h322v-1432h-322zM964 1883l244 -296h-247l-144 179l-142 -179h-249l244 296h294z"/>
<glyph glyph-name="Iacute" unicode="Í" horiz-adv-x="951" d="M637 1180v-928h231v-252h-781v252h227v928h-227v252h781v-252h-231zM348 1590l188 295h324l-286 -295h-226z"/>
<glyph glyph-name="Ibreve" unicode="Ĭ" horiz-adv-x="951" d="M637 1180v-928h231v-252h-781v252h227v928h-227v252h781v-252h-231zM814 1877q-4 -64 -25.5 -117t-63.5 -90.5t-107 -58t-157 -20.5q-91 0 -155.5 21t-106 58.5t-62.5 90t-25 115.5l193 39q3 -74 40.5 -116t115.5 -42q79 0 118 42t42 116z"/>
<glyph glyph-name="Icircumflex" unicode="Î" horiz-adv-x="951" d="M637 1180v-928h231v-252h-781v252h227v928h-227v252h781v-252h-231zM608 1887l244 -296h-247l-144 179l-142 -179h-249l244 296h294z"/>
<glyph glyph-name="Idieresis" unicode="Ï" horiz-adv-x="951" d="M637 1180v-928h231v-252h-781v252h227v928h-227v252h781v-252h-231zM107 1591v256h264v-256h-264zM570 1591v256h263v-256h-263z"/>
<glyph glyph-name="Idotaccent" unicode="İ" horiz-adv-x="951" d="M637 1180v-928h231v-252h-781v252h227v928h-227v252h781v-252h-231zM337 1590v273h269v-273h-269z"/>
<glyph glyph-name="Igrave" unicode="Ì" horiz-adv-x="951" d="M637 1180v-928h231v-252h-781v252h227v928h-227v252h781v-252h-231zM358 1590l-285 295h323l189 -295h-227z"/>
<glyph glyph-name="Imacron" unicode="Ī" horiz-adv-x="951" d="M637 1180v-928h231v-252h-781v252h227v928h-227v252h781v-252h-231zM119 1593v198h709v-198h-709z"/>
<glyph glyph-name="Iogonek" unicode="Į" horiz-adv-x="951" d="M637 1180v-928h231v-252h-781v252h227v928h-227v252h781v-252h-231zM625 -338q-32 -26 -84 -43t-123 -17q-55 0 -100 11.5t-77 34.5t-49.5 56t-17.5 77q0 34 14 69t42.5 66t71.5 56.5t100 40.5l197 -13q-46 -15 -83.5 -33t-64.5 -39.5t-41.5 -45.5t-14.5 -51 q0 -35 18.5 -57.5t66.5 -22.5q50 0 89 31z"/>
<glyph glyph-name="Itilde" unicode="Ĩ" horiz-adv-x="951" d="M637 1180v-928h231v-252h-781v252h227v928h-227v252h781v-252h-231zM34 1627q10 131 73.5 196t176.5 65q28 0 53 -5.5t48.5 -15t48 -22.5l52.5 -28q51 -26 78.5 -35t49.5 -9q28 0 46.5 11.5t30 28.5t16 37t6.5 36l177 -34q-9 -129 -72 -195t-178 -66q-32 0 -58.5 6.5 t-50 16.5t-46 23t-47.5 25l-25 13.5t-30.5 14.5t-34.5 12t-36 5q-30 0 -48.5 -12t-30 -29t-16 -37t-5.5 -35z"/>
<glyph glyph-name="Jcircumflex" unicode="Ĵ" horiz-adv-x="1232" d="M561 235q65 0 108.5 23.5t69.5 61.5t37 86.5t11 98.5v927h322v-912q0 -124 -30 -226.5t-94 -176.5t-164 -115t-239 -41q-144 0 -245.5 39.5t-165 104.5t-92.5 148.5t-29 172.5q0 42 4.5 82t10.5 73.5t12.5 59t11.5 39.5l283 -64q-11 -25 -19.5 -65.5t-8.5 -91.5 q0 -48 14 -89t42 -71t68 -47t93 -17zM1092 1887l244 -296h-247l-144 179l-142 -179h-249l244 296h294z"/>
<glyph glyph-name="Kcommaaccent" unicode="Ķ" horiz-adv-x="1529" d="M1143 0l-432 674l-239 -236l7 -438h-323v1432h323l-7 -646l621 646h377l-532 -548l569 -884h-364zM656 -422q28 11 45 21t25.5 21.5t11 25.5t2.5 33h-70v245h232v-224q0 -102 -53.5 -160t-165.5 -85z"/>
<glyph glyph-name="Lacute" unicode="Ĺ" horiz-adv-x="1277" d="M157 -1v1432h323v-1163h753v-269h-1076zM200 1590l188 295h324l-286 -295h-226z"/>
<glyph glyph-name="Lcaron" unicode="Ľ" horiz-adv-x="1277" d="M157 -1v1432h323v-1163h753v-269h-1076zM1014 1087q28 11 45 21t25.5 21.5t11 25.5t2.5 33h-70v245h232v-224q0 -102 -53.5 -160t-165.5 -85z"/>
<glyph glyph-name="Lcommaaccent" unicode="Ļ" horiz-adv-x="1277" d="M157 -1v1432h323v-1163h753v-269h-1076zM560 -431q28 11 45 21t25.5 21.5t11 25.5t2.5 33h-70v245h232v-224q0 -102 -53.5 -160t-165.5 -85z"/>
<glyph glyph-name="Ldot" unicode="Ŀ" horiz-adv-x="1277" d="M157 -1v1432h323v-1163h753v-269h-1076zM755 619v326h303v-326h-303z"/>
<glyph glyph-name="Lslash" unicode="Ł" horiz-adv-x="1347" d="M227 0v543l-152 -64l-94 227l246 103v623h322v-487l184 78l93 -227l-277 -117v-428h753v-251h-1075z"/>
<glyph glyph-name="Nacute" unicode="Ń" horiz-adv-x="1626" d="M1144 0l-636 892l-78 123l13 -145v-870h-286v1432h330l631 -893l78 -123l-14 145v871h287v-1432h-325zM709 1590l188 295h324l-286 -295h-226z"/>
<glyph glyph-name="Ncaron" unicode="Ň" horiz-adv-x="1626" d="M1144 0l-636 892l-78 123l13 -145v-870h-286v1432h330l631 -893l78 -123l-14 145v871h287v-1432h-325zM676 1589l-244 296h249l142 -179l144 179h247l-244 -296h-294z"/>
<glyph glyph-name="Ncommaaccent" unicode="Ņ" horiz-adv-x="1626" d="M1144 0l-636 892l-78 123l13 -145v-870h-286v1432h330l631 -893l78 -123l-14 145v871h287v-1432h-325zM669 -428q28 11 45 21t25.5 21.5t11 25.5t2.5 33h-70v245h232v-224q0 -102 -53.5 -160t-165.5 -85z"/>
<glyph glyph-name="Ntilde" unicode="Ñ" horiz-adv-x="1626" d="M1144 0l-636 892l-78 123l13 -145v-870h-286v1432h330l631 -893l78 -123l-14 145v871h287v-1432h-325zM397 1626q10 131 73.5 196t176.5 65q28 0 53 -5.5t48.5 -15t48 -22.5l52.5 -28q51 -26 78.5 -35t49.5 -9q28 0 46.5 11.5t30 28.5t16 37t6.5 36l177 -34 q-9 -129 -72 -195t-178 -66q-32 0 -58.5 6.5t-50 16.5t-46 23t-47.5 25l-25 13.5t-30.5 14.5t-34.5 12t-36 5q-30 0 -48.5 -12t-30 -29t-16 -37t-5.5 -35z"/>
<glyph glyph-name="Oacute" unicode="Ó" horiz-adv-x="1620" d="M810 -39q-176 0 -315 51.5t-235 149t-147 237t-51 316.5t51 317.5t147 238t235.5 149t316.5 51.5q175 0 313.5 -52t234.5 -149.5t147 -237.5t51 -317t-50.5 -316.5t-146.5 -237t-235 -149t-316 -51.5zM811 232q95 0 171 30.5t129 91.5t81.5 151t28.5 210t-28 211 t-81 151.5t-129 91.5t-172 31t-172 -31t-129.5 -91.5t-82 -151.5t-28.5 -211t28.5 -210t82 -151t130 -91.5t171.5 -30.5zM698 1590l188 295h324l-286 -295h-226z"/>
<glyph glyph-name="Obreve" unicode="Ŏ" horiz-adv-x="1620" d="M810 -39q-176 0 -315 51.5t-235 149t-147 237t-51 316.5t51 317.5t147 238t235.5 149t316.5 51.5q175 0 313.5 -52t234.5 -149.5t147 -237.5t51 -317t-50.5 -316.5t-146.5 -237t-235 -149t-316 -51.5zM811 232q95 0 171 30.5t129 91.5t81.5 151t28.5 210t-28 211 t-81 151.5t-129 91.5t-172 31t-172 -31t-129.5 -91.5t-82 -151.5t-28.5 -211t28.5 -210t82 -151t130 -91.5t171.5 -30.5zM1162 1876q-4 -64 -25.5 -117t-63.5 -90.5t-107 -58t-157 -20.5q-91 0 -155.5 21t-106 58.5t-62.5 90t-25 115.5l193 39q3 -74 40.5 -116t115.5 -42 q79 0 118 42t42 116z"/>
<glyph glyph-name="Ocircumflex" unicode="Ô" horiz-adv-x="1620" d="M810 -39q-176 0 -315 51.5t-235 149t-147 237t-51 316.5t51 317.5t147 238t235.5 149t316.5 51.5q175 0 313.5 -52t234.5 -149.5t147 -237.5t51 -317t-50.5 -316.5t-146.5 -237t-235 -149t-316 -51.5zM811 232q95 0 171 30.5t129 91.5t81.5 151t28.5 210t-28 211 t-81 151.5t-129 91.5t-172 31t-172 -31t-129.5 -91.5t-82 -151.5t-28.5 -211t28.5 -210t82 -151t130 -91.5t171.5 -30.5zM959 1886l244 -296h-247l-144 179l-142 -179h-249l244 296h294z"/>
<glyph glyph-name="Odieresis" unicode="Ö" horiz-adv-x="1620" d="M810 -39q-176 0 -315 51.5t-235 149t-147 237t-51 316.5t51 317.5t147 238t235.5 149t316.5 51.5q175 0 313.5 -52t234.5 -149.5t147 -237.5t51 -317t-50.5 -316.5t-146.5 -237t-235 -149t-316 -51.5zM811 232q95 0 171 30.5t129 91.5t81.5 151t28.5 210t-28 211 t-81 151.5t-129 91.5t-172 31t-172 -31t-129.5 -91.5t-82 -151.5t-28.5 -211t28.5 -210t82 -151t130 -91.5t171.5 -30.5zM452 1591v256h264v-256h-264zM915 1591v256h263v-256h-263z"/>
<glyph glyph-name="Ograve" unicode="Ò" horiz-adv-x="1620" d="M810 -39q-176 0 -315 51.5t-235 149t-147 237t-51 316.5t51 317.5t147 238t235.5 149t316.5 51.5q175 0 313.5 -52t234.5 -149.5t147 -237.5t51 -317t-50.5 -316.5t-146.5 -237t-235 -149t-316 -51.5zM811 232q95 0 171 30.5t129 91.5t81.5 151t28.5 210t-28 211 t-81 151.5t-129 91.5t-172 31t-172 -31t-129.5 -91.5t-82 -151.5t-28.5 -211t28.5 -210t82 -151t130 -91.5t171.5 -30.5zM693 1590l-285 295h323l189 -295h-227z"/>
<glyph glyph-name="Ohungarumlaut" unicode="Ő" horiz-adv-x="1620" d="M810 -39q-176 0 -315 51.5t-235 149t-147 237t-51 316.5t51 317.5t147 238t235.5 149t316.5 51.5q175 0 313.5 -52t234.5 -149.5t147 -237.5t51 -317t-50.5 -316.5t-146.5 -237t-235 -149t-316 -51.5zM811 232q95 0 171 30.5t129 91.5t81.5 151t28.5 210t-28 211 t-81 151.5t-129 91.5t-172 31t-172 -31t-129.5 -91.5t-82 -151.5t-28.5 -211t28.5 -210t82 -151t130 -91.5t171.5 -30.5zM910 1592l204 291h262l-258 -291h-208zM498 1592l201 291h251l-234 -291h-218z"/>
<glyph glyph-name="Omacron" unicode="Ō" horiz-adv-x="1620" d="M810 -39q-176 0 -315 51.5t-235 149t-147 237t-51 316.5t51 317.5t147 238t235.5 149t316.5 51.5q175 0 313.5 -52t234.5 -149.5t147 -237.5t51 -317t-50.5 -316.5t-146.5 -237t-235 -149t-316 -51.5zM811 232q95 0 171 30.5t129 91.5t81.5 151t28.5 210t-28 211 t-81 151.5t-129 91.5t-172 31t-172 -31t-129.5 -91.5t-82 -151.5t-28.5 -211t28.5 -210t82 -151t130 -91.5t171.5 -30.5zM459 1593v198h709v-198h-709z"/>
<glyph glyph-name="Oslashacute" unicode="Ǿ" horiz-adv-x="1620" d="M681 1581l188 295h324l-286 -295h-226zM395 -104l52 136q-186 85 -285.5 258.5t-99.5 424.5q0 177 51 317.5t147 238t235.5 149t316.5 51.5q91 0 174 -15l54 142l198 -69l-52 -136q180 -86 276 -258.5t96 -419.5q0 -177 -50.5 -316.5t-146.5 -237t-235 -149t-316 -51.5 q-85 0 -161 12l-55 -146zM399 715q0 -143 39.5 -243.5t114.5 -159.5l334 882q-38 6 -76 6q-96 0 -172 -31t-129.5 -91.5t-82 -151.5t-28.5 -211zM811 232q95 0 171 30.5t129 91.5t81.5 151t28.5 210q0 138 -36.5 236.5t-105.5 158.5l-330 -875q30 -3 62 -3z"/>
<glyph glyph-name="Otilde" unicode="Õ" horiz-adv-x="1620" d="M810 -39q-176 0 -315 51.5t-235 149t-147 237t-51 316.5t51 317.5t147 238t235.5 149t316.5 51.5q175 0 313.5 -52t234.5 -149.5t147 -237.5t51 -317t-50.5 -316.5t-146.5 -237t-235 -149t-316 -51.5zM811 232q95 0 171 30.5t129 91.5t81.5 151t28.5 210t-28 211 t-81 151.5t-129 91.5t-172 31t-172 -31t-129.5 -91.5t-82 -151.5t-28.5 -211t28.5 -210t82 -151t130 -91.5t171.5 -30.5zM387 1627q10 131 73.5 196t176.5 65q28 0 53 -5.5t48.5 -15t48 -22.5l52.5 -28q51 -26 78.5 -35t49.5 -9q28 0 46.5 11.5t30 28.5t16 37t6.5 36 l177 -34q-9 -129 -72 -195t-178 -66q-32 0 -58.5 6.5t-50 16.5t-46 23t-47.5 25l-25 13.5t-30.5 14.5t-34.5 12t-36 5q-30 0 -48.5 -12t-30 -29t-16 -37t-5.5 -35z"/>
<glyph glyph-name="Sacute" unicode="Ś" horiz-adv-x="1331" d="M294 479q16 -67 51 -116.5t85.5 -82t114 -48.5t138.5 -16t126 15.5t82.5 40.5t45.5 56.5t14 63.5q0 41 -16.5 69.5t-48 50.5t-78 39.5t-107.5 37.5l-217 59q-186 55 -284.5 156t-98.5 263q0 99 39 174.5t112 126.5t175.5 77t230.5 26q235 0 380.5 -102t207.5 -295 l-248 -85l-8 2q-17 73 -54 117.5t-82.5 69t-95 33t-91.5 8.5q-69 0 -118.5 -13t-80.5 -35t-45.5 -49.5t-14.5 -55.5q0 -41 17 -69t44.5 -48t64 -34t75.5 -27l238 -62q102 -32 181 -68.5t132.5 -85.5t81 -114.5t27.5 -155.5q0 -96 -39.5 -177t-114.5 -139.5t-182.5 -91.5 t-243.5 -33q-117 0 -224 27t-192 80t-144 131.5t-80 181.5l238 100zM559 1589l188 295h324l-286 -295h-226z"/>
<glyph glyph-name="Scaron" unicode="Š" horiz-adv-x="1331" d="M294 479q16 -67 51 -116.5t85.5 -82t114 -48.5t138.5 -16t126 15.5t82.5 40.5t45.5 56.5t14 63.5q0 41 -16.5 69.5t-48 50.5t-78 39.5t-107.5 37.5l-217 59q-186 55 -284.5 156t-98.5 263q0 99 39 174.5t112 126.5t175.5 77t230.5 26q235 0 380.5 -102t207.5 -295 l-248 -85l-8 2q-17 73 -54 117.5t-82.5 69t-95 33t-91.5 8.5q-69 0 -118.5 -13t-80.5 -35t-45.5 -49.5t-14.5 -55.5q0 -41 17 -69t44.5 -48t64 -34t75.5 -27l238 -62q102 -32 181 -68.5t132.5 -85.5t81 -114.5t27.5 -155.5q0 -96 -39.5 -177t-114.5 -139.5t-182.5 -91.5 t-243.5 -33q-117 0 -224 27t-192 80t-144 131.5t-80 181.5l238 100zM532 1589l-244 296h249l142 -179l144 179h247l-244 -296h-294z"/>
<glyph glyph-name="Scedilla" unicode="Ş" horiz-adv-x="1331" d="M294 479q16 -67 51 -116.5t85.5 -82t114 -48.5t138.5 -16t126 15.5t82.5 40.5t45.5 56.5t14 63.5q0 41 -16.5 69.5t-48 50.5t-78 39.5t-107.5 37.5l-217 59q-186 55 -284.5 156t-98.5 263q0 99 39 174.5t112 126.5t175.5 77t230.5 26q235 0 380.5 -102t207.5 -295 l-248 -85l-8 2q-17 73 -54 117.5t-82.5 69t-95 33t-91.5 8.5q-69 0 -118.5 -13t-80.5 -35t-45.5 -49.5t-14.5 -55.5q0 -41 17 -69t44.5 -48t64 -34t75.5 -27l238 -62q102 -32 181 -68.5t132.5 -85.5t81 -114.5t27.5 -155.5q0 -96 -39.5 -177t-114.5 -139.5t-182.5 -91.5 t-243.5 -33q-117 0 -224 27t-192 80t-144 131.5t-80 181.5l238 100zM539 -284q12 -6 31.5 -12t41.5 -11.5t44.5 -8.5t42.5 -3q51 0 78.5 15.5t27.5 47.5q0 31 -22.5 47.5t-60.5 16.5q-27 0 -46.5 -7t-32.5 -18l-110 15l62 209l151 -11l-64 -122q20 12 46 18t67 6 q49 0 88.5 -12t67 -33.5t42 -52t14.5 -66.5q0 -85 -75.5 -130t-210.5 -45q-31 0 -62 4t-60 10.5t-53.5 15t-41.5 18.5z"/>
<glyph glyph-name="Scircumflex" unicode="Ŝ" horiz-adv-x="1331" d="M294 479q16 -67 51 -116.5t85.5 -82t114 -48.5t138.5 -16t126 15.5t82.5 40.5t45.5 56.5t14 63.5q0 41 -16.5 69.5t-48 50.5t-78 39.5t-107.5 37.5l-217 59q-186 55 -284.5 156t-98.5 263q0 99 39 174.5t112 126.5t175.5 77t230.5 26q235 0 380.5 -102t207.5 -295 l-248 -85l-8 2q-17 73 -54 117.5t-82.5 69t-95 33t-91.5 8.5q-69 0 -118.5 -13t-80.5 -35t-45.5 -49.5t-14.5 -55.5q0 -41 17 -69t44.5 -48t64 -34t75.5 -27l238 -62q102 -32 181 -68.5t132.5 -85.5t81 -114.5t27.5 -155.5q0 -96 -39.5 -177t-114.5 -139.5t-182.5 -91.5 t-243.5 -33q-117 0 -224 27t-192 80t-144 131.5t-80 181.5l238 100zM828 1886l244 -296h-247l-144 179l-142 -179h-249l244 296h294z"/>
<glyph glyph-name="Scommaaccent" unicode="Ș" horiz-adv-x="1331" d="M294 479q16 -67 51 -116.5t85.5 -82t114 -48.5t138.5 -16t126 15.5t82.5 40.5t45.5 56.5t14 63.5q0 41 -16.5 69.5t-48 50.5t-78 39.5t-107.5 37.5l-217 59q-186 55 -284.5 156t-98.5 263q0 99 39 174.5t112 126.5t175.5 77t230.5 26q235 0 380.5 -102t207.5 -295 l-248 -85l-8 2q-17 73 -54 117.5t-82.5 69t-95 33t-91.5 8.5q-69 0 -118.5 -13t-80.5 -35t-45.5 -49.5t-14.5 -55.5q0 -41 17 -69t44.5 -48t64 -34t75.5 -27l238 -62q102 -32 181 -68.5t132.5 -85.5t81 -114.5t27.5 -155.5q0 -96 -39.5 -177t-114.5 -139.5t-182.5 -91.5 t-243.5 -33q-117 0 -224 27t-192 80t-144 131.5t-80 181.5l238 100zM564 -463q28 11 45 21t25.5 21.5t11 25.5t2.5 33h-70v245h232v-224q0 -102 -53.5 -160t-165.5 -85z"/>
<glyph glyph-name="Tbar" unicode="Ŧ" horiz-adv-x="1322" d="M500 0v1164h-482v268h1286v-268h-482v-1164h-322zM320 612v198h709v-198h-709z"/>
<glyph glyph-name="Tcaron" unicode="Ť" horiz-adv-x="1322" d="M500 0v1164h-482v268h1286v-268h-482v-1164h-322zM515 1586l-244 296h249l142 -179l144 179h247l-244 -296h-294z"/>
<glyph glyph-name="Tcommaaccent" unicode="Ţ" horiz-adv-x="1322" d="M500 0v1164h-482v268h1286v-268h-482v-1164h-322zM533 -431q28 11 45 21t25.5 21.5t11 25.5t2.5 33h-70v245h232v-224q0 -102 -53.5 -160t-165.5 -85z"/>
<glyph glyph-name="Uacute" unicode="Ú" horiz-adv-x="1550" d="M1119 1432h310v-858q0 -146 -40.5 -260t-122.5 -192.5t-204.5 -119.5t-286.5 -41t-286.5 41t-204.5 119.5t-122.5 192.5t-40.5 261v857h333v-868q0 -171 82 -259.5t250 -88.5q165 0 249 88.5t84 259.5v868zM663 1590l188 295h324l-286 -295h-226z"/>
<glyph glyph-name="Ubreve" unicode="Ŭ" horiz-adv-x="1550" d="M1119 1432h310v-858q0 -146 -40.5 -260t-122.5 -192.5t-204.5 -119.5t-286.5 -41t-286.5 41t-204.5 119.5t-122.5 192.5t-40.5 261v857h333v-868q0 -171 82 -259.5t250 -88.5q165 0 249 88.5t84 259.5v868zM1127 1876q-4 -64 -25.5 -117t-63.5 -90.5t-107 -58t-157 -20.5 q-91 0 -155.5 21t-106 58.5t-62.5 90t-25 115.5l193 39q3 -74 40.5 -116t115.5 -42q79 0 118 42t42 116z"/>
<glyph glyph-name="Ucircumflex" unicode="Û" horiz-adv-x="1550" d="M1119 1432h310v-858q0 -146 -40.5 -260t-122.5 -192.5t-204.5 -119.5t-286.5 -41t-286.5 41t-204.5 119.5t-122.5 192.5t-40.5 261v857h333v-868q0 -171 82 -259.5t250 -88.5q165 0 249 88.5t84 259.5v868zM924 1886l244 -296h-247l-144 179l-142 -179h-249l244 296h294z "/>
<glyph glyph-name="Udieresis" unicode="Ü" horiz-adv-x="1550" d="M1119 1432h310v-858q0 -146 -40.5 -260t-122.5 -192.5t-204.5 -119.5t-286.5 -41t-286.5 41t-204.5 119.5t-122.5 192.5t-40.5 261v857h333v-868q0 -171 82 -259.5t250 -88.5q165 0 249 88.5t84 259.5v868zM416 1590v256h264v-256h-264zM879 1590v256h263v-256h-263z"/>
<glyph glyph-name="Ugrave" unicode="Ù" horiz-adv-x="1550" d="M1119 1432h310v-858q0 -146 -40.5 -260t-122.5 -192.5t-204.5 -119.5t-286.5 -41t-286.5 41t-204.5 119.5t-122.5 192.5t-40.5 261v857h333v-868q0 -171 82 -259.5t250 -88.5q165 0 249 88.5t84 259.5v868zM680 1589l-285 295h323l189 -295h-227z"/>
<glyph glyph-name="Uhungarumlaut" unicode="Ű" horiz-adv-x="1550" d="M1119 1432h310v-858q0 -146 -40.5 -260t-122.5 -192.5t-204.5 -119.5t-286.5 -41t-286.5 41t-204.5 119.5t-122.5 192.5t-40.5 261v857h333v-868q0 -171 82 -259.5t250 -88.5q165 0 249 88.5t84 259.5v868zM874 1591l204 291h262l-258 -291h-208zM462 1591l201 291h251 l-234 -291h-218z"/>
<glyph glyph-name="Umacron" unicode="Ū" horiz-adv-x="1550" d="M1119 1432h310v-858q0 -146 -40.5 -260t-122.5 -192.5t-204.5 -119.5t-286.5 -41t-286.5 41t-204.5 119.5t-122.5 192.5t-40.5 261v857h333v-868q0 -171 82 -259.5t250 -88.5q165 0 249 88.5t84 259.5v868zM440 1592v198h709v-198h-709z"/>
<glyph glyph-name="Uogonek" unicode="Ų" horiz-adv-x="1550" d="M1119 1432h310v-858q0 -146 -40.5 -260t-122.5 -192.5t-204.5 -119.5t-286.5 -41t-286.5 41t-204.5 119.5t-122.5 192.5t-40.5 261v857h333v-868q0 -171 82 -259.5t250 -88.5q165 0 249 88.5t84 259.5v868zM1132 -318q-32 -26 -84 -43t-123 -17q-55 0 -100 11.5t-77 34.5 t-49.5 56t-17.5 77q0 34 14 69t42.5 66t71.5 56.5t100 40.5l197 -13q-46 -15 -83.5 -33t-64.5 -39.5t-41.5 -45.5t-14.5 -51q0 -35 18.5 -57.5t66.5 -22.5q50 0 89 31z"/>
<glyph glyph-name="Uring" unicode="Ů" horiz-adv-x="1550" d="M1119 1432h310v-858q0 -146 -40.5 -260t-122.5 -192.5t-204.5 -119.5t-286.5 -41t-286.5 41t-204.5 119.5t-122.5 192.5t-40.5 261v857h333v-868q0 -171 82 -259.5t250 -88.5q165 0 249 88.5t84 259.5v868zM795 1593q-65 0 -116.5 16.5t-88.5 46.5t-56.5 72t-19.5 93 q0 52 19.5 94t56.5 72t88.5 46t116.5 16q64 0 116 -16t88.5 -46t56 -72t19.5 -94q0 -51 -19.5 -93t-56 -72t-88.5 -46.5t-116 -16.5zM795 1729q53 0 81.5 24.5t28.5 67.5q0 42 -28.5 67.5t-81.5 25.5q-54 0 -82 -25.5t-28 -67.5q0 -43 28 -67.5t82 -24.5z"/>
<glyph glyph-name="Utilde" unicode="Ũ" horiz-adv-x="1550" d="M1119 1432h310v-858q0 -146 -40.5 -260t-122.5 -192.5t-204.5 -119.5t-286.5 -41t-286.5 41t-204.5 119.5t-122.5 192.5t-40.5 261v857h333v-868q0 -171 82 -259.5t250 -88.5q165 0 249 88.5t84 259.5v868zM352 1626q10 131 73.5 196t176.5 65q28 0 53 -5.5t48.5 -15 t48 -22.5l52.5 -28q51 -26 78.5 -35t49.5 -9q28 0 46.5 11.5t30 28.5t16 37t6.5 36l177 -34q-9 -129 -72 -195t-178 -66q-32 0 -58.5 6.5t-50 16.5t-46 23t-47.5 25l-25 13.5t-30.5 14.5t-34.5 12t-36 5q-30 0 -48.5 -12t-30 -29t-16 -37t-5.5 -35z"/>
<glyph glyph-name="Wacute" unicode="Ẃ" horiz-adv-x="2139" d="M1355 0l-253 912l-32 144l-33 -143l-253 -913h-358l-396 1432h335l238 -958l21 -126l294 1084h320l299 -1083l22 124l233 959h317l-396 -1432h-358zM956 1590l188 295h324l-286 -295h-226z"/>
<glyph glyph-name="Wcircumflex" unicode="Ŵ" horiz-adv-x="2139" d="M1355 0l-253 912l-32 144l-33 -143l-253 -913h-358l-396 1432h335l238 -958l21 -126l294 1084h320l299 -1083l22 124l233 959h317l-396 -1432h-358zM1217 1886l244 -296h-247l-144 179l-142 -179h-249l244 296h294z"/>
<glyph glyph-name="Wdieresis" unicode="Ẅ" horiz-adv-x="2139" d="M1355 0l-253 912l-32 144l-33 -143l-253 -913h-358l-396 1432h335l238 -958l21 -126l294 1084h320l299 -1083l22 124l233 959h317l-396 -1432h-358zM710 1590v256h264v-256h-264zM1173 1590v256h263v-256h-263z"/>
<glyph glyph-name="Wgrave" unicode="Ẁ" horiz-adv-x="2139" d="M1355 0l-253 912l-32 144l-33 -143l-253 -913h-358l-396 1432h335l238 -958l21 -126l294 1084h320l299 -1083l22 124l233 959h317l-396 -1432h-358zM951 1589l-285 295h323l189 -295h-227z"/>
<glyph glyph-name="Yacute" unicode="Ý" horiz-adv-x="1412" d="M545 0v523l-545 909h360l352 -669l354 669h346l-544 -909v-523h-323zM599 1590l188 295h324l-286 -295h-226z"/>
<glyph glyph-name="Ycircumflex" unicode="Ŷ" horiz-adv-x="1412" d="M545 0v523l-545 909h360l352 -669l354 669h346l-544 -909v-523h-323zM861 1886l244 -296h-247l-144 179l-142 -179h-249l244 296h294z"/>
<glyph glyph-name="Ydieresis" unicode="Ÿ" horiz-adv-x="1412" d="M545 0v523l-545 909h360l352 -669l354 669h346l-544 -909v-523h-323zM353 1591v256h264v-256h-264zM816 1591v256h263v-256h-263z"/>
<glyph glyph-name="Ygrave" unicode="Ỳ" horiz-adv-x="1412" d="M545 0v523l-545 909h360l352 -669l354 669h346l-544 -909v-523h-323zM594 1590l-285 295h323l189 -295h-227z"/>
<glyph glyph-name="Zacute" unicode="Ź" horiz-adv-x="1361" d="M72 0v222l796 953h-774v257h1180v-223l-795 -952h809v-257h-1216zM556 1590l188 295h324l-286 -295h-226z"/>
<glyph glyph-name="Zcaron" unicode="Ž" horiz-adv-x="1361" d="M72 0v222l796 953h-774v257h1180v-223l-795 -952h809v-257h-1216zM575 1589l-244 296h249l142 -179l144 179h247l-244 -296h-294z"/>
<glyph glyph-name="Zdotaccent" unicode="Ż" horiz-adv-x="1361" d="M72 0v222l796 953h-774v257h1180v-223l-795 -952h809v-257h-1216zM562 1589v273h269v-273h-269z"/>
<glyph glyph-name="commaaccent" unicode="" horiz-adv-x="551" d="M160 -431q28 11 45 21t25.5 21.5t11 25.5t2.5 33h-70v245h232v-224q0 -102 -53.5 -160t-165.5 -85z"/>
<glyph glyph-name="Racute" unicode="Ŕ" horiz-adv-x="1475" d="M1114 0q-8 10 -16 22.5t-16.5 30.5t-17 43.5t-17.5 63.5l-41 157q-31 117 -100 174.5t-187 57.5h-247v-549h-315v1432h701q115 0 211 -24.5t166 -76.5t109 -133t39 -195q0 -77 -23 -140.5t-63.5 -111.5t-96.5 -78.5t-123 -40.5q36 -5 72.5 -22.5t69 -49.5t59 -80 t41.5 -114l42 -178q19 -78 42.5 -122.5t40.5 -65.5h-330zM801 760q57 0 103 12t78 39t49 70t17 104q0 60 -17 98.5t-48.5 61t-76 31.5t-99.5 9h-335v-425h329zM575 1591l188 295h324l-286 -295h-226z"/>
<glyph glyph-name="Rcaron" unicode="Ř" horiz-adv-x="1475" d="M1114 0q-8 10 -16 22.5t-16.5 30.5t-17 43.5t-17.5 63.5l-41 157q-31 117 -100 174.5t-187 57.5h-247v-549h-315v1432h701q115 0 211 -24.5t166 -76.5t109 -133t39 -195q0 -77 -23 -140.5t-63.5 -111.5t-96.5 -78.5t-123 -40.5q36 -5 72.5 -22.5t69 -49.5t59 -80 t41.5 -114l42 -178q19 -78 42.5 -122.5t40.5 -65.5h-330zM801 760q57 0 103 12t78 39t49 70t17 104q0 60 -17 98.5t-48.5 61t-76 31.5t-99.5 9h-335v-425h329zM568 1592l-244 296h249l142 -179l144 179h247l-244 -296h-294z"/>
<glyph glyph-name="Rcommaaccent" unicode="Ŗ" horiz-adv-x="1475" d="M1114 0q-8 10 -16 22.5t-16.5 30.5t-17 43.5t-17.5 63.5l-41 157q-31 117 -100 174.5t-187 57.5h-247v-549h-315v1432h701q115 0 211 -24.5t166 -76.5t109 -133t39 -195q0 -77 -23 -140.5t-63.5 -111.5t-96.5 -78.5t-123 -40.5q36 -5 72.5 -22.5t69 -49.5t59 -80 t41.5 -114l42 -178q19 -78 42.5 -122.5t40.5 -65.5h-330zM801 760q57 0 103 12t78 39t49 70t17 104q0 60 -17 98.5t-48.5 61t-76 31.5t-99.5 9h-335v-425h329zM617 -431q28 11 45 21t25.5 21.5t11 25.5t2.5 33h-70v245h232v-224q0 -102 -53.5 -160t-165.5 -85z"/>
<glyph glyph-name="aacute" unicode="á" horiz-adv-x="1330" d="M1291 14q-9 -5 -27.5 -13t-43.5 -15.5t-54.5 -12.5t-59.5 -5q-51 0 -91 11t-67.5 35t-42 63.5t-14.5 96.5q0 25 3.5 59t9.5 79q-20 -94 -64.5 -159.5t-106.5 -106.5t-137.5 -59.5t-156.5 -18.5q-89 0 -158.5 21t-117 60t-72.5 93.5t-25 122.5q0 67 28 116.5t79 85t122 58 t157.5 35t185.5 17t205 4.5v70q0 45 -12.5 82.5t-40 64.5t-71.5 42t-107 15q-43 0 -83 -10t-73 -31.5t-56 -54.5t-32 -79l-239 45q18 75 58 136.5t103.5 105.5t151 68t201.5 24q258 0 382 -113t124 -347v-359q0 -47 14.5 -69.5t49.5 -22.5q24 0 45.5 5.5t32.5 10.5v-150z M844 447q-101 -3 -186 -10.5t-147.5 -25.5t-97.5 -50t-35 -84q0 -26 9 -48.5t28.5 -39.5t51.5 -27t77 -10q61 0 116 24.5t95.5 64t64.5 91t24 105.5v10zM514 1184l188 295h324l-286 -295h-226z"/>
<glyph glyph-name="abreve" unicode="ă" horiz-adv-x="1330" d="M1291 14q-9 -5 -27.5 -13t-43.5 -15.5t-54.5 -12.5t-59.5 -5q-51 0 -91 11t-67.5 35t-42 63.5t-14.5 96.5q0 25 3.5 59t9.5 79q-20 -94 -64.5 -159.5t-106.5 -106.5t-137.5 -59.5t-156.5 -18.5q-89 0 -158.5 21t-117 60t-72.5 93.5t-25 122.5q0 67 28 116.5t79 85t122 58 t157.5 35t185.5 17t205 4.5v70q0 45 -12.5 82.5t-40 64.5t-71.5 42t-107 15q-43 0 -83 -10t-73 -31.5t-56 -54.5t-32 -79l-239 45q18 75 58 136.5t103.5 105.5t151 68t201.5 24q258 0 382 -113t124 -347v-359q0 -47 14.5 -69.5t49.5 -22.5q24 0 45.5 5.5t32.5 10.5v-150z M844 447q-101 -3 -186 -10.5t-147.5 -25.5t-97.5 -50t-35 -84q0 -26 9 -48.5t28.5 -39.5t51.5 -27t77 -10q61 0 116 24.5t95.5 64t64.5 91t24 105.5v10zM990 1470q-4 -64 -25.5 -117t-63.5 -90.5t-107 -58t-157 -20.5q-91 0 -155.5 21t-106 58.5t-62.5 90t-25 115.5l193 39 q3 -74 40.5 -116t115.5 -42q79 0 118 42t42 116z"/>
<glyph glyph-name="acircumflex" unicode="â" horiz-adv-x="1330" d="M1291 14q-9 -5 -27.5 -13t-43.5 -15.5t-54.5 -12.5t-59.5 -5q-51 0 -91 11t-67.5 35t-42 63.5t-14.5 96.5q0 25 3.5 59t9.5 79q-20 -94 -64.5 -159.5t-106.5 -106.5t-137.5 -59.5t-156.5 -18.5q-89 0 -158.5 21t-117 60t-72.5 93.5t-25 122.5q0 67 28 116.5t79 85t122 58 t157.5 35t185.5 17t205 4.5v70q0 45 -12.5 82.5t-40 64.5t-71.5 42t-107 15q-43 0 -83 -10t-73 -31.5t-56 -54.5t-32 -79l-239 45q18 75 58 136.5t103.5 105.5t151 68t201.5 24q258 0 382 -113t124 -347v-359q0 -47 14.5 -69.5t49.5 -22.5q24 0 45.5 5.5t32.5 10.5v-150z M844 447q-101 -3 -186 -10.5t-147.5 -25.5t-97.5 -50t-35 -84q0 -26 9 -48.5t28.5 -39.5t51.5 -27t77 -10q61 0 116 24.5t95.5 64t64.5 91t24 105.5v10zM778 1480l244 -296h-247l-144 179l-142 -179h-249l244 296h294z"/>
<glyph glyph-name="adieresis" unicode="ä" horiz-adv-x="1330" d="M1291 14q-9 -5 -27.5 -13t-43.5 -15.5t-54.5 -12.5t-59.5 -5q-51 0 -91 11t-67.5 35t-42 63.5t-14.5 96.5q0 25 3.5 59t9.5 79q-20 -94 -64.5 -159.5t-106.5 -106.5t-137.5 -59.5t-156.5 -18.5q-89 0 -158.5 21t-117 60t-72.5 93.5t-25 122.5q0 67 28 116.5t79 85t122 58 t157.5 35t185.5 17t205 4.5v70q0 45 -12.5 82.5t-40 64.5t-71.5 42t-107 15q-43 0 -83 -10t-73 -31.5t-56 -54.5t-32 -79l-239 45q18 75 58 136.5t103.5 105.5t151 68t201.5 24q258 0 382 -113t124 -347v-359q0 -47 14.5 -69.5t49.5 -22.5q24 0 45.5 5.5t32.5 10.5v-150z M844 447q-101 -3 -186 -10.5t-147.5 -25.5t-97.5 -50t-35 -84q0 -26 9 -48.5t28.5 -39.5t51.5 -27t77 -10q61 0 116 24.5t95.5 64t64.5 91t24 105.5v10zM275 1184v256h264v-256h-264zM738 1184v256h263v-256h-263z"/>
</font>
</defs>
</svg>
